<svg xmlns="http://www.w3.org/2000/svg" xmlns:xlink="http://www.w3.org/1999/xlink" height="299.1" preserveAspectRatio="xMidYMid meet" version="1.0" viewBox="-1.6 -0.2 143.1 299.1" width="143.1" zoomAndPan="magnify"><g id="change1_1"><path d="M22.02,17.67c-0.22-0.2-0.37-0.65-0.08-0.7c1.78,1.08,3.36,2.49,4.65,4.12c0.13,0.17,0.25,0.43,0.09,0.56 c-0.15,0.12-0.37-0.02-0.51-0.15c-0.7-0.65-1.41-1.3-2.11-1.96C23.37,18.93,22.7,18.3,22.02,17.67z"/><path d="M32,31.7c0.85,0.84,1.74,1.8,1.79,2.99c-6.33-6.68-13.32-12.73-20.84-18.03c0.05-0.45,0.74-0.31,1.11-0.05 C20.43,21.16,26.43,26.21,32,31.7z"/><path d="M38.27,9.7c-0.97-1.73-1.87-3.5-2.71-5.3c-0.14-0.29-0.17-0.78,0.15-0.81c0.98,1.58,1.85,3.23,2.59,4.94 C38.48,8.91,38.61,9.44,38.27,9.7z"/><path d="M37.97,12.56c-1.05-1.71-2.1-3.42-3.16-5.13c-0.3-0.5-0.61-0.99-0.88-1.5c-0.13-0.25-0.15-0.69,0.13-0.67 c0.12,0.01,0.21,0.11,0.28,0.21c1.69,2.32,3.18,4.8,4.43,7.39C38.62,13.16,38.16,12.85,37.97,12.56z"/><path d="M56.99,46.19c-0.47-0.11-0.66-0.65-0.79-1.11c-0.53-1.9-1.3-3.74-2.27-5.46c0.13-0.33,0.63-0.05,0.82,0.25 C55.96,41.77,56.73,43.95,56.99,46.19z"/><path d="M63.48,37.71c-0.08,1.55-0.16,3.11-0.24,4.66c-0.03,0.54-0.08,1.13-0.46,1.51c-0.6-2.15,0.2-4.41,0.22-6.64 c0.01-1.28-0.23-2.55-0.42-3.81c-0.04-0.29,0.02-0.71,0.32-0.7c0.22,0.01,0.32,0.28,0.36,0.49c0.19,1.03,0.28,2.08,0.27,3.13 C63.53,36.8,63.5,37.25,63.48,37.71z"/><path d="M57.71,47.47c0.45,0.41,0.91,0.83,1.13,1.4c0.22,0.56,0.12,1.3-0.39,1.63c-0.86-0.7-1.6-1.56-2.18-2.51 c0.17-0.27,0.6-0.14,0.79,0.11c0.19,0.25,0.24,0.59,0.44,0.83c0.2,0.25,0.65,0.33,0.78,0.04C57.83,48.63,57.6,48.03,57.71,47.47z"/><path d="M41.77,51.37c0.02,1.17-0.09,2.33-0.32,3.47c-0.06,0.29-0.24,0.55-0.49,0.7C40.62,54.13,40.92,52.56,41.77,51.37z"/><path d="M47.27,50.43c0.78,0.89,0.69,2.22,0.57,3.4c-0.01,0.12-0.03,0.25-0.12,0.32c-0.27,0.23-0.55-0.29-0.54-0.64 C47.21,52.49,47.24,51.46,47.27,50.43z"/><path d="M48.25,50.43c0.54,0.52,0.89,1.24,0.97,2c0.04,0.37,0.01,0.76-0.13,1.1c-0.41-0.15-0.52-0.66-0.58-1.1 C48.42,51.76,48.34,51.09,48.25,50.43z"/><path d="M49.95,50.88c-0.11-0.2,0.17-0.44,0.39-0.37c0.22,0.06,0.36,0.28,0.46,0.49c0.68,1.31,1.14,2.73,1.35,4.19 c0.03,0.21,0.05,0.45-0.08,0.61c-0.13,0.17-0.47,0.15-0.5-0.06C51.33,54.03,50.78,52.38,49.95,50.88z"/><path d="M73.97,35.45c0.16,0.23,0.01,0.61-0.27,0.67c-0.06-0.3,0.01-0.75,0.31-0.7L73.97,35.45z"/><path d="M73.37,36.13c0.1-0.16,0.4,0.06,0.28,0.21c-0.11,0.15-0.4-0.06-0.29-0.22L73.37,36.13z"/><path d="M8.13,29.1c3.96,8.91,11.18,16.32,19.98,20.51c2.03,0.97,4.13,1.76,6.22,2.56c0.86,0.33,1.73,0.66,2.59,0.98 c-12.27-2.39-23.21-10.85-28.6-22.13C8.04,30.42,7.77,29.67,8.13,29.1z"/><path d="M73.91,35.4c0.47-1.48,0.95-2.95,1.42-4.43c0.34-1.04,0.67-2.09,0.94-3.15c0.31-1.22,0.55-2.46,0.69-3.72 c0.06-0.53,0.15-1.13,0.58-1.45c0.27,0.55,0.18,1.2,0.07,1.81c-0.65,3.65-1.73,7.23-3.21,10.63C74.31,35.3,74.08,35.55,73.91,35.4z"/><path d="M47.99,146.96c-3.7-1.62-7.63-2.83-10.92-5.18c-4.37-3.13-7.18-7.99-11.21-11.55c-4.03-3.55-10.56-5.53-14.61-1.99 c5.81-6.46,16.25-6.92,24.09-3.18c7.84,3.74,13.55,10.78,18.46,17.95c4.9,7.17,9.37,14.79,15.79,20.64 c-6.16-11.33-12.31-22.65-18.47-33.98c-3.66-6.73-7.39-13.7-8.12-21.33c-1.09-11.44,4.71-22.28,10.33-32.31 c6.21,13.35,0.84,28.93,0.86,43.66c0.02,13.81,5.11,27.55,14.09,38.04c-4.62-12.22-3.03-26.6,4.13-37.53 c1.75-2.67,0.92-6.19,0-9.24c-4.97-16.61-10.62-33.01-16.95-49.15c-5.93,3.02-13.19,3.32-19.35,0.78 c-4.03,4.57-8.34,10.41-6.38,16.18c-2.78-2.23-4.85-5.33-5.85-8.75c-7.1,2.32-15.66-1.81-18.26-8.81c4.08,1.9,9.23,1.19,12.65-1.73 c-6.24,1.6-13.84-0.38-16.85-6.08s1.46-14.36,7.86-13.66c-2.23-5.29-3.1-11.15-2.52-16.86c0.25-2.44,0.89-5.08,2.85-6.56 c4.33-3.27,10.92,1.55,15.85-0.73C26.82,9.19,31.84,3.69,38.1,1.77s13.5-0.19,18.21,4.36c2.57,2.48,6.62,2.16,10.18,2.38 c3.57,0.21,7.87,2.04,7.93,5.61c0.06,3.28,3.91,4.93,5.91,7.53c2.56,3.33,1.8,8.33-0.62,11.76c-2.43,3.43-6.16,5.67-9.78,7.8 c3.59,0.08,7.31,0.18,10.53,1.77c3.22,1.58,5.79,5.1,5.09,8.61c-4.27-1.3-9.08-0.65-12.86,1.72c6.22,0.04,11.24,7.21,9.16,13.07 c-7.66-4.97-17.08-7.17-26.15-6.08c7.8,18.02,14.07,36.71,18.72,55.79c8.93-5.69,20.51-7.01,30.5-3.48 c-11.19,3.42-20.8,11.7-25.84,22.26c-0.76,1.6-0.69,3.46-0.6,5.23c1.22,24.37,2.44,48.73,3.66,73.1 c3.79-17.7,14.06-33.94,28.44-44.95c4.68-3.59,10-6.7,15.87-7.31s12.35,1.85,15.09,7.08c-8.6-2.93-19.06,1.5-22.93,9.73 c-6.39,13.57-16.98,25.12-29.94,32.65c-1.91,1.11-3.96,2.22-5.1,4.11c-1.47,2.44-1.06,5.52-0.56,8.32 C87.6,248.84,95.4,274.2,104.52,299c-12.25-26.55-20.02-55.16-22.91-84.25c-1.46-14.71-1.79-30.01-8.22-43.32 C68.16,160.62,58.99,151.78,47.99,146.96 M25.99,67.97c0.03-0.86,0.19-1.73,0.63-2.48c0.77-1.31,2.29-2.05,3.03-3.37 c0.04-0.07,0.07-0.14,0.08-0.22c0.03-0.23-0.2-0.42-0.43-0.43c-0.23-0.02-0.44,0.09-0.64,0.21c-2.32,1.34-3.92,3.87-4.14,6.54 c-0.03,0.34-0.04,0.69-0.01,1.04c0.05,0.55,0.19,1.09,0.36,1.61c0.6,1.81,1.59,3.5,2.89,4.9c-0.23-0.73-0.46-1.45-0.68-2.18 C26.51,71.77,25.93,69.89,25.99,67.97 M7.05,62.52c2.43,1.61,5.58,1.69,8.2,2.95c1.02,0.49,2.04,1.18,3.17,1.11 c0.4-0.03,0.79-0.15,1.17-0.27c1.15-0.36,2.3-0.72,3.45-1.08c0.63-0.2,1.29-0.41,1.75-0.89c0.75-0.78,0.77-2.04,1.5-2.84 c0.08-0.08,0.17-0.18,0.16-0.29c-0.02-0.18-0.24-0.23-0.42-0.24c-1.3-0.07-2.59-0.14-3.89-0.21c-1.6-0.09-3.32-0.15-4.69,0.68 c-3.18,1.91-7.32,2.11-10.66,0.52C6.64,62.14,6.85,62.39,7.05,62.52 M57.95,30.93c3.79-1.36,7.14-3.93,9.43-7.25 c0.61-0.89,1.17-1.84,1.98-2.54c0.82-0.7,1.99-1.12,2.99-0.72c1.37,0.55,1.78,2.26,2,3.73c0.2,1.31,0.39,2.62,0.59,3.93 c0.15-1.76,0.6-3.5,1.31-5.11c0.05,4.49-1.96,8.71-3.04,13.07c-0.11,0.44-0.17,0.99,0.18,1.28c2.44-1.66,4.9-3.43,6.49-5.91 c1.59-2.48,2.11-5.87,0.53-8.36c-2.14-3.38-6.99-3.79-9.92-6.52c-0.79-0.73-1.68-1.71-2.72-1.44c-0.33,0.09-0.62,0.3-0.88,0.51 c-2.4,1.97-3.89,5-3.98,8.1c-0.05,1.69,0.11,3.78-1.33,4.66c0.39-1.53,0.72-3.07,0.99-4.63C60.01,25.24,58.25,27.99,57.95,30.93 M50.14,48.84c1.83-0.34,3.6-1,5.2-1.95c-0.34-1.6-0.67-3.21-1.01-4.81c0.94,1.27,1.49,2.82,1.58,4.39 c1.85-0.34,3.65-0.96,5.32-1.83c0.47-3.68,0.32-7.45-0.45-11.08c1.35,2.35,1.84,5.19,1.35,7.85c-0.19,1.02-0.46,2.24,0.28,2.97 c0.81,0.09,1.57-0.5,1.94-1.22c0.37-0.72,0.44-1.56,0.5-2.37c0.25-3.4,0.49-6.8,0.74-10.2c0.69,3.84,0.53,7.83-0.48,11.6 c-0.16,0.62-0.13,1.56,0.51,1.56c0.35,0,0.6-0.33,0.78-0.64c2.73-4.61,4.29-9.9,4.5-15.25c0.84,2.54,0.28,5.33-0.54,7.87 c-0.86,2.64-2,5.19-3.39,7.59c0.88,0.42,1.83-0.43,2.4-1.22c4.03-5.58,5.4-12.99,3.64-19.65c-0.13-0.5-0.32-1.05-0.78-1.29 c-0.6-0.31-1.33,0.07-1.86,0.5c-2.19,1.79-3.46,4.49-5.57,6.38c-2.19,1.96-5.11,2.87-7.58,4.46c-2.47,1.59-4.63,4.43-3.85,7.27 c0.46,1.67-0.96,3.19-2.12,4.47C50.07,45.51,49.03,47.51,50.14,48.84 M37.03,42.62c0.73-0.14,1.44,0.26,2.08,0.65 c0.63,0.39,1.33,0.8,2.07,0.7c0.74-0.1,1.35-1.04,0.88-1.61c-0.99-0.39-1.89-1.02-2.6-1.82c0.82-0.2,1.56,0.48,2.29,0.89 c0.73,0.42,1.99,0.34,2.06-0.5c-0.65-1.04-1.31-2.09-1.96-3.13c1.19,0.41,2.14,1.44,2.46,2.66c0.65,0.07,1.25-0.46,1.46-1.08 c0.21-0.62,0.13-1.3,0.01-1.94c-1.13-6.12-5.16-11.26-9.22-15.98c-1.59-1.86-3.32-3.76-5.62-4.58c-1.83-0.65-3.83-0.54-5.76-0.43 c-2.27,0.14-4.53,0.27-6.8,0.41c3.75,2.1,7.01,5.07,9.44,8.61c-2-1.74-4-3.47-5.99-5.21c-1.75-1.53-3.57-3.08-5.76-3.84 c-2.2-0.76-4.9-0.54-6.49,1.15C8.59,18.59,8.15,20,7.87,21.39c-0.25,1.26-0.39,2.58,0.02,3.8c-0.44,0.26-0.5,0.85-0.51,1.36 c-0.03,5.19,1.64,10.38,4.69,14.58c5.04,6.95,13.25,10.73,21.09,14.22c0.96,0.43,2.13,0.09,2.95-0.58c0.82-0.66,1.36-1.6,1.89-2.51 c-11.26-3.01-21.27-10.43-27.42-20.33c-1.26-2.03-2.39-4.25-2.56-6.63c5.12,12.39,16.19,22,28.99,26c0.76,0.24,1.59,0.45,2.33,0.16 c0.74-0.3,1.19-1.35,0.63-1.92c-1.2,0.35-2.4,0.7-3.6,1.04c0.37-0.85,1.43-1.1,2.31-1.43s1.81-1.18,1.44-2.03 c-1.53,0.37-3.21,0.06-4.5-0.84c1.57,0.07,3.14,0.15,4.71,0.22c0.33-0.44,0.52-1,0.52-1.55C39.44,44.45,38.13,43.65,37.03,42.62 M39.89,18.49c0.95,2.05,1.67,4.2,2.39,6.35c1.62,4.86,3.24,9.71,4.86,14.57c0.57-0.15,1.15-0.3,1.72-0.45 c0.18-1.53,0.35-3.06,0.53-4.59c0.87,0.47,0.58,1.75,0.33,2.7c-0.25,0.95,0.11,2.4,1.08,2.21c0.29-3.17,0.58-6.34,0.88-9.51 c0.02-0.23,0.05-0.49,0.23-0.64c0.18-0.16,0.53-0.08,0.54,0.15c-0.31,2.99-0.63,5.99-0.94,8.98c-0.05,0.43-0.09,0.9,0.1,1.29 c0.19,0.4,0.69,0.67,1.07,0.46c-0.54-1.9-0.09-4.05,1.18-5.57c0.44-0.53,0.98-1,1.31-1.61c0.37-0.69,0.42-1.51,0.44-2.29 c0.25-7.58-1.07-15.21-3.84-22.27c-0.69-1.76-1.52-3.55-2.98-4.76c-2.29-1.89-5.56-1.9-8.51-1.59c-2.58,0.27-5.46,0.93-6.78,3.16 c-0.59,0.98-0.92,2.31-2.01,2.67C35.05,10.61,37.95,14.32,39.89,18.49 M99.2,202c1.21-0.96,2.39-1.97,3.47-3.08 c1.64-1.7,3.02-3.64,4.39-5.57c4.94-6.96,9.88-13.93,14.82-20.89c1.68-2.36,3.84-4.37,6.32-5.87c-2.03-0.36-4.17-0.31-6.11,0.4 c-1.34,0.49-2.54,1.27-3.71,2.08c-14.87,10.32-25.33,25.83-33.91,41.78C89.73,208.55,94.7,205.57,99.2,202 M47.86,120.93 c1.37,3.25,3.01,6.47,5.53,8.95c-4.11-14.57-4.93-30.06-2.37-44.98c0.65,0.88,0.51,2.1,0.37,3.19 c-1.56,11.47-0.95,23.24,1.78,34.49c-1.22-8.88,2.54-17.71,2.61-26.68c0.05-5.69-1.39-11.28-2.83-16.8 c-1.69,3.23-3.38,6.47-5.08,9.7c-0.8,1.53-1.6,3.05-2.23,4.66C42.2,102.22,44.2,112.24,47.86,120.93 M76.95,176.63 c0.61,1.75,1.03,3.56,1.46,5.37c0.47,2.04,0.95,4.07,1.42,6.11c-0.52-11.05-1.05-22.09-1.57-33.14c-0.3-6.43-0.61-12.88-1.61-19.24 c-4.62,2.84-7.79,7.91-8.32,13.31c-0.22,2.23-0.01,4.47,0.26,6.7c0.14,1.14,0.29,2.27,0.54,3.39 C70.54,165.38,74.84,170.58,76.95,176.63 M101.61,113.23c-5.66-1.51-11.86-0.91-17.13,1.64c-5.27,2.56-9.58,7.05-11.9,12.43 c-0.68,1.57-1.19,3.21-1.67,4.86c-1.22,4.23-2.18,8.53-2.87,12.87c1.1-3.69,3.81-6.67,6.7-9.21c2.89-2.54,6.05-4.81,8.51-7.77 c2.36-2.84,4-6.24,6.51-8.95C92.82,115.8,97.12,113.66,101.61,113.23 M54.46,59.97c1.7-0.42,0.65-3.6,2.17-4.47 c-0.17,1.07-0.33,2.15-0.5,3.22c2.2-1.37,3.74-3.75,4.1-6.31c0.45-3.18,2.37-6.13,5.1-7.82c-1.59-0.09-3.14,0.48-4.61,1.08 c-5.39,2.2-10.86,5.02-16.66,4.54c-1.6-0.13-3.1,0.95-3.93,2.31c-0.84,1.36-1.15,2.98-1.44,4.55c-0.59-1.39-0.32-3.11,0.67-4.26 c-1.62,1.41-3.24,2.81-4.86,4.22c3.39,0.17,6.73,1.14,9.68,2.82C47.23,61.59,51.04,60.81,54.46,59.97 M28.98,131.14 c3.13,3.1,4.76,7.59,8.31,10.2c1.56,1.15,3.4,1.85,5.24,2.48c4.58,1.57,9.37,2.8,13.45,5.43c-3.02-3.58-6.24-6.98-9.65-10.19 c-3.77-3.55-7.81-6.87-12.36-9.34c-4.55-2.47-9.67-4.05-14.85-3.93c1.08,0.34,2.15,0.73,3.2,1.17 C24.74,127.97,27.1,129.28,28.98,131.14 M113.51,171.76c2.4-1.75,4.85-3.44,7.33-5.07c-7.16,0.47-13.73,4.46-18.68,9.65 c-4.95,5.19-8.49,11.54-11.86,17.87c-2.82,5.31-5.6,10.78-6.56,16.72c5.95-12.28,13.82-23.64,23.24-33.52 c0.83-0.87,1.68-1.73,2.57-2.54C110.81,173.75,112.15,172.75,113.51,171.76 M10.49,40.36c-0.54-0.87-1.88-0.48-2.73,0.08 c-4.08,2.69-6.8,7.35-7.15,12.22c0.95-0.88,2.29-1.33,3.58-1.19C3.59,50.8,3,50.12,2.41,49.44c3.65,2.42,7.87,3.98,12.22,4.49 C11.15,51.95,7.66,49.97,4.18,48c-0.02-0.67,1.05-0.5,1.59-0.09c3.47,2.62,7.39,4.62,11.55,5.89c0.13-0.28-0.2-0.54-0.48-0.67 c-4.71-2.17-9.9-4.29-12.59-8.73c5.52,4.67,11.88,8.36,18.68,10.84c1.24,0.45,2.6,0.87,3.86,0.47c-6.95-1.92-13.5-5.27-19.12-9.78 c-0.43-0.35-0.89-0.93-0.57-1.38c5.51,4.59,11.89,8.14,18.7,10.42c1.94,0.65,4.01,1.19,6,0.77C23.67,52.12,15.2,47.9,10.49,40.36 M33.19,56.85c-2.28-0.99-4.9,0.19-7.38,0.03c-2.59-0.17-4.88-1.78-7.43-2.23c-2.08-0.36-4.23,0.06-6.32-0.21 c-2.64-0.34-5.03-1.75-7.65-2.22c-0.76-0.13-1.59-0.17-2.23,0.25c-0.64,0.42-0.9,1.46-0.31,1.96c2.67,2.27,6.31,2.95,9.77,3.54 c4.09,0.7,8.19,1.4,12.28,2.11c1.28,0.22,2.77,0.38,3.73-0.49C29.18,58.18,31.13,57.22,33.19,56.85 M26.88,13.07 c-0.17,0.56-0.29,1.17-0.11,1.73c0.18,0.56,0.73,1.04,1.31,0.94c1.98-0.34,4.03,0.42,5.66,1.6c1.63,1.19,2.9,2.78,4.16,4.35 c1.49,1.86,2.98,3.73,4.47,5.59c-1.65-7.15-5.47-13.78-10.84-18.78c-0.37-0.34-0.94-0.69-1.33-0.38 C28.63,9.39,27.46,11.14,26.88,13.07 M28.98,124.14c-2.49,0.02-4.97,0.31-7.4,0.85c6.48,0.5,12.62,3.33,17.9,7.11 c5.28,3.79,9.81,8.52,14.22,13.29c-3.91-6.91-9.18-13.06-15.42-17.99c-1.28-1.01-2.61-1.98-4.14-2.55 C32.51,124.25,30.73,124.12,28.98,124.14 M61.72,58.76c0.76,0.37,1.47,0.89,2.31,1.06c0.59,0.12,1.2,0.05,1.8,0.07 c2.65,0.08,5.09,1.86,7.73,1.65c2.71-0.22,5.49,1.16,6.95,3.45c0.45-2.2-1.34-4.21-3.2-5.47c-2.71-1.82-5.89-2.93-9.15-3.18 c-1.97-0.15-3.58-2.11-5.54-1.85c-1.91,0.26-2.85,2.43-4.37,3.61C59.45,58.02,60.66,58.25,61.72,58.76 M91.62,111.82 c-5.59-1.33-11.59,1.18-15.61,5.28c-4.02,4.1-6.34,9.58-7.93,15.1c-1.21,4.2-2.07,8.66-1.05,12.91c0.84-5.51,2.25-10.93,4.2-16.15 c0.56-1.51,1.18-3.01,1.93-4.43C76.79,117.66,83.91,112.76,91.62,111.82 M52.59,41.24c-2.71-1.83-6.76-1.27-8.86,1.23 c-0.32,0.39-0.61,0.81-0.87,1.23c-1.13,1.79-2.12,3.8-2.04,5.92c0.01,0.29,0.25,0.7,0.49,0.53c1.28-0.88,2.97-0.63,4.52-0.63 c0.99,0,1.99-0.12,2.95-0.36c0.22-0.05,0.5-0.23,0.4-0.43c-0.4-0.86-0.46-1.86-0.16-2.76C49.64,44.09,51.62,42.98,52.59,41.24 M57.83,28.64c1.24-7.12-0.02-14.46-2.1-21.38c-0.32-1.05-1.33-1.75-2.35-2.15s-2.13-0.63-3.08-1.18 c4.99,8.37,6.22,18.47,5.99,28.21C57.26,31.28,57.61,29.93,57.83,28.64 M115.79,166.58c0.69,0.33,1.49-0.06,2.21-0.32 c0.84-0.29,1.72-0.39,2.61-0.46c4.38-0.34,8.78,0.09,13.16,0.51c1.83,0.18,3.66,0.36,5.49,0.54c-1.76-1.82-3.77-3.43-6.08-4.45 s-4.94-1.43-7.4-0.84c-1.7,0.41-3.26,1.27-4.79,2.13C119.25,164.65,117.52,165.61,115.79,166.58 M27.99,60.87 c3.18-0.85,6.54,0.04,9.71,0.92c1.05,0.29,2.1,0.58,3.15,0.88c0.84,0.23,1.68,0.47,2.53,0.62c3.61,0.66,7.46-0.13,10.52-2.16 c-0.23-0.42-0.86-0.24-1.3-0.06c-2.7,1.14-5.81,0.54-8.56-0.45c-2.76-0.98-5.42-2.35-8.32-2.73C32.83,57.5,29.5,58.36,27.99,60.87 M62.09,21.56c0.34-0.94,0.69-1.89,0.73-2.89C62.99,14.1,60.63,9.52,56.81,7c-0.27-0.18-0.58-0.35-0.9-0.32 c0.81,1.2,1.22,2.62,1.56,4.03c1.16,4.86,1.66,9.89,1.48,14.88C60.65,25.11,61.48,23.23,62.09,21.56 M68.84,13.38 c-0.05,0.09-0.09,0.19-0.08,0.29c0.01,0.11,0.09,0.19,0.16,0.27c1.31,1.38,2.88,2.52,4.6,3.34c0.15,0.07,0.32,0.14,0.48,0.1 c0.26-0.07,0.35-0.4,0.37-0.68c0.07-0.82,0.02-1.67-0.31-2.43c-0.17-0.4-0.41-0.76-0.67-1.1c-2.63-3.46-7.48-5.06-11.65-3.82 c-0.32,0.1-0.72,0.41-0.52,0.68c1.51,2.14,2.35,4.73,2.39,7.35c0,0.26,0.12,0.63,0.38,0.58c0.07-0.02,0.13-0.06,0.18-0.11 c0.56-0.54,0.78-1.4,0.55-2.14c-0.53-1.68-0.9-3.41-1.1-5.16c1.5,1.15,0.68,3.79,1.98,5.16c0.01-1.36,0.02-2.71,0.04-4.07 c0-0.22,0.01-0.46,0.17-0.61c0.15-0.15,0.49-0.09,0.49,0.13c0,1.01,0,2.02,0.01,3.03c0,0.17,0.02,0.37,0.17,0.44 c0.08,0.04,0.18,0.02,0.26,0c0.88-0.24,1.44-1.09,1.75-1.95c0.1-0.28,0.18-0.57,0.39-0.78c0.2-0.21,0.57-0.31,0.79-0.12 C69.39,12.3,69.12,12.84,68.84,13.38 M81.38,49.95c0.52,0.12,1.07,0.33,1.57,0.14c-1.57-2.72-4.88-4.32-7.98-3.87 c-2.35,0.34-4.4,1.71-6.41,2.98c-0.45,0.29-0.92,0.57-1.45,0.69c-0.34,0.07-0.72,0.09-0.96,0.33c-0.24,0.25-0.08,0.81,0.25,0.72 c1.51-0.41,3.2-0.12,4.5,0.75c0.23,0.15,0.45,0.33,0.71,0.41c0.49,0.16,1.02-0.02,1.51-0.2c1.02-0.37,2.04-0.75,3.05-1.12 C77.85,50.18,79.64,49.55,81.38,49.95 M81.21,63.32c0.35-0.52,0.52-1.15,0.54-1.78c0.08-2.51-2.15-4.49-4.42-5.57 c-2.27-1.08-4.82-1.69-6.71-3.35c-1.1-0.97-2.65-1.43-4.1-1.21c-1.46,0.22-2.8,1.11-3.57,2.36c1.35-0.21,2.55,0.81,3.81,1.34 c1.67,0.71,3.56,0.56,5.32,0.99c1.36,0.34,2.6,1.01,3.83,1.68C78.25,59.06,80.83,60.7,81.21,63.32 M30.11,62.33 c-0.2,1.75-2.42,2.53-3.12,4.15c-0.22,0.51-0.28,1.08-0.29,1.64c-0.02,1.55,0.29,3.1,0.92,4.51c0.84-1.35,2.15-2.31,3.35-3.35 s2.37-2.26,2.71-3.81c0.27-1.22,0.12-2.75,1.16-3.44c-0.91-0.15-1.83-0.3-2.74-0.45c-0.39-0.06-0.8-0.13-1.19-0.03 C30.52,61.63,30.16,61.93,30.11,62.33 M9.94,64.5c-0.63-0.2-1.27-0.4-1.91-0.57c1.05,1.14,1.32,3.13,2.8,3.57 c0.61,0.18,1.26,0.02,1.89,0.11c0.73,0.11,1.37,0.54,2.03,0.89c1.57,0.83,3.33,1.21,5.07,1.57c0.61,0.13,1.23,0.26,1.84,0.16 c1.35-0.21,2.38-1.66,2.13-3c-0.05-0.29,0.22-0.53,0.43-0.75s0.3-0.65,0.02-0.76c-0.12-0.05-0.25-0.01-0.36,0.03 c-1.1,0.35-2.19,0.7-3.29,1.05c-0.91,0.29-1.85,0.59-2.81,0.53c-1.23-0.08-2.35-0.72-3.47-1.24C12.89,65.43,11.41,64.96,9.94,64.5 M72.44,42.14c-0.21,0.04-0.46,0.17-0.41,0.38c0.03,0.12,0.16,0.18,0.27,0.25c0.42,0.29,0.46,0.93,0.22,1.38 c-0.24,0.45-0.67,0.76-1.09,1.04c-1.65,1.09-3.43,2.14-4.47,3.82c0.31,0.3,0.8,0,1.12-0.28c1.97-1.72,4.4-3,7.01-3.28 c2.61-0.28,5.38,0.51,7.21,2.38c0.82,0.84,1.44,1.87,2.26,2.72c0.8-1.58,0.36-3.69-1.01-4.82c-1.4-1.15-3.37-1.21-5.08-1.79 C76.45,43.24,74.53,41.77,72.44,42.14 M60.67,54.53c1.28-1.13,2.52-2.31,3.72-3.54c0.48-0.5,0.96-1.01,1.33-1.6 c1.49-2.41,3.91-4.07,6.26-5.65c0.17-0.12,0.08-0.42-0.11-0.51c-0.19-0.09-0.42-0.03-0.62,0.03c-0.59,0.17-1.18,0.34-1.77,0.51 c-1.26,0.37-2.54,0.74-3.67,1.42c-1.43,0.87-2.53,2.2-3.36,3.66C61.47,50.59,60.86,52.54,60.67,54.53 M27.61,60.87 c-0.33,0.01-0.64,0.22-0.79,0.51c0.14,0.24,0.48,0.32,0.71,0.17c0.23-0.15,0.3-0.49,0.15-0.72L27.61,60.87z"/></g></svg>