<svg xmlns="http://www.w3.org/2000/svg" xmlns:xlink="http://www.w3.org/1999/xlink" height="281.0" preserveAspectRatio="xMidYMid meet" version="1.0" viewBox="39.3 15.5 123.2 281.0" width="123.2" zoomAndPan="magnify"><g id="change1_1"><path d="M79.05,76.78c-.07-.21-.14-.41-.2-.62C78.91,76.37,79,76.57,79.05,76.78Z" fill="#2c3d36"/></g><g id="change1_2"><path d="M79.23,77.36c-.07-.2-.13-.41-.2-.61C79.1,77,79.16,77.16,79.23,77.36Z" fill="#2c3d36"/></g><g id="change1_3"><path d="M79.41,78c-.06-.21-.13-.41-.2-.62C79.28,77.54,79.35,77.74,79.41,78Z" fill="#2c3d36"/></g><g id="change1_4"><path d="M79.59,78.53c-.06-.21-.13-.41-.19-.62C79.46,78.12,79.53,78.32,79.59,78.53Z" fill="#2c3d36"/></g><g id="change1_5"><path d="M79.78,79.11l-.2-.61Z" fill="#2c3d36"/></g><g id="change1_6"><path d="M116.76,114.11a8.05,8.05,0,0,0-1.65,3.32h0a8.84,8.84,0,0,0,1.64-3.34Z" fill="#2c3d36"/></g><g id="change1_7"><path d="M116.75,114.09a3.59,3.59,0,0,0,1.15-2l0,0a3.6,3.6,0,0,0-1.16,2Z" fill="#2c3d36"/></g><g id="change1_8"><path d="M119.71,108.44c0-.14,0-.07,0,0Z" fill="#2c3d36"/></g><g id="change1_9"><path d="M119.1,109.74l.31-.32-.14-.09-.16.43Z" fill="#2c3d36"/></g><g id="change1_10"><path d="M118.7,110.51l.4-.77v0l-.4.77Z" fill="#2c3d36"/></g><g id="change1_11"><path d="M118.71,110.53l-.39.77,0,0c.37-.13.34-.47.4-.77Z" fill="#2c3d36"/></g><g id="change1_12"><path d="M118.32,111.3l-.4.78,0,0c.14-.26.27-.52.4-.78Z" fill="#2c3d36"/></g><g id="change1_13"><path d="M79,58.23a12.15,12.15,0,0,0-1.48-4.69C78,55.1,78.49,56.67,79,58.23Z" fill="#2c3d36"/></g><g id="change1_14"><path d="M83.53,76.4a10.5,10.5,0,0,0-1-4.34A14.78,14.78,0,0,0,83.53,76.4Z" fill="#2c3d36"/></g><g id="change1_15"><path d="M75.28,46.84a5.58,5.58,0,0,0-1-2.67A5.13,5.13,0,0,0,75.28,46.84Z" fill="#2c3d36"/></g><g id="change1_16"><path d="M76.79,51.24a5.3,5.3,0,0,0-1-2.68A5.39,5.39,0,0,0,76.79,51.24Z" fill="#2c3d36"/></g><g id="change1_17"><path d="M74.14,43.62a3.13,3.13,0,0,0-.79-2.1A3.43,3.43,0,0,0,74.14,43.62Z" fill="#2c3d36"/></g><g id="change1_18"><path d="M79.85,61.42a3.4,3.4,0,0,0-.51-2.06A3.47,3.47,0,0,0,79.85,61.42Z" fill="#2c3d36"/></g><g id="change1_19"><path d="M82.57,72.09a3.15,3.15,0,0,0-.52-2A3.24,3.24,0,0,0,82.57,72.09Z" fill="#2c3d36"/></g><g id="change1_20"><path d="M73.18,41a2,2,0,0,0-.61-1.51A1.81,1.81,0,0,0,73.18,41Z" fill="#2c3d36"/></g><g id="change1_21"><path d="M72.59,39.49A1.85,1.85,0,0,0,72,38,1.9,1.9,0,0,0,72.59,39.49Z" fill="#2c3d36"/></g><g id="change1_22"><path d="M72,38a1.86,1.86,0,0,0-.61-1.51A1.88,1.88,0,0,0,72,38Z" fill="#2c3d36"/></g><g id="change1_23"><path d="M70.22,33.58a2,2,0,0,0-.61-1.51A2,2,0,0,0,70.22,33.58Z" fill="#2c3d36"/></g><g id="change1_24"><path d="M67.72,31.77a2.24,2.24,0,0,0,.61,1.51A2,2,0,0,0,67.72,31.77Z" fill="#2c3d36"/></g><g id="change1_25"><path d="M66.76,29.12a2.42,2.42,0,0,0,.61,1.51A2.15,2.15,0,0,0,66.76,29.12Z" fill="#2c3d36"/></g><g id="change1_26"><path d="M71.4,36.54A1.91,1.91,0,0,0,70.8,35,1.91,1.91,0,0,0,71.4,36.54Z" fill="#2c3d36"/></g><g id="change1_27"><path d="M70.81,35.06a1.88,1.88,0,0,0-.61-1.51A2,2,0,0,0,70.81,35.06Z" fill="#2c3d36"/></g><g id="change1_28"><path d="M67.81,27.93a1.55,1.55,0,0,0-.66-1.24A1.53,1.53,0,0,0,67.81,27.93Z" fill="#2c3d36"/></g><g id="change1_29"><path d="M81.88,69.49A1.88,1.88,0,0,0,81.54,68,2,2,0,0,0,81.88,69.49Z" fill="#2c3d36"/></g><g id="change1_30"><path d="M66.76,25.83a1.6,1.6,0,0,0-.65-1.24A1.47,1.47,0,0,0,66.76,25.83Z" fill="#2c3d36"/></g><g id="change1_31"><path d="M80.86,65.45,80.53,64A2,2,0,0,0,80.86,65.45Z" fill="#2c3d36"/></g><g id="change1_32"><path d="M65.72,23.72a1.51,1.51,0,0,0-.66-1.24A1.46,1.46,0,0,0,65.72,23.72Z" fill="#2c3d36"/></g><g id="change1_33"><path d="M81.37,67.47A2.07,2.07,0,0,0,81,66,1.92,1.92,0,0,0,81.37,67.47Z" fill="#2c3d36"/></g><g id="change1_34"><path d="M80.36,63.43,80,62A2,2,0,0,0,80.36,63.43Z" fill="#2c3d36"/></g><g id="change1_35"><path d="M69.63,32.1a.9.9,0,0,0-.43-.93Z" fill="#2c3d36"/></g><g id="change1_36"><path d="M69,30.62l-.43-.93A.88.88,0,0,0,69,30.62Z" fill="#2c3d36"/></g><g id="change1_37"><path d="M68.63,29.73a1,1,0,0,0-.43-.93A1,1,0,0,0,68.63,29.73Z" fill="#2c3d36"/></g><g id="change1_38"><path d="M66.17,27.64l.43.93Z" fill="#2c3d36"/></g><g id="change1_39"><path d="M68.22,28.83a1,1,0,0,0-.43-.93A.94.94,0,0,0,68.22,28.83Z" fill="#2c3d36"/></g><g id="change1_40"><path d="M67.17,26.73a.94.94,0,0,0-.42-.93A.94.94,0,0,0,67.17,26.73Z" fill="#2c3d36"/></g><g id="change1_41"><path d="M66.13,24.62l-.43-.93A.89.89,0,0,0,66.13,24.62Z" fill="#2c3d36"/></g><g id="change1_42"><path d="M64.67,21.62a.8.8,0,0,0-.43-.93Z" fill="#2c3d36"/></g><g id="change1_43"><path d="M64.21,22.62l.43.93Z" fill="#2c3d36"/></g><g id="change1_44"><path d="M65.08,22.52a.83.83,0,0,0-.43-.93C64.8,21.9,64.94,22.21,65.08,22.52Z" fill="#2c3d36"/></g><g id="change1_45"><path d="M82.06,70.07c-.07-.2-.13-.41-.2-.61C81.93,69.66,82,69.87,82.06,70.07Z" fill="#2c3d36"/></g><g id="change1_46"><path d="M81.56,68.05c-.07-.2-.14-.41-.2-.61C81.42,67.64,81.49,67.85,81.56,68.05Z" fill="#2c3d36"/></g><g id="change1_47"><path d="M81.05,66c-.07-.2-.13-.41-.2-.61C80.92,65.62,81,65.83,81.05,66Z" fill="#2c3d36"/></g><g id="change1_48"><path d="M80.54,64l-.19-.62Z" fill="#2c3d36"/></g><g id="change1_49"><path d="M80,62l-.2-.62Z" fill="#2c3d36"/></g><g id="change1_50"><path d="M79.35,59.4l-.2-.62Z" fill="#2c3d36"/></g><g id="change1_51"><path d="M79.17,58.81,79,58.2Z" fill="#2c3d36"/></g><g id="change1_52"><path d="M77.52,53.57l-.2-.62Z" fill="#2c3d36"/></g><g id="change1_53"><path d="M77.34,53l-.2-.62Z" fill="#2c3d36"/></g><g id="change1_54"><path d="M77.15,52.4,77,51.79Z" fill="#2c3d36"/></g><g id="change1_55"><path d="M77,51.82c-.06-.2-.13-.41-.2-.62C76.84,51.41,76.91,51.62,77,51.82Z" fill="#2c3d36"/></g><g id="change1_56"><path d="M75.83,48.59c-.07-.2-.13-.41-.2-.61C75.7,48.18,75.76,48.39,75.83,48.59Z" fill="#2c3d36"/></g><g id="change1_57"><path d="M75.65,48c-.07-.2-.14-.41-.2-.62C75.51,47.6,75.58,47.81,75.65,48Z" fill="#2c3d36"/></g><g id="change1_58"><path d="M75.46,47.43l-.19-.62Z" fill="#2c3d36"/></g><g id="change1_59"><path d="M85.22,98.49l-.09.57C85.42,98.92,85.35,98.71,85.22,98.49Z" fill="#2c3d36"/></g><g id="change1_60"><path d="M74.32,44.2l-.19-.61Z" fill="#2c3d36"/></g><g id="change1_61"><path d="M73.36,41.56l-.19-.62Z" fill="#2c3d36"/></g><g id="change1_62"><path d="M68.87,35c.06.21.13.41.19.62C69,35.4,68.93,35.2,68.87,35Z" fill="#2c3d36"/></g><g id="change1_63"><path d="M68.68,34.41c.07.2.13.41.2.62C68.81,34.82,68.75,34.61,68.68,34.41Z" fill="#2c3d36"/></g><g id="change1_64"><path d="M68.5,33.83c.07.2.13.41.2.61C68.63,34.24,68.57,34,68.5,33.83Z" fill="#2c3d36"/></g><g id="change1_65"><path d="M68.32,33.24l.19.62Z" fill="#2c3d36"/></g><g id="change1_66"><path d="M63.26,20l.19.61Z" fill="#2c3d36"/></g><g id="change1_67"><path d="M63.44,20.56l.19.62Z" fill="#2c3d36"/></g><g id="change1_68"><path d="M63.85,21.46l.19.61Z" fill="#2c3d36"/></g><g id="change1_69"><path d="M64,22l.2.62Z" fill="#2c3d36"/></g><g id="change1_70"><path d="M64.62,23.52l.2.61Z" fill="#2c3d36"/></g><g id="change1_71"><path d="M64.81,24.1l.19.62Z" fill="#2c3d36"/></g><g id="change1_72"><path d="M65.22,25l.19.61Z" fill="#2c3d36"/></g><g id="change1_73"><path d="M65.4,25.58l.19.62Z" fill="#2c3d36"/></g><g id="change1_74"><path d="M65.81,26.48l.19.61Z" fill="#2c3d36"/></g><g id="change1_75"><path d="M66,27.06c.07.2.13.41.2.61C66.12,27.47,66.06,27.26,66,27.06Z" fill="#2c3d36"/></g><g id="change1_76"><path d="M67.54,31.18l.2.62Z" fill="#2c3d36"/></g><g id="change1_77"><path d="M66.58,28.54c.07.2.13.41.2.61C66.71,29,66.65,28.74,66.58,28.54Z" fill="#2c3d36"/></g><g id="change1_78"><path d="M67.36,30.6c.06.2.13.41.19.62C67.49,31,67.42,30.8,67.36,30.6Z" fill="#2c3d36"/></g><g id="change1_79"><path d="M69.22,31.21c-.07-.21-.13-.42-.2-.62C69.09,30.79,69.15,31,69.22,31.21Z" fill="#2c3d36"/></g><g id="change1_80"><path d="M65.58,26.17l.24.34Z" fill="#2c3d36"/></g><g id="change1_81"><path d="M65,24.69l.24.34Z" fill="#2c3d36"/></g><g id="change1_82"><path d="M63.62,21.15l.24.34Z" fill="#2c3d36"/></g><g id="change1_83"><path d="M82.46,60.73a6.26,6.26,0,0,0-.13-1.07q-1.23-4-2.5-7.94a5.24,5.24,0,0,0-.5-.93,6.79,6.79,0,0,0,.14.92q1.25,4,2.52,8.07A7.61,7.61,0,0,0,82.46,60.73Z" fill="#2c3d36"/></g><g id="change1_84"><path d="M78.39,48.17a3,3,0,0,0-.79-2.09A3.09,3.09,0,0,0,78.39,48.17Z" fill="#2c3d36"/></g><g id="change1_85"><path d="M79.16,50.23a3.06,3.06,0,0,0-.79-2.09A3.07,3.07,0,0,0,79.16,50.23Z" fill="#2c3d36"/></g><g id="change1_86"><path d="M76.93,43.49c-.08-.11-.16-.21-.23-.32l-.29,0a1.69,1.69,0,0,0,.61,1.5l.09-.55Z" fill="#2c3d36"/></g><g id="change1_87"><path d="M77.52,45,77,44.6a1.71,1.71,0,0,0,.61,1.51Z" fill="#2c3d36"/></g><g id="change1_88"><path d="M79.34,50.82c-.06-.21-.13-.41-.19-.62C79.21,50.41,79.28,50.61,79.34,50.82Z" fill="#2c3d36"/></g><g id="change1_89"><path d="M81.15,91.23l-.2-.62Z" fill="#2c3d36"/></g><g id="change1_90"><path d="M81.33,91.81l-.19-.61Z" fill="#2c3d36"/></g><g id="change1_91"><path d="M81.52,92.4c-.07-.21-.14-.42-.2-.62C81.38,92,81.45,92.19,81.52,92.4Z" fill="#2c3d36"/></g><g id="change1_92"><path d="M81.7,93l-.2-.62Z" fill="#2c3d36"/></g><g id="change1_93"><path d="M109,141.64a15.12,15.12,0,0,0,2-3.86A9,9,0,0,0,109,141.64Z" fill="#2c3d36"/></g><g id="change1_94"><path d="M108.07,144c.45-.34.43-.86.5-1.34C108.13,143,108.15,143.5,108.07,144Z" fill="#2c3d36"/></g><g id="change1_95"><path d="M108.56,142.68c.42-.25.4-.68.46-1.07C108.61,141.85,108.62,142.28,108.56,142.68Z" fill="#2c3d36"/></g><g id="change1_96"><path d="M51.23,167.21c-.55-.93-1.56-1.33-2.36-2a12.35,12.35,0,0,0-1.63-.91A17.15,17.15,0,0,0,51.23,167.21Z" fill="#2c3d36"/></g><g id="change1_97"><path d="M54.66,170a11.49,11.49,0,0,0-2.75-2.45,3.22,3.22,0,0,0-.7-.33c.57.93,1.57,1.39,2.34,2.1A6.22,6.22,0,0,0,54.66,170Z" fill="#2c3d36"/></g><g id="change1_98"><path d="M43.5,161.8l0,.29,1.16.61,1.17.59-1.46-1.36Z" fill="#2c3d36"/></g><g id="change1_99"><path d="M47.26,164.36l-.52-.38Z" fill="#2c3d36"/></g><g id="change1_100"><path d="M46.77,164c-.18-.12-.35-.25-.52-.38Z" fill="#2c3d36"/></g><g id="change1_101"><path d="M46.27,163.64l-.52-.37Z" fill="#2c3d36"/></g><g id="change1_102"><path d="M88.62,194.53l-.75-.7Z" fill="#2c3d36"/></g><g id="change1_103"><path d="M89.34,195.2l-.74-.7Z" fill="#2c3d36"/></g><g id="change1_104"><path d="M90.07,195.87l-.75-.7Z" fill="#2c3d36"/></g><g id="change1_105"><path d="M87.9,193.86l-.75-.7Z" fill="#2c3d36"/></g><g id="change1_106"><path d="M87.18,193.19l-.75-.7Z" fill="#2c3d36"/></g><g id="change1_107"><path d="M86.45,192.52l-.74-.7Z" fill="#2c3d36"/></g><g id="change1_108"><path d="M85.73,191.85l-.75-.7Z" fill="#2c3d36"/></g><g id="change1_109"><path d="M83.79,190.15l-.75-.69Z" fill="#2c3d36"/></g><g id="change1_110"><path d="M92.73,198.23l-.52-.38Z" fill="#2c3d36"/></g><g id="change1_111"><path d="M85,191.18l-.52-.38Z" fill="#2c3d36"/></g><g id="change1_112"><path d="M84.29,190.51l-.53-.38Z" fill="#2c3d36"/></g><g id="change1_113"><path d="M83.07,189.48c-.18-.12-.35-.25-.52-.38C82.72,189.23,82.89,189.36,83.07,189.48Z" fill="#2c3d36"/></g><g id="change1_114"><path d="M81.85,188.46l-.52-.38Z" fill="#2c3d36"/></g><g id="change1_115"><path d="M81.35,188.1l-.52-.38Z" fill="#2c3d36"/></g><g id="change1_116"><path d="M78.65,186l-.53-.37Z" fill="#2c3d36"/></g><g id="change1_117"><path d="M78.15,185.65l-.52-.38Z" fill="#2c3d36"/></g><g id="change1_118"><path d="M84.51,190.82l-.25-.34Z" fill="#2c3d36"/></g><g id="change1_119"><path d="M62.17,117.94A237.26,237.26,0,0,0,75,142l.91,1.46.1.17c.48.77,1,1.54,1.45,2.3l.08.13c.53.84,1.06,1.67,1.6,2.5.16.26-.24.48-.41.23A174.61,174.61,0,0,1,65,125.27q-1.7-3.49-3.25-7.06C61.56,117.9,62,117.62,62.17,117.94Z" fill="#2c3d36"/></g><g id="change1_120"><path d="M76.41,144.67c.08.12.16.23.25.34C76.57,144.9,76.49,144.79,76.41,144.67Z" fill="#2c3d36"/></g><g id="change1_121"><path d="M78,147.13l.25.34C78.12,147.36,78,147.25,78,147.13Z" fill="#2c3d36"/></g><g id="change1_122"><path d="M107.73,210.13c.21.44.36.91.54,1.36l-8.33-11.14a129.64,129.64,0,0,0-13.41-15.63A92.32,92.32,0,0,0,56.79,165c-5.31-2.16-10.6-4.37-15.9-6.55-.42-.17-.81-.45-1.29-.22-.32.4,0,.68.19,1,1.45,1.87,2.84,3.79,4.36,5.6,3.38,4,6.75,8,10.26,11.89A155.74,155.74,0,0,0,70.56,192a50.7,50.7,0,0,0,7.51,5.19c2.43,1.36,4.88,2.65,7.33,3.95,3.94,2.09,8,4,11.79,6.31a90.39,90.39,0,0,1,11.5,7.84c.62.52,1.22,1.09,1.82,1.65a12.86,12.86,0,0,1,2.56,3.34c4.36,7.94,8.89,15.79,13.74,23.45,3.39,5.34,6.86,10.63,10.54,15.79,4.07,5.71,8,11.49,12,17.26,2,2.92,4,5.83,5.94,8.83a30.23,30.23,0,0,1,3.72,8.77c.12.47.28.94.41,1.34a2.52,2.52,0,0,0,1.59.15l.94.7c.14-.13.31-.21.32-.31a7.59,7.59,0,0,0,.06-1.07,8.16,8.16,0,0,1,0-1.21,2.87,2.87,0,0,0-.59-2.18c-4.25-5.82-7.87-12-11.57-18.21s-7.55-12-11.8-17.73c-1.33-1.79-2.53-3.67-3.82-5.49-1.1-1.56-2.23-3.11-3.35-4.66-.37-.51-.74-1-1.14-1.53a5.62,5.62,0,0,1-1.24-3.53,49.9,49.9,0,0,1,.4-7.63,81.08,81.08,0,0,1,4.26-16.91c1.31-3.59,2.38-7.26,3.5-10.92s2.28-7.58,3.35-11.39q.76-2.7,1.31-5.44c.57-2.86,1-5.74,1.55-8.61a123.91,123.91,0,0,0,1.69-19.43c.06-3.27.27-6.54.41-9.82a7.93,7.93,0,0,0,0-1.09,1,1,0,0,0-.91-1c-.18.12-.45.26-.7.45a1.57,1.57,0,0,0-.34.42c-2.73,3.69-5.52,7.35-8.18,11.1a60.8,60.8,0,0,0-6.69,12.94,64.8,64.8,0,0,0-4,14.59c-.72,5-1.49,10.08-2.12,15.14a50.92,50.92,0,0,0-.31,10c.34,5,.4,10,1.22,15,.26,1.57.56,3.14.81,4.71.09.52.11,1.05.15,1.58-.85-1.38-1.77-2.73-2.55-4.15-1.43-2.59-3.08-5.05-4.67-7.55a183.39,183.39,0,0,1-9.73-17.85,72.62,72.62,0,0,1-3.76-9.08,52.81,52.81,0,0,1-2.48-16.26,51.34,51.34,0,0,1,1.49-11.76A66.72,66.72,0,0,1,108,152.76c3.42-7,6.81-14,9.76-21.21a78.81,78.81,0,0,0,5.81-21.68c.22-2.22.35-4.45.49-6.67,0-.57.09-1.22-.62-1.45-.54,0-.76.36-1,.7L112,118.11a91.82,91.82,0,0,0-7.65,14.77,102.16,102.16,0,0,0-4,10.43,68,68,0,0,0-2.78,13.9c-.17,1.76-.39,3.53-.5,5.3A84,84,0,0,0,97.15,177c0,.26,0,.54.07,1.11-.25-.48-.38-.72-.49-1-.57-1.29-1.13-2.58-1.68-3.88a4.22,4.22,0,0,1-.46-1.42,6.36,6.36,0,0,0-1.07-3.33A9.5,9.5,0,0,1,92.3,165c-.69-3.71-1.39-7.42-2.18-11.12A80,80,0,0,1,88.31,139a67.13,67.13,0,0,0-.63-6.92A144.19,144.19,0,0,1,86.76,117c0-.77,0-1.55-.06-2.32A22.25,22.25,0,0,1,88,106a28.94,28.94,0,0,1,1.83-4.11c1-2,2-3.9,3.11-5.76,1.41-2.34,2.87-4.65,4.46-6.86a75.46,75.46,0,0,0,9-16.49,48.37,48.37,0,0,0,2.23-8.44c.81-4.11,1.56-8.23,2.31-12.35.24-1.34.41-2.7.58-4a14.84,14.84,0,0,0,.07-1.51l-.72-.36c-.18.11-.34.15-.41.25a67.59,67.59,0,0,1-7.35,8.42A53,53,0,0,0,94.18,67a27.51,27.51,0,0,0-1.78,4.43c-.73,2.15-1.39,4.33-2,6.52a74.62,74.62,0,0,0-2,10.17c-.16,1.2-.38,2.4-.52,3.31-.19-5.16.23-10.62-.17-16.07A61,61,0,0,0,85.59,63.3a150.65,150.65,0,0,0-7.4-19.95A181.92,181.92,0,0,0,63.43,16.59a3.51,3.51,0,0,0-.57-.76,2.7,2.7,0,0,0-.78-.3,2.94,2.94,0,0,0-.19.85,54.5,54.5,0,0,1-.22,8.18c-.18,2.4-.46,4.8-.67,7.2-.13,1.54-.3,3.08-.32,4.63a49.58,49.58,0,0,0,.72,9.1,89.73,89.73,0,0,0,2.19,9.58,106.72,106.72,0,0,0,4.68,13.39c3,6.9,6.32,13.63,9.73,20.32a95.54,95.54,0,0,1,5.9,14.09,23.47,23.47,0,0,1,1.1,9.27,132.86,132.86,0,0,0,1.08,31.44c.61,4,1.28,7.91,1.91,11.86a6.77,6.77,0,0,1,.07,1,10.48,10.48,0,0,1-.54-1.3c-1.11-4.13-2.23-8.26-3.29-12.41a154.64,154.64,0,0,0-8.1-24.18A121.85,121.85,0,0,0,64.55,98.32a126.65,126.65,0,0,0-17.71-20c-1-.93-2.09-1.76-3.15-2.63-.32-.26-.64-.51-1.17-.2a2,2,0,0,0,.12.73c3.88,7.21,6.55,14.89,9,22.68,2.7,8.64,5.61,17.22,8.45,25.83a42.38,42.38,0,0,0,3.26,7.2c3.24,5.88,6.78,11.55,11.49,16.39,1.81,1.85,3.74,3.6,5.62,5.39,1.15,1.1,2.3,2.2,3.48,3.27a34.93,34.93,0,0,1,5,6.13,5.85,5.85,0,0,1,.7,1.62c.68,2.26,1.32,4.54,2,6.82a161.9,161.9,0,0,0,8.23,22.7,22.71,22.71,0,0,0,1.29,2.56,75.08,75.08,0,0,1,3.39,6.7C105.53,205.73,106.65,207.92,107.73,210.13ZM82.38,94.78c-.53-2.08-1.1-4.14-1.73-6.19-.45-1.51-1-3-1.48-4.48l0-.1c-.11-.38-.17-.78-.25-1.18l-.25-.18c-.1-.28-.2-.55-.31-.83a1.57,1.57,0,0,0-.1-.28c-.91-2.4-1.89-4.78-2.91-7.15Q72.19,67,69,59.7l0-.07a104.09,104.09,0,0,1-3.64-12.06c-.65-2.69-1.16-5.41-1.86-8.09a43.44,43.44,0,0,1-1-12Q65.19,42.4,69.3,57a.23.23,0,0,0,.33.15q1.2,3.75,2.56,7.44c2,5.41,4.1,10.79,6.13,16.18.25.68.39,1.39.58,2.08.19.41.42.8.57,1.22.65,1.89,1.33,3.77,1.91,5.68.53,1.74,1,3.5,1.43,5.26a4.39,4.39,0,0,1,.06.89C82.7,95.51,82.53,95.14,82.38,94.78ZM61.83,29.69c.06.7.09,1.4.11,2.11a33.91,33.91,0,0,0,1,7.82c.56,2.21,1.09,4.42,1.56,6.64a100.18,100.18,0,0,0,4,13.49.28.28,0,0,0,0,.2c.26.6.51,1.21.77,1.82,0,.09.08.18.11.27.86,2.05,1.71,4.09,2.57,6.13,2,4.84,4.23,9.65,6,14.58,1.24,3.38,2.26,6.84,3.29,10.29L80,90.48c-4-7.54-7.68-15.19-11.09-23a80.25,80.25,0,0,1-3.14-7.85,99,99,0,0,1-4.06-19.19A54.49,54.49,0,0,1,61.83,29.69Zm1.28-9.51c.73,1.81,1.45,3.62,2.13,5.45,1.7,4.58,3.15,9.25,4.64,13.9s3,9.45,4.57,14.18a.2.2,0,0,0,.08.1c.12.44.25.88.38,1.32,1,3.63,1.74,7.33,2.65,11,1.27,5.07,2.65,10.1,3.62,15.23.1.5.12,1,.17,1.51-.18-.45-.35-.9-.52-1.36C78.55,73.84,76,66.26,73.43,58.7a.18.18,0,0,0-.15-.13c-.23-.66-.46-1.32-.67-2Q69.84,48,67.08,39.32c-.3-1-.53-1.92-.77-2.89-.68-2.69-1.35-5.37-2-8.06A35.36,35.36,0,0,1,63,21,1.41,1.41,0,0,1,63.11,20.18Zm.73,0q2.89,6.3,5.54,12.7a254.77,254.77,0,0,1,9.38,26.72c2,6.9,3.78,13.88,5.26,20.92.26,1.63.51,3.26.68,4.9.41,3.88.73,7.78,1.06,11.67-.13.86-.22,1.73-.28,2.61l-.19.22-.14-.83a.34.34,0,0,1,.09-.55c-.29-1.33-.6-2.66-.87-4-1.89-9.27-3.73-18.55-6.19-27.7-1.06-4-1.8-8-2.94-11.92-.12-.4-.24-.79-.35-1.19a.38.38,0,0,0,0-.1c-.17-.54-.34-1.08-.5-1.62-1.56-5.17-3.22-10.31-4.83-15.47a2.41,2.41,0,0,0-.15-.33c-.51-1.63-1-3.27-1.55-4.9-1.28-4-2.87-7.82-4.51-11.65l0-.14ZM74.15,38.39c1.66,4.14,3.29,8.28,4.8,12.48.88,2.46,1.72,5,2.52,7.45.35,1.12.72,2.24,1.08,3.36a.22.22,0,0,0,0,.08c.56,2.48,1.17,4.95,1.71,7.44a100.47,100.47,0,0,1,2.19,22.61c0,.63,0,1.26-.07,1.9-.22-2.27-.52-4.52-.86-6.77a.19.19,0,0,0,.13-.22q-.72-4.14-1.57-8.25c0-.11,0-.21,0-.32a5.66,5.66,0,0,0-.13-.56q-.68-3.25-1.44-6.5A257.69,257.69,0,0,0,74.36,44,241.62,241.62,0,0,0,64.57,20.5c.18.26.37.53.53.8A176.57,176.57,0,0,1,74.15,38.39ZM87,89.3a2.5,2.5,0,0,1-.13-.59,92.26,92.26,0,0,0-1.73-17.22c-.36-1.8-.68-3.62-1.06-5.42a.18.18,0,0,0,.07-.19c-.77-2.59-1.39-5.23-2.18-7.82S80.36,53,79.5,50.45q-.94-2.73-2-5.43a6.7,6.7,0,0,1,.54.88,136.25,136.25,0,0,1,7.06,19.63,47.23,47.23,0,0,1,1.75,10.62c.08,2,.25,4,.27,6C87.15,84.53,87,86.91,87,89.3ZM87,90.53h-.23L87,89.45Zm-1.64,10.9c0-.56-.07-1-.11-1.51l.17,0C85.43,100.44,85.41,100.94,85.4,101.43Zm-.06,3.08a21.78,21.78,0,0,1-.65-2.4A98.87,98.87,0,0,0,81,87.17c-2.14-6.25-4.48-12.42-6.82-18.58C72,62.8,70,56.94,68.22,51q-3.3-12.87-5.7-26l0-2c.34,1.17.53,2.35.82,3.52.95,3.88,1.94,7.75,2.91,11.62.11.44.24.87.38,1.31q3.51,10.67,7,21.33a3,3,0,0,0,.19.41c.18.53.36,1.07.53,1.6,0,.07,0,.14,0,.2.91,2.88,1.84,5.76,2.76,8.64C78.83,76.9,80.39,82.13,82,87.35a.23.23,0,0,0,.22.18,78.62,78.62,0,0,1,2.14,10.11c.26,1.88.62,3.75.91,5.63A10.32,10.32,0,0,1,85.34,104.51Zm17.87-48.73c-.21.36-.41.71-.65,1A92.72,92.72,0,0,0,94.39,71.3a42.89,42.89,0,0,0-2.8,7.82c-.55,2.2-1.1,4.41-1.64,6.61l-.16,0c.4-2.12.71-4.27,1.23-6.36.62-2.56,1.45-5.08,2.13-7.62a24.23,24.23,0,0,1,2-5.22,59.66,59.66,0,0,1,5.6-8.38,27.88,27.88,0,0,1,2.54-2.77A1.64,1.64,0,0,1,103.21,55.78Zm4.09-4.21a86.61,86.61,0,0,1-5.38,10.56c-1.31,2.07-2.5,4.22-3.67,6.37-.94,1.72-1.8,3.47-2.62,5.25-.74,1.6-1.41,3.24-2.06,4.89-.79,2-1.52,4-2.26,6a27.17,27.17,0,0,0-1,3c-.44,1.77-.77,3.56-1.14,5.34-.1.47-.16,1-.23,1.44a39.18,39.18,0,0,1,.67-4.86c.48-2.27,1-4.52,1.61-6.76.51-2,1-4.07,1.62-6.06a71.57,71.57,0,0,1,5.91-12.86c1.83-3.29,3.94-6.43,6-9.62a22.6,22.6,0,0,1,2.52-2.88C107.27,51.49,107.31,51.54,107.3,51.57ZM110,48.66c-.21.49-.41,1-.63,1.48q-2.82,6.21-5.64,12.41c-1.16,2.57-2.18,5.21-3.53,7.67C96.55,76.93,93.62,84,90.62,91c-.24.55-.46,1.11-.68,1.67a24.66,24.66,0,0,1,2-8.34,48.62,48.62,0,0,0,1.86-4.83,40.68,40.68,0,0,1,2.48-5.9c.66-1.29,1.28-2.61,2-3.89,1.1-2,2.15-4.11,3.37-6.07A74.54,74.54,0,0,0,107,53.53c.5-1.17,1.07-2.32,1.64-3.45A2.33,2.33,0,0,1,110,48.66Zm-1.39,7.06c-.28,1.43-.61,2.83-1,4.22-.75,2.58-1.5,5.15-2.31,7.7a39,39,0,0,1-1.75,4.86c-1.45,3.09-3,6.1-4.59,9.14-.35.68-.75,1.35-1.17,2a73.08,73.08,0,0,0-5.12,9.3c-.29.63-.69,1.21-1,1.81a10.51,10.51,0,0,1,.41-1.35C93.7,89.71,95.4,86,97.35,82.49c1-1.87,1.91-3.82,2.82-5.75s1.69-3.82,2.6-5.7a50.37,50.37,0,0,0,2.69-6.7Q106.84,60,108.65,55.72Zm-17.74,42c.21-.53.39-1.07.64-1.58.7-1.42,1.47-2.82,2.15-4.25a63.13,63.13,0,0,1,3.57-6.44c.94-1.5,1.85-3,2.68-4.59,1.21-2.29,2.38-4.61,3.5-6.94a29.91,29.91,0,0,0,1.65-4c1.15-3.77,2.19-7.57,3.37-11.67a76.55,76.55,0,0,1-2,10.22,56.62,56.62,0,0,1-7.89,17.3c-2.6,3.89-5.44,7.63-7.57,11.82A1.14,1.14,0,0,1,90.91,97.7Zm-.1-2.16c-.55,1.44-1,2.92-1.62,4.33a.27.27,0,0,0-.39.14L87.93,102a6.7,6.7,0,0,1,.11-1.28c.22-1,.55-2,.83-3a90.83,90.83,0,0,1,4-10.71,161.77,161.77,0,0,1,7.25-15.43,84.86,84.86,0,0,0,3.77-8c1.4-3.31,2.88-6.58,4.33-9.87a10.18,10.18,0,0,1,.5-.92,16.76,16.76,0,0,1-.8,3c-.82,2.27-1.73,4.51-2.49,6.79a65.57,65.57,0,0,1-3.28,8.38c-.91,1.83-1.7,3.72-2.57,5.57-1,2.06-1.93,4.12-3,6.15A132.52,132.52,0,0,0,90.81,95.54ZM86,117.66c-.2-.37-.14-.75.1-1.38C86.08,116.91,86.05,117.29,86,117.66Zm-.18,1.2.18-1.1A1.06,1.06,0,0,1,85.85,118.86Zm.21,3.55a1.23,1.23,0,0,1,.12-1.12C86.12,121.83,86.09,122.13,86.06,122.41Zm1.42,17.05a6.71,6.71,0,0,1-.26-1c-.4-3-.76-5.93-1.19-8.88a25.41,25.41,0,0,1,0-7.13,1.21,1.21,0,0,1,.12.35c.12,4.78.81,9.5,1.27,14.25A23.2,23.2,0,0,1,87.48,139.46ZM60.85,122.83c.2.29.41.58.58.88,1.3,2.29,2.58,4.6,3.9,6.88,2.88,5,6.35,9.62,9.69,14.32,1,1.37,2.08,2.64,3.13,4L81,152.3a5.69,5.69,0,0,1-.86-.59c-1.79-1.74-3.63-3.43-5.33-5.26a75.41,75.41,0,0,1-10.38-15.14,43,43,0,0,1-3.25-7.19C61,123.7,61,123.26,60.85,122.83ZM46.22,81.5a9.44,9.44,0,0,1,1,1.34C49,86,50.75,89,52.3,92.2c1.87,3.84,3.55,7.78,5.27,11.69,1.8,4.07,3.62,8.14,5.32,12.26,1.31,3.15,2.62,6.29,4.17,9.33q1.65,3.22,3.26,6.46A110.74,110.74,0,0,0,77,143.5c2.07,3.15,3.94,6.43,5.89,9.67a9,9,0,0,1,.52,1.18A2.54,2.54,0,0,1,83,154c-1.31-1.82-2.61-3.65-3.93-5.47-.25-.36-.55-.69-.83-1l-.37.23c-.64-.81-1.28-1.58-1.87-2.39q-3-4.2-6-8.44c-.29-.4-.56-.83-.84-1.24a129.64,129.64,0,0,1-10.29-18.78c-.44-1-.88-2-1.22-3q-3.42-10.31-6.79-20.62a8.56,8.56,0,0,1-.19-1,2.23,2.23,0,0,1,.37.5c1,2.32,2.08,4.64,3,7s1.82,4.65,2.75,7c.73,1.81,1.52,3.6,2.25,5.41a99,99,0,0,0,4.69,10.14,9,9,0,0,0,.71,1,12.78,12.78,0,0,0-.55-1.5c-3.4-6.56-5.82-13.54-8.72-20.31-.16-.38-.27-.78-.41-1.16a67.06,67.06,0,0,0-3-7.16c-1.63-3.45-3.63-6.72-5.07-10.27C46.46,82.32,46.35,81.91,46.22,81.5Zm15.9,20.72.54.93a8.33,8.33,0,0,1,.54.78C66.7,110.61,70,117.39,73,124.3s5.88,13.88,8.8,20.84c.18.41.29.85.44,1.28l.27.76-.37-.7c-.47-.67-1-1.32-1.39-2-3-4.73-5.45-9.75-8.12-14.66a21,21,0,0,1-1-2.11c-1.68-4.27-3.44-8.51-4.82-12.89-.4-1.25-1-2.45-1.44-3.68q-1.45-4-2.89-7.92Zm1.1,4.29c.68,1.68,1.33,3.38,2,5.07.58,1.52,1.17,3,1.73,4.58a10.58,10.58,0,0,1,.28,1.24,6.73,6.73,0,0,1-.57-1c-1-2.52-2.09-5-3.09-7.58A76.29,76.29,0,0,0,57,95.7c-1.12-1.76-2.16-3.58-3.22-5.38a9.28,9.28,0,0,1-.45-1c.12.15.25.3.37.46a112.94,112.94,0,0,1,7.89,12.88A34.13,34.13,0,0,1,63.22,106.51Zm9.71,25.85c1.84,3.86,3.69,7.71,5.52,11.58a10.15,10.15,0,0,1,.37,1.1,1.55,1.55,0,0,1-.27-.24c-1.79-2.79-3.78-5.49-5.33-8.41-3.8-7.16-7.66-14.29-10.51-21.9-.16-.43-.35-.84-.54-1.25-1.91-4.38-3.88-8.74-5.74-13.14a131.43,131.43,0,0,0-6.7-13.89A8.22,8.22,0,0,1,49.25,85a7.82,7.82,0,0,1,.91.91c.63.84,1.26,1.68,1.81,2.57,1.72,2.78,3.38,5.61,5.12,8.38a69,69,0,0,1,5.55,10.94c1,2.45,2,4.89,3,7.34C68,120.93,70.24,126.73,72.93,132.36ZM51.35,86.59c-.27-.37-.52-.75-.82-1.09A64.05,64.05,0,0,1,45,78.41l-.39-.6A5.75,5.75,0,0,1,46.28,79,31.52,31.52,0,0,1,51.35,86.59ZM84,144.14c-.17-.43-.35-.86-.5-1.3-1.19-3.48-2.29-7-3.58-10.44s-2.74-6.73-4.18-10.07c-1.06-2.46-2.16-4.91-3.33-7.32s-2.43-4.78-3.66-7.16a77.38,77.38,0,0,0-5.8-9.55c-1.18-1.66-2.37-3.33-3.54-5-.26-.38-.48-.8-.71-1.21a7.64,7.64,0,0,1,1,1c2.06,2.78,4.16,5.53,6.12,8.37a122.56,122.56,0,0,1,17.95,41.2C83.83,143.12,83.88,143.64,84,144.14ZM85.07,151a10.37,10.37,0,0,1-.65-1.11Q79.76,139,75.1,128c-.86-2-1.61-4.07-2.56-6-2.7-5.67-5.43-11.33-8.25-17a111.71,111.71,0,0,0-9.67-15.67c-1.25-1.73-2.57-3.42-3.82-5.16A10.23,10.23,0,0,1,50,82.7c1,1.25,1.93,2.51,2.92,3.75a10.33,10.33,0,0,0,.94.93c-.06-.18-.12-.36-.17-.54a13.07,13.07,0,0,1,1.28,1.3C57,91,59.09,93.9,61.21,96.75A86.62,86.62,0,0,1,69,109.27a153,153,0,0,1,7.44,16c.56,1.49,1.18,3,1.82,4.41a115.13,115.13,0,0,1,4.24,11.52c.09.28.13.58.19.86a9.36,9.36,0,0,1-.77-1.33c-2-4.77-3.82-9.61-5.88-14.36-1.39-3.21-2.63-6.48-4.23-9.59-.64-1.25-1.25-2.53-1.83-3.8a64.51,64.51,0,0,0-4.77-8.41,6.5,6.5,0,0,0-.71-.78c.23.48.42,1,.69,1.45,1.15,2.06,2.4,4.07,3.48,6.17,4,7.89,7.42,16.08,10.75,24.29.92,2.28,1.85,4.55,2.83,6.79a46.42,46.42,0,0,1,2.66,7.29C85,150.15,85,150.58,85.07,151Zm2.77,8.49a14.27,14.27,0,0,0-1-1.11,12.86,12.86,0,0,1-2.47-3.71c-1.1-2.24-2.26-4.45-3.42-6.65a6.65,6.65,0,0,0-.78-1.05h0a6.61,6.61,0,0,0-.32-1l-4.39-9.21a8.67,8.67,0,0,1-.37-1c.26.38.54.75.76,1.14,1.75,3.08,3.43,6.19,5.23,9.23a78.06,78.06,0,0,1,4,7.56c.67,1.49,1.39,3,2,4.45C87.4,158.57,87.91,158.91,87.84,159.5Zm1.43-5.35a8.68,8.68,0,0,1-.43-1.17c-.23-1.14-.45-2.28-.62-3.43-.08-.59-.07-1.2-.1-1.8a2.64,2.64,0,0,1,.15.45c.33,1.74.66,3.48,1,5.22A5.94,5.94,0,0,1,89.27,154.15Zm.46,2.28-.3-1.28A1.77,1.77,0,0,1,89.73,156.43Zm1,4.28a9.17,9.17,0,0,1-.93-4.05Zm9.13,17-.13,1.13A1.08,1.08,0,0,1,99.81,177.71Zm4-23.71a.23.23,0,0,0,0,.2A87.28,87.28,0,0,0,100.67,165a46.61,46.61,0,0,1,.23-5c.3-2.44.73-4.86,1.13-7.28a11.32,11.32,0,0,1,.52-2c.48-1.32,1-2.62,1.52-3.94.91-2.57,1.76-5.17,2.66-7.74a74.2,74.2,0,0,1,4.37-9.4c1.06-2.06,2.09-4.14,3.13-6.2.62-1.22,1.17-2.48,1.87-3.64a47.12,47.12,0,0,0,4.11-8.3l.18-.49a2.06,2.06,0,0,1,0,1c-1,3.26-1.94,6.54-3,9.78a104.38,104.38,0,0,1-5.8,14.56,4.87,4.87,0,0,0-.24.57c-1.38,2.5-2.72,5-3.87,7.64A99.76,99.76,0,0,0,103.84,154ZM100,170.91l-.21,5.51A17.56,17.56,0,0,1,100,170.91Zm19.91-63.48a174.19,174.19,0,0,0-9.08,17.47c-.73,1.24-1.42,2.49-2,3.78-.55,1.14-1.16,2.26-1.71,3.41-1,2.17-2.11,4.33-3,6.55a54.87,54.87,0,0,0-3.1,9.3c-.34,1.6-.69,3.2-1.08,4.78a51.66,51.66,0,0,0-1.44,10.11c-.21,5-.12,10,.15,15,.09,1.73.1,3.47.15,5.21a3.9,3.9,0,0,1-.13-.57c-.18-1.81-.33-3.63-.52-5.44a88.84,88.84,0,0,1-.15-14.86c.1-1.68.29-3.35.45-5A62,62,0,0,1,101.25,143c1-2.89,2.06-5.74,3.2-8.57a95.92,95.92,0,0,1,5.06-11.18c3-5.29,6.46-10.24,9.83-15.26a1.17,1.17,0,0,1,.24-.33A3.24,3.24,0,0,1,119.93,107.43Zm.82,1.35c-.53,1.21-1,2.43-1.51,3.66a38.3,38.3,0,0,1-2.53,5.29c-1,1.86-2,3.76-3,5.65-1.09,2.1-2.14,4.22-3.23,6.32a74.15,74.15,0,0,0-4.34,9.41c-1.24,3.52-2.5,7-3.74,10.55a35.52,35.52,0,0,0-1.68,8.27c-.28,2.63-.41,5.26-.64,7.89-.26,3-.55,5.89-.83,8.83a1.65,1.65,0,0,1-.11.36c-.17-2.42-.24-4.82-.23-7.23a55.67,55.67,0,0,1,.62-10.07c.48-2.54,1-5.08,1.49-7.63a60.39,60.39,0,0,1,4.3-13.21,103.86,103.86,0,0,1,5.78-11.56.26.26,0,0,0,.11-.1c.07-.16.16-.32.23-.48q.51-.84,1-1.65a11.22,11.22,0,0,0,.78-1.28,19.35,19.35,0,0,0,1.86-4.37h0l0,0c2-3.93,4.13-7.82,6.34-11.66A9.82,9.82,0,0,1,120.75,108.78Zm1-2.85a6,6,0,0,1,.09-.92l.48-.81A2.31,2.31,0,0,1,121.79,105.93Zm-21,64.74c0,.21-.15.41-.29.82a37.44,37.44,0,0,1,1.62-10.44c.66-2.33,1.38-4.64,2.18-6.92h0c.23-.66.47-1.32.72-2,.51-1.37,1.06-2.73,1.66-4.08a20.32,20.32,0,0,0,1.27-3.39q1.51-3.6,3.24-7.1a2.67,2.67,0,0,0,.45-.61,79,79,0,0,0,5-11.92c1.69-5,3.24-10.12,4.54-15.28.13-.49.22-1,.37-1.45a6.52,6.52,0,0,1,.43-.93,45.65,45.65,0,0,1-.59,6c-.46,2.59-1.05,5.17-1.68,7.73A74.73,74.73,0,0,1,116.17,132c-2.62,6.3-5.51,12.48-8.49,18.61A75.53,75.53,0,0,0,100.79,170.67Zm-1.07,9.78a2,2,0,0,1,0-1.29C99.69,179.59,99.71,180,99.72,180.45Zm.51,8.39a3.08,3.08,0,0,1-.63-1.35c-.1-.44-.14-.89-.24-1.32a6.42,6.42,0,0,1,0-3.17,17.82,17.82,0,0,1,.89,4.84C100.24,188.17,100.22,188.5,100.23,188.84Zm2,5c-.36-.73-.72-1.46-1.09-2.19a5.22,5.22,0,0,1-.42-3.74c.11.29.24.57.32.86.37,1.45.73,2.9,1.09,4.36C102.19,193.38,102.21,193.62,102.24,193.86ZM160,292.62a2.4,2.4,0,0,1,.91,1.68A2.83,2.83,0,0,1,160,292.62Zm-.5.56a1.88,1.88,0,0,1,.59,1.57A2,2,0,0,1,159.51,293.18Zm-.53-2.61.57,1.07A1.37,1.37,0,0,1,159,290.57Zm-24.43-39.11a2.6,2.6,0,0,1,.45.42c1.71,2.52,3.42,5,5.11,7.56a4.59,4.59,0,0,1,.38.91c-1.12-1.45-2.31-2.85-3.33-4.36S135.41,253,134.55,251.46Zm-1.28-2.11a5.5,5.5,0,0,1,1.24,2A5,5,0,0,1,133.27,249.35ZM125,190.41q-.51,6.54-1.1,13a100.3,100.3,0,0,0-.34,15.5,8.19,8.19,0,0,1,0,1c-.14-1.09-.29-2.17-.41-3.26a57,57,0,0,1-.09-12c.45-4.29,1.11-8.56,1.69-12.84C124.78,191.38,124.91,190.9,125,190.41Zm7,25.55c0-.16,0-.32.08-.47a122.4,122.4,0,0,1,3.58-13.16c.55-1.68,1.12-3.36,1.53-5.08.7-2.92,1.27-5.87,1.91-8.8.19-.89.5-1.75.67-2.64A175.33,175.33,0,0,0,142.38,168c.11-1.22.19-2.45.28-3.67.19-2.63.35-5.26.56-7.89.05-.69.21-1.38.32-2.08.06,3.06,0,6.1,0,9.14a104.54,104.54,0,0,1-1.09,14.68c-.45,2.78-.83,5.58-1.39,8.35s-1.18,5.61-2,8.35c-1.76,5.88-3.65,11.72-5.51,17.57-.38,1.2-.83,2.37-1.25,3.56Zm-4.61,22.67c.09-2.37.07-4.73.16-7.1a63.65,63.65,0,0,1,.88-9.23c.51-2.87,1-5.75,1.42-8.62.07-.41.14-.81.23-1.21l3.18-15.23c.21-1,.44-2,.66-2.93.43-1.82.9-3.63,1.29-5.45.8-3.74,1.56-7.48,2.35-11.22.37-1.74.8-3.46,1.18-5.19.55-2.49,1.15-5,1.6-7.48.69-3.85,1.27-7.72,1.89-11.59.05-.31.1-.63.18-.94a3.33,3.33,0,0,1,1.32-1.79c-.2,1.25-.38,2.18-.5,3.13-.27,2.25-.55,4.51-.75,6.77-.25,2.77-.36,5.54-.63,8.3-.44,4.67-1.12,9.31-1.94,13.93-.16.89-.36,1.78-.58,2.66-.59,2.48-1.36,4.93-1.78,7.43a68.48,68.48,0,0,1-2.63,9.88,76.58,76.58,0,0,0-3.12,11.59c-.63,4.06-1.69,8-2.58,12a45.57,45.57,0,0,0-1.11,11.93c0,.81,0,1.61,0,2.42A2.58,2.58,0,0,1,127.44,238.63Zm-1-3.41c-.09-2,0-4-.05-6a74.75,74.75,0,0,1,.69-10.47c.24-1.76.37-3.53.53-5.29.19-2.08.32-4.17.56-6.25.3-2.62.67-5.23,1-7.85.57-4.19,1.1-8.38,1.74-12.56.4-2.56,1-5.09,1.47-7.64a31.08,31.08,0,0,1,1.57-5.5c.62-1.61,1.24-3.22,1.79-4.86a63.88,63.88,0,0,1,3.6-8.69,45,45,0,0,0,1.8-4.56c.22-.58.41-1.18.71-2.06a5.25,5.25,0,0,1,0,.6c-.79,5.31-1.67,10.61-2.92,15.83-.35,1.46-.66,2.93-1,4.39-1,4.16-2.09,8.29-2.76,12.52a23.93,23.93,0,0,1-.52,2.68q-1.58,5.88-2.62,11.86c-.14.8-.28,1.61-.48,2.4-1,3.93-1.77,7.91-2.44,11.9-.24,1.44-.43,2.88-.73,4.31A74.94,74.94,0,0,0,127,235.45c0,1-.06,2-.1,3.05A28.21,28.21,0,0,1,126.4,235.22Zm-.82-1.63a2.61,2.61,0,0,1,.22.85c0,.56.07,1.14.1,1.71A3.41,3.41,0,0,1,125.58,233.59Zm.34-4.39a2.61,2.61,0,0,1-.14-.6c0-1.95-.17-3.9-.12-5.86.14-4.59.64-9.15,1.07-13.72.28-3,.52-6,.8-9,.23-2.44.41-4.89.76-7.32.63-4.42,1.37-8.82,2.07-13.22a21.87,21.87,0,0,1,.52-2.68,91.89,91.89,0,0,1,5.28-14.75,11.88,11.88,0,0,0,.79-1.88,9.53,9.53,0,0,1,2-3.52c.61-.72,1.17-1.48,1.95-2.47a8.23,8.23,0,0,1-.14.85,57.21,57.21,0,0,1-2.6,6.15,47.1,47.1,0,0,0-1.94,4.51c-.86,2.3-1.62,4.63-2.43,6.95a34.82,34.82,0,0,0-1.37,4c-.79,3.79-1.48,7.59-2.14,11.4-.3,1.79-.41,3.62-.66,5.42-.67,5-1.37,10-2,15,0,.31-.06.63-.09.95-.24,3-.41,6-.75,9-.33,2.76-.65,5.51-.71,8.29C126,227.53,126,228.36,125.92,229.2Zm-.44,2.09a26.47,26.47,0,0,1-1-4.95c-.18-1.85-.19-3.72-.32-5.58a102,102,0,0,1-.08-13.08c.07-1.31.18-2.63.26-3.94.18-3,.3-6.09.77-9.1.11-.67.12-1.36.19-2,.24-2.21.42-4.44.76-6.64.29-1.93.74-3.84,1.17-5.74.23-1.07.52-2.13.85-3.16a68,68,0,0,1,6-13.57c.52-.89,1.1-1.75,1.66-2.63l.25.18a63.62,63.62,0,0,0-3.57,9.12,51.45,51.45,0,0,0-2.33,8.26c-1.17,7.64-2.58,15.25-3.1,23-.19,2.9-.49,5.79-.74,8.69-.28,3.26-.55,6.52-.83,9.78a53.8,53.8,0,0,0-.17,7.62Zm-3,1.9a2.09,2.09,0,0,1,.82,1.43Zm-.85-1.5a2.43,2.43,0,0,1,.83,1.47A2.17,2.17,0,0,1,121.68,231.69ZM103.46,209a70.61,70.61,0,0,1-7.54-6.27c-2.62-2.39-5.32-4.68-8-7-1.76-1.51-3.55-3-5.35-4.44s-3.69-2.95-5.55-4.41-3.47-2.64-5.2-4c-2.7-2.08-5.38-4.19-8.08-6.26q-2.49-1.91-5-3.78a0,0,0,0,0,0,0c-4-3.28-8-6.54-12.15-9.67,2.28,1.4,4.55,2.83,6.87,4.17a108.86,108.86,0,0,1,11.29,7.56c2,1.59,3.9,3.18,5.84,4.79L72,180.84c1.3,1.11,2.61,2.2,3.93,3.29q9.4,7.85,18.62,15.92a1.8,1.8,0,0,0,.29.26l1,.9.07.06L99,204a.09.09,0,0,0,.06,0c1.79,1.64,3.57,3.28,5.34,4.94a14.66,14.66,0,0,1,1.22,1.49Zm-5-6.07a8.08,8.08,0,0,0-1.54-1.2l-.48-.44a1.66,1.66,0,0,0-.52-.47c-1.52-1.39-3-2.78-4.57-4.15-7.57-6.81-15.31-13.49-23.27-19.86l-1-.86a1.91,1.91,0,0,1-.28-.4,7.19,7.19,0,0,1,.67.37c2.15,1.52,4.39,2.94,6.43,4.59,4.26,3.46,8.44,7,12.63,10.58a152.51,152.51,0,0,1,12.64,12c.29.31.55.64.82,1C99.49,203.65,99,203.28,98.45,202.91ZM68.64,188.3c.25.15.51.29.74.46l8.84,6.8c.3.23.58.47.87.71-.33-.16-.68-.3-1-.49a56.41,56.41,0,0,1-9-6.9A3.63,3.63,0,0,1,68.64,188.3Zm-7.06-6.54.53.44c.43.34.87.65,1.27,1q1.8,1.68,3.55,3.39c.3.29.57.61.86.92A5,5,0,0,1,67,187q-2.14-2-4.25-3.93a6.73,6.73,0,0,1-.68-.82Zm-7.18-8.2a7.57,7.57,0,0,1,1.1.65c2.21,1.82,4.43,3.63,6.61,5.49a130.86,130.86,0,0,0,12.31,9.7c2.12,1.41,4.22,2.86,6.31,4.31,2.51,1.73,5,3.49,7.5,5.22,3.48,2.41,7,4.8,10.43,7.22a9.84,9.84,0,0,1,2.64,2.3c-.31-.17-.63-.33-.94-.51-1.25-.73-2.47-1.54-3.77-2.19a129.47,129.47,0,0,1-15.12-8.69,125.32,125.32,0,0,1-15-11.61c-2.18-2.06-4.4-4.08-6.57-6.16-1.64-1.57-3.22-3.2-4.82-4.82A8.89,8.89,0,0,1,54.4,173.56Zm-11-11.7c3.81,2.8,7.65,5.57,11.44,8.39a2.63,2.63,0,0,0,.44.5c1.48,1.2,3,2.42,4.49,3.57,3.82,2.86,7.66,5.69,11.36,8.71,4.65,3.79,9.61,7.2,14,11.29.2.19.43.34.64.51,2.88,2.44,5.76,4.87,8.63,7.32a7.1,7.1,0,0,1,.75.88,7.19,7.19,0,0,1-.67-.37L80.87,193.2c-1.46-1-2.87-2.09-4.37-3a115.64,115.64,0,0,1-14.69-11.49c-2.14-1.9-4.32-3.76-6.61-5.48a89.62,89.62,0,0,1-10.93-10,12.57,12.57,0,0,1-.8-1.08l-.12-.16Zm52.77,34.93a18,18,0,0,1-1.44-1.32A160.58,160.58,0,0,0,75.45,178.4c-4.21-3.25-8.7-6.12-13.07-9.17-.27-.19-.53-.42-.79-.63.32.12.64.23.95.37a88,88,0,0,1,13.07,7.54A92.05,92.05,0,0,1,95.78,196,5,5,0,0,1,96.21,196.79Zm9.8,12.89c-.37-.34-.77-.65-1.1-1a159.37,159.37,0,0,0-13.29-13.72c-3.41-3.08-6.88-6.09-10.38-9.07-2.53-2.16-5-4.35-7.72-6.3a223.16,223.16,0,0,0-23.26-15.25A10.6,10.6,0,0,0,49,163.8h0a2,2,0,0,0-1.27-.77h0a10.61,10.61,0,0,1-3.47-1.94c.32.11.65.21,1,.34,2.25,1,4.48,2,6.76,2.91A63.74,63.74,0,0,1,64.3,171a199.11,199.11,0,0,1,18.5,14A161.82,161.82,0,0,1,95,196.46c.9,1,1.8,1.93,2.73,2.86A83.14,83.14,0,0,1,106,209.68Z" fill="#2c3d36"/></g><g id="change1_123"><path d="M87.89,102.54l0,0Z" fill="#2c3d36"/></g><g id="change1_124"><path d="M49.45,81.56q5.1,6.16,9.56,12.79l.09.14q3.85,5.73,7.21,11.79a.18.18,0,0,1-.32.18c-.59-1-1.18-2-1.79-2.94a2.82,2.82,0,0,1-.73-1.17l-.53-.85a3.38,3.38,0,0,1-.71-1.12A197.31,197.31,0,0,0,48.94,82.06C48.66,81.71,49.15,81.2,49.45,81.56Z" fill="#2c3d36"/></g><g id="change1_125"><path d="M59.89,96.11l-.24-.34Z" fill="#2c3d36"/></g><g id="change1_126"><path d="M58.12,93.34,57.88,93Z" fill="#2c3d36"/></g><g id="change1_127"><path d="M57.9,93l-.25-.34Z" fill="#2c3d36"/></g><g id="change1_128"><path d="M57.67,92.71l-.24-.34Z" fill="#2c3d36"/></g><g id="change1_129"><path d="M57.45,92.4l-.25-.34Z" fill="#2c3d36"/></g><g id="change1_130"><path d="M57.22,92.08,57,91.74C57.05,91.86,57.14,92,57.22,92.08Z" fill="#2c3d36"/></g><g id="change1_131"><path d="M57,91.77l-.24-.34Z" fill="#2c3d36"/></g><g id="change1_132"><path d="M56.77,91.46l-.25-.34Z" fill="#2c3d36"/></g><g id="change1_133"><path d="M56.54,91.15l-.25-.35Z" fill="#2c3d36"/></g><g id="change1_134"><path d="M56.31,90.83l-.24-.34Z" fill="#2c3d36"/></g><g id="change1_135"><path d="M56.09,90.52l-.25-.34Z" fill="#2c3d36"/></g><g id="change1_136"><path d="M55.86,90.21l-.25-.35Z" fill="#2c3d36"/></g><g id="change1_137"><path d="M55.63,89.89l-.24-.34Z" fill="#2c3d36"/></g><g id="change1_138"><path d="M55.41,89.58l-.25-.34Z" fill="#2c3d36"/></g><g id="change1_139"><path d="M55.18,89.27l-.24-.35Z" fill="#2c3d36"/></g><g id="change1_140"><path d="M55,89l-.25-.34Z" fill="#2c3d36"/></g><g id="change1_141"><path d="M54.73,88.64l-.25-.34Z" fill="#2c3d36"/></g><g id="change1_142"><path d="M54.5,88.33,54.26,88Z" fill="#2c3d36"/></g><g id="change1_143"><path d="M54.28,88,54,87.67Z" fill="#2c3d36"/></g><g id="change1_144"><path d="M54.05,87.7c-.08-.11-.16-.23-.25-.34C53.89,87.47,54,87.59,54.05,87.7Z" fill="#2c3d36"/></g></svg>