<svg xmlns="http://www.w3.org/2000/svg" xmlns:xlink="http://www.w3.org/1999/xlink" fill="#355d1f" data-name="Poppy Bouquet" height="2324.4" preserveAspectRatio="xMidYMid meet" version="1.0" viewBox="28.4 37.2 1622.1 2324.4" width="1622.1" zoomAndPan="magnify"><g data-name="Cosmos 3" id="change1_1"><path d="M580.65,1117.25c-21.13,20-21.15,20-29.58,32.6-1.72,2.57-3.82,5.05-4.87,7.89-5.12,13.83-11.09,27.43-11.53,42.58-.11,3.83-1.25,7.66-2.12,11.44-1.58,6.82-3.49,13.53-3.61,20.64-.1,5.51-2.07,10.69-4.37,15.65a16.07,16.07,0,0,1-10.2,8.94c-1.31.39-3.37.33-4.31-.46-2.34-2-4.92-4.14-6.18-6.82-4.34-9.21-7.17-18.93-6.88-29.25.24-8.5.87-17,1.25-25.5a2.15,2.15,0,0,0-1-1.7,3.14,3.14,0,0,0-2.27.16c-2.83,1.4-5.43,3.22-6.71,6.18-3.4,7.91-8.26,14.93-12.82,22.17-3.39,5.36-7.88,9.58-12.33,13.9a37.11,37.11,0,0,1-3.73,2.81c-3.93,2.94-10.34.82-11.24-3.78s-1.71-9.14-1-13.89a52.89,52.89,0,0,0,.22-9.17c0-.57-.78-1.19-1.31-1.66-1.38-1.23-3.05-1.54-4.21-.33-3.73,3.9-7.51,7.8-10.83,12-5.74,7.33-11.47,14.7-16.63,22.45s-12.25,14-19.09,20.32a35.27,35.27,0,0,1-10.09,5.72c-3.19,1.29-8.37.14-10.81-2.34a9.7,9.7,0,0,1-2.84-8.52,132.23,132.23,0,0,1,11.71-37.79c3.37-6.92,8.39-13,12.62-19.53a2.94,2.94,0,0,0,.62-2,3.25,3.25,0,0,0-3.5-2.49c-12.43.23-24.9-.13-37.26.89-21.07,1.73-41.87-1.14-62.77-2.34-19-4.21-37.94-8.81-55.72-17a24.19,24.19,0,0,1-13.49-15.3c-1.61-5.19-2.92-10.48-4.39-15.72-.67-2.43-2.63-4.51-4.79-4.33-8.76.74-17-1.76-25.2-4.06a431.23,431.23,0,0,1-46.29-16.15c-10.17-4.14-18.9-10.7-28-16.62-6.5-4.23-12.53-9.18-18.81-13.75-9.41-6.85-18.7-13.82-28.73-19.87a116.17,116.17,0,0,1-23.91-18.49,47.8,47.8,0,0,1-11-17.74c-4.23-12.17-1.76-22.86,7.21-32.19,4.38-4.55,9.15-8.49,14.9-11.06,16.38-7.3,32-16,47.83-24.43a103.2,103.2,0,0,1,30.8-10.49c10.15-1.82,10.45-2.81,5.87-11.23-.38-.68-.78-1.35-1.19-2-4.18-6.72-6.11-14.28-8-21.82a15.63,15.63,0,0,1-.75-4.59c.9-15.57,2.37-30.69,11.33-44.56,6.91-10.69,14.51-20,25.32-26.8,6.56-4.14,12.67-9,18.91-13.67a232.15,232.15,0,0,0,47.64-47.66c7-9.32,14.06-18.56,22.39-26.81,6.44-6.38,13.87-9.39,22.87-10.05,6.39-.47,12.28,1.73,18.47,1.86a2.56,2.56,0,0,0,2.78-2.92c-.49-4.63-1.22-9.23-1.65-13.86-1.55-16.44-.55-32.63,5.82-48.07a105.83,105.83,0,0,1,17-27.65c7.25-8.62,16.91-13.52,27.62-16.46a35.75,35.75,0,0,1,6.91-1.07c10.35-.72,19.66-4.55,28.6-9.42,7.52-4.09,15-8.33,22.38-12.62a69.05,69.05,0,0,1,30.95-9.38c6.48-.39,12.28.28,17.74,4,11.2,7.68,23.6,11,37.26,11.53,12.6.45,24.5,4.13,34,13.35a5.82,5.82,0,0,0,8.31-.13c5.28-5.7,10.86-11.18,15.66-17.27,6.35-8.06,14.17-14.36,22.18-20.55a68.88,68.88,0,0,1,20.53-10.9c11.8-3.93,23.7-7.6,35.58-11.29,7.4-2.29,18.29,1.41,23,7.8,5.08,6.88,9.64,13.94,12.73,22.14,3.82,10.17,8.89,19.9,13.77,29.63a77.28,77.28,0,0,1,8.62,38.27c-.47,11.62-.62,23.33-4.32,34.54a36.86,36.86,0,0,0-.92,20.55c2.75,12.09,4.35,24.47,6.08,36.78,3,21.56,6,43.13,8.57,64.75,1.54,13.09,3.08,26.19,3.42,39.43.54,21.08-1,41.86-6,62.36-.56,2.29,2,4.28,4.37,3.35,16.1-6.27,32.9-9.27,50-10.67a52.06,52.06,0,0,1,11.56.51c2.21.32,4.31,1.6,6.36,2.65,2.46,1.24,3.84,5.92,2.49,8.16-2,3.33-4.24,6.52-6.08,9.93-4.2,7.79-10.47,13.52-17.87,18s-15,8.31-23.37,10.47c-13.67,3.52-26.18,9.83-38.86,15.78a60.54,60.54,0,0,0-24.55,21,131.82,131.82,0,0,0-7.34,11.8c-.33.62,1,2.77,2.09,3.38a7.18,7.18,0,0,0,4.44.55c8.46-1.45,17-1.58,25.55-1.7a54.87,54.87,0,0,1,22.62,5c.71.31,1.31.82,2,1.17,4,2,4.9,9.18,1.47,12a83.68,83.68,0,0,1-30.94,15.84c-5.25,1.45-10.61,2.49-15.31,5.44-.61.38-1.4,1.32-1.29,1.83.27,1.27.71,3.13,1.62,3.53,8.69,3.84,15.87,9.54,22.49,16.32a28.17,28.17,0,0,1,8.12,18.78c.27,4.24-4,9.44-8.2,9.88-13.61,1.41-26.73-1-38-8.35-12.58-8.21-26.38-8.31-40.3-8.87-2.15-.09-4.43,1.18-6.53,2.1a3.24,3.24,0,0,0-1.61,3.93,12.36,12.36,0,0,0,1.6,4.23c14.94,21.82,30,43.54,44.9,65.4,6.56,9.65,13.06,19.36,19,29.38,12.71,21.41,26.06,42.45,37.17,64.79,12.13,24.41,24.53,48.68,36.68,73.07,12.5,25.09,23.17,51,33.49,77,1.72,4.34,3.6,8.62,5.53,12.87,15.15,33.33,27.69,67.65,38.71,102.55,1.17,3.7,2.48,7.36,3.66,11.07a23.43,23.43,0,0,0,7.75,11.47c19.17,15.08,34.1,33.92,48.36,53.43,2.7,3.7,6.1,6.91,9.28,10.24a2.74,2.74,0,0,0,2.17.46c.72-.12,1.9-.68,1.94-1.13.79-9.25,4.39-18.12,3.51-27.62-.36-3.9-.48-7.73-2.29-11.31-3.85-7.65-7.7-15.29-13.15-22-4.42-5.43-8.8-10.9-13-16.49a99.58,99.58,0,0,0-17.88-18.29,166.7,166.7,0,0,1-27.56-28.37c-8.8-11.21-14.5-23.9-19.43-37-1.08-2.87-1.31-6.07-1.85-9.14-.88-5,3.83-8.72,9-7.19a43.72,43.72,0,0,1,18.12,10.14,241.53,241.53,0,0,1,26.11,29.79c4.68,6.18,9.52,12.26,14.41,18.28a2.7,2.7,0,0,0,4.17.17,2.23,2.23,0,0,0,.36-1.93c-3.34-10.48-9.25-19.65-14.84-29-3.59-6-7.51-11.82-11-17.88-15.53-27-31.93-53.41-48.58-79.7a33.26,33.26,0,0,0-2.52-3.93c-13.67-16.07-24-34.45-35.37-52.05-13.18-20.3-23.71-42-33.75-64a45.45,45.45,0,0,1-4-18.1,17.39,17.39,0,0,1,1.72-6.68c1.49-3.55,7-5.29,9.81-3.34,5.13,3.53,10.17,7,13.7,12.45,7.64,11.73,15.73,23.13,22.06,35.71a675.89,675.89,0,0,0,42.59,72.36c10.38,15.47,19.68,31.67,29.52,47.51.36.58,1.6,1.33,1.79,1.18a10.37,10.37,0,0,0,3.11-3.15,8.83,8.83,0,0,0,.91-4.49c-1.06-13.16-2.37-26.31-3.36-39.48-.7-9.29-1.07-18.61-1.47-27.92a25.25,25.25,0,0,1,.69-4.58c.24-1.69,2.85-4.47,4.66-4.75a8.16,8.16,0,0,1,6.46,1.92,12.5,12.5,0,0,1,3.08,3.45c6.19,10.84,11.81,21.93,14.54,34.25,2.52,11.38,5.56,22.67,7.58,34.14,1.2,6.82,1,13.9,1.18,20.87.14,7.76,0,15.52-.16,23.28-.42,18.29,4.26,35.41,11.87,51.82,2.61,5.61,4.6,11.61,9,16.23a2.4,2.4,0,0,0,1.8.77,3.69,3.69,0,0,0,1.85-1.35,4.45,4.45,0,0,0,1-2.1c1.71-15.4,3.81-30.78,4.92-46.22.94-13.18,3.21-26.18,4.16-39.32a25.68,25.68,0,0,0-.74-9.18c-2.53-8.16-5.55-16.18-8.37-24.25-2.57-7.34-5.19-14.66-7.68-22a28.28,28.28,0,0,1-1.63-6.78c-.39-5.25-2.51-10.92,2.89-15.1,4.41-3.42,8.82-1.35,13.25-.06a7.89,7.89,0,0,0,2.31.35c1.76,0,3.26-.74,3.44-2.17,1.6-13.1,3.55-26.19,4.47-39.34,1-14.73,1.89-29.44,5.51-43.83,1.45-23.27,7.63-45.9,9.44-69.12,4.47-13.39,3-27.84,7.37-41.24.35-15.62,6.21-30.42,6.83-46,.15-3.82,1.58-7.6,2.5-11.38,1.46-6,3.32-12,3-18.36a13.37,13.37,0,0,1,.58-4.62c4.72-14.88,6.37-30.38,9.41-45.6,1.38-6.86,3.21-13.56,3.47-20.66.17-4.59,1.72-9.14,2.79-13.68s3.1-9,3.34-13.58c.81-15,5.86-28.91,9.69-43.16.8-3,2.06-6,2.13-9.07.29-11.9,4.55-22.83,7.64-34.06,4.13-15,10-29.51,11.14-45.23.17-2.28,1.17-4.51,1.85-6.74q21.69-71.55,46.53-142a107.62,107.62,0,0,1,5.18-13c3-6,1.47-10.55-6.53-14.53-6.25-3.1-12.09-2.91-17.68.74a269.34,269.34,0,0,0-33.12,25.76c-6.36,5.72-12.89,11.26-19.49,16.7a79,79,0,0,1-20,11.86,27.27,27.27,0,0,1-6.75,1.69,13.27,13.27,0,0,1-14.7-16.12c2.81-12.47,8.24-23.43,17.51-32.33,2.29-2.19,4.28-4.5,4.26-7.86,0-.71-.72-2-1-2-3,.39-6,1.06-9,1.5a19.66,19.66,0,0,1-11.35-1.56,7.33,7.33,0,0,1-3.76-7.72c.74-3.93,2.12-7.65,4.89-10.41,8.86-8.85,18.49-16.65,30.64-20.69,4.43-1.48,8.74-3.32,13.15-4.84,3.65-1.25,7.38-2.28,11-3.39-.25-7.06-.13-7.13-6.42-14.16a31.21,31.21,0,0,0-4.55-.73c-17.25-.18-34-2.92-50.13-9.24-21.23-8.29-42.86-6.92-64.05-.28-13.46,4.21-26.89,7.7-40.95,8.61-5.56.35-10.29-5.1-9.38-10.72.78-4.75,2.58-9,6.25-12.18,4.65-4.07,10.48-6.74,14.23-11.89,1-1.32.77-2.81-.9-3.82-4.14-2.48-8.76-2.83-13.47-2.76-12.74.2-24.5-3.67-36-8.79a6.51,6.51,0,0,1-4-5.29,8.35,8.35,0,0,1,3.93-8A60,60,0,0,1,811.8,517c6.86-1.4,13.66-3,20.77-2.59,4.65.25,9.33,0,14-.07,2.57,0,4.37-2.6,3.32-4.6s-2-4.21-3.23-6.19a309,309,0,0,1-27.16-56.78,157.53,157.53,0,0,0-7.4-17.1c-9.06-18.1-18.32-36.1-27.51-54.14-1.06-2.08-2-4.21-3.17-6.25-6-10.87-12.5-21.54-18.07-32.65-5.22-10.42-9-21.56-14.33-31.92-8-15.61-11-32.33-12.36-49.47-.31-3.77.62-7.71,1.44-11.48,1.2-5.55,3.91-10.12,9.59-12.33a65.22,65.22,0,0,0,6.34-3c2.24-1.14,3-2.94,2.11-5.82-3.29-11.23-5.23-22.72-7.15-34.24a154.11,154.11,0,0,1,.2-48.74c2.7-17.68,8.06-34.93,20.09-49.09a31.79,31.79,0,0,1,19.9-11.12,15.47,15.47,0,0,1,11.06,2.86,36.72,36.72,0,0,1,7,6.13c8.83,10.07,19.54,17.82,30.93,24.55,11.73,6.92,20.5,16.49,27.6,27.84,9.55,15.26,16.39,31.77,22.44,48.65.23.65,1.44,1.62,1.6,1.51a15.67,15.67,0,0,0,3.23-2.68,3.37,3.37,0,0,0,.78-2.14c-.18-11.87,3.16-23.09,6.67-34.21,3.75-11.87,8.32-23.49,11.89-35.41,3.64-12.13,10.29-22.68,16.93-33.1a107.77,107.77,0,0,1,44.85-39.69,55,55,0,0,1,20.22-5.19,86.47,86.47,0,0,1,51.35,12.3c13,7.7,26.66,12.46,41.73,13.28,7.84.43,15.28,2.71,22.72,5.09,7.76,2.49,13.62,7.41,18.29,13.83a56.2,56.2,0,0,1,10,23.42c1.23,6.85,1.53,13.84,2.67,20.66,2.22-.26,3.86-.06,5.11-.66,4.9-2.38,9.63-5.08,14.5-7.53,13.53-6.81,28-9.1,43-8.61,21,.69,41.88,1.75,62.76,3.62,23.7,2.11,43.14,12.08,57.22,31.63,2.28,3.16,4.2,6.58,6.6,9.63,17.07,21.68,38.25,38.5,62.27,51.79,11,6.06,21.11,13,29.89,22a69.09,69.09,0,0,1,13,19.21c4.86,10.35,5.19,21.15,2.35,31.86-2.79,10.49-6.36,20.81-12.37,30.08a4.35,4.35,0,0,0,.5,4.15c.88.89,2.84,1,4.3.93a13.55,13.55,0,0,0,4.43-1.37c15.08-6.74,31-10.21,47.31-12,17.15-1.87,34.15-1.4,50.72,4.12,10.33,3.44,20.63,7,31,10.28,12.07,3.78,22.48,10.49,32.63,17.74A97,97,0,0,1,1619,357.33a37.26,37.26,0,0,1,6.58,19.7,26.91,26.91,0,0,1-1,9.2c-2.25,7.44-4.42,15-7.58,22-4.49,10-11.91,18.12-19.32,26.11-5.27,5.68-11.77,10.17-16.15,16.73-1,1.5-.93,2.88.79,3.9a27.78,27.78,0,0,0,6.22,3c12.84,3.66,24.21,10.44,36,16.37a47.58,47.58,0,0,1,16,13.31c8.9,11.24,10,24.08,6.73,37.56a18.87,18.87,0,0,1-2.78,6.38c-9.93,13.91-20.06,27.45-33.68,38.36a323.13,323.13,0,0,1-57.09,36.09,366.67,366.67,0,0,1-40.65,17.74c-7.3,2.62-14.41,5.82-21.44,9.13-10.56,5-20.94,10.34-31.46,15.41-8.41,4.06-16.79,8.11-25.67,11.18-7.33,2.53-14.29,6.15-21.33,9.45-24.15,11.34-49.76,17.92-75.82,22.63-16.86,3-34,3-51.09,1.13a57.58,57.58,0,0,0-11.58.32c-1.36.13-2.62,1.28-4.15,2.08,4,3.72,8.06,7.3,11.93,11.06a65.84,65.84,0,0,1,16,25.45c1.38,3.83-3.3,10-7.52,9.81a32.37,32.37,0,0,1-6.92-.71c-9.8-2.74-19.17-6.4-27.1-13.1-1.11-.93-2.84-1.21-4.34-1.52a3,3,0,0,0-2.16.66,2.08,2.08,0,0,0-.7,1.74,184.29,184.29,0,0,1,5.81,27.29c1.36,10,1,20.17.7,30.25-.14,4.68-1.92,9.1-4.21,13.25-3.51,6.39-14,7.27-17.84,1.34a89.06,89.06,0,0,1-7-12.11c-3.51-7.8-7.13-15.62-9.69-23.76-4.94-15.73-12.51-30.19-20.43-44.48a79,79,0,0,0-9.7-13c-7.79-9-16.75-16-29.25-17.49a183.89,183.89,0,0,1-20.55-4.08c-7.56-1.78-15-4-22.58-5.8-2.13-.49-4.51.08-6.7.15a8.9,8.9,0,0,0-.41,2.6c3.1,15.24-1,29.22-7.12,43-2.72,6.17-7.44,9.77-13.54,12-4.17,1.5-10.2-2.23-10.36-6.69-.23-6.2-.19-12.41-.19-18.62,0-7,.24-14,0-20.94,0-1.08-1.71-2.29-2.86-3.12-1.44-1-2.89-.54-4,1a11.72,11.72,0,0,0-1.28,1.9c-1,2.13-2,4.24-2.72,6.44-15,43.43-29.55,87-42.56,131.07-1.76,6-3.54,11.85-4.1,18.16-.47,5.35-2.24,10.63-3.72,15.86-2.76,9.73-5.76,19.41-8.59,29.12-1.08,3.74-2.67,7.49-2.85,11.29-.65,13.43-5.35,25.86-8.77,38.61-1.61,6-3.64,11.92-3.42,18.28a13.55,13.55,0,0,1-.52,4.63c-5.5,16.31-5.95,33.64-10.27,50.18a22.35,22.35,0,0,0-1.08,4.54c-.66,14.13-5.17,27.45-8.34,41.07-1.75,7.52-2.08,15.37-3.62,23s-4.18,15-3.62,23c-3.89,13.5-3.61,27.72-7.25,41.27-1,3.71-1.06,7.67-1.57,11.51s-.48,7.87-1.66,11.51c-4.12,12.69-2.8,26.31-7,38.95-.38,12.45-3.49,24.55-4.63,36.93-1.07,11.54-3.81,22.92-4.88,34.55-.76,8.24-5.65,68-5.93,78.86a25.28,25.28,0,0,0,2,11.35c14.82,32.71,25.12,67,34.7,101.45a73.69,73.69,0,0,0,3.25,8.63,1.8,1.8,0,0,0,3.5.05c1.14-2.84,2.73-5.69,3-8.64,2.2-23.15,3.4-46.43,6.36-69.49,2.87-22.28,3.49-44.89,8.89-66.86,1.1-4.48.94-9.27,1.79-13.84a39,39,0,0,1,12.41-22,16.07,16.07,0,0,1,4-2.39c3.69-1.76,10.34,1.27,11.64,5.19a87.38,87.38,0,0,1,3.75,34.55c-.66,8.47.13,17.16-2.65,25.43.3,14.12-4.85,27.47-5.8,41.47-.46,6.88-3.28,13.58-4.9,20.39-1.44,6-2.86,12.08-3.92,18.18-.18,1,1.33,2.54,2.31,3.6,1.21,1.3,2.72,1.08,4-.42a35.73,35.73,0,0,0,2.78-3.7c6.69-10.44,13.51-20.82,20-31.4,10.94-17.85,21.27-36.07,32.7-53.62,6.77-10.39,13.56-20.85,23.4-28.83,3.26-2.64,6.69-3.72,10.76-2.68s6.74,5,6.1,8.63a108.84,108.84,0,0,1-14.87,38.94c-9.82,15.83-21.71,30.18-31.6,45.93-.65,1,0,3,.3,4.43a2.87,2.87,0,0,0,2,.22,36.07,36.07,0,0,0,6.46-2.52c6.76-3.85,13.35-8,20.11-11.82,12.87-7.27,25.75-14.53,38.76-21.53,4.35-2.34,9.08-1.55,13.58.17a10.33,10.33,0,0,1,5.17,15.3c-9.56,14.73-22.7,25.57-37.72,34.07-12.18,6.89-24.67,13.19-38.15,17.47-8.12,2.58-15.77,6.63-23.64,10-26.93,11.42-45.4,31.9-60.62,56-7.51,11.92-14.37,24-16.76,38.12a4.54,4.54,0,0,0,1.53,3.8,5.12,5.12,0,0,0,4.39.17c10.05-5.89,20.36-11.33,29.53-18.69,12.13-9.74,24.54-19.13,36.94-28.53q12.09-9.15,24.52-17.84a29.93,29.93,0,0,1,12.84-5.29c2.43-.35,6.92,2,7.67,4.32,1.22,3.72,2.12,7.51,1.28,11.44a44.12,44.12,0,0,1-5.81,15.18,146.08,146.08,0,0,1-30.91,34.64,72.74,72.74,0,0,1-11.79,7.52c-11.71,6.13-23.44,12.25-36.39,15.6-6.77,1.75-13.41,4-20,6.42-18.74,6.74-34.87,17-45.81,34.28-2.46,3.89-6.47,6.87-6.93,11.9-.16,1.8.53,3.37,1.89,3.45a18.66,18.66,0,0,0,6.89-.59c5.86-2,11.84-4,17.32-6.89,19.37-10.13,40.11-17,60.12-25.62,21.43-9.23,43.19-17.7,64.8-26.53,6.51-2.66,13.15-4.73,20.26-5.09,3.52-.18,7.82,2.43,9.05,6,.49,1.42,1.09,3.37.51,4.48a120.35,120.35,0,0,1-8.38,14,22.93,22.93,0,0,1-6.93,6.14,158.82,158.82,0,0,1-18.54,9.82c-10,4.22-19.76,9.07-30.1,12.68-8.76,3.06-16.94,7.81-25.29,12-1.28.64-2.81,2.12-2.93,3.33-.09,1,1.47,2.83,2.67,3.27,9.6,3.52,18,9.27,26.39,14.78,4.45,2.92,8.14,7.14,11.77,11.14,1.47,1.61,2.08,4.13,2.72,6.33,1,3.36-1.82,7.9-5.33,9.3-3.9,1.56-8,1.48-11.22-.75-8.46-5.79-17.93-9.2-27.31-13-4.3-1.72-8.26-4.28-12.41-6.38-2.06-1-4.17-2.66-6.31-2.76-8.65-.39-16.75-3.46-25.19-4.67A43.86,43.86,0,0,0,957.1,1662c-10.86,4.42-21.17,9.82-29.43,18.48-7.49,7.85-16.15,14.66-21.49,24.41-11,12.08-14.39,27.28-17.22,42.67.59,8.72-2.59,16.86-3.77,25.29s-2,16.9-3.33,25.36c-2.76,17.59-4.11,35.41-6,53.14-3.32,31.64-3.5,63.5-6.52,95.14-2.73,28.62-2.17,57.36-4.17,86-3.14,45-3.45,90-2.09,135,.85,27.94,2,55.87,3,83.81.06,1.54.37,3.08.54,4.62,2.82,26.28,5.55,52.56,8.5,78.82.87,7.73,1.94,15.4,1.75,23.21a3.65,3.65,0,0,1-4.93,3.19,16.74,16.74,0,0,1-5.66-3.7c-3.1-3.62-4.56-8.2-5.26-12.81-2.12-13.83-4-27.7-5.79-41.58-.7-5.38-.59-10.87-1.34-16.25-4.62-33.14-6.06-66.49-6.72-99.9-.42-21.74-1.63-43.46-1.83-65.2-.22-24.83.47-49.64,2.22-74.46,1.79-25.52,1.73-51.17,3-76.74,1.21-24.8,3-49.57,4.65-74.34,1.07-16.26,2.2-32.5,3.5-48.74.74-9.27,1.76-18.52,2.87-27.75a64.52,64.52,0,0,0-.17-16.25c-5.7-43.22-12.3-86.24-25-128.11-3.83-12.65-6.73-25.58-10.17-38.34a89,89,0,0,0-3.67-11.06,9.8,9.8,0,0,0-6.53-6.18c-6-1.55-12-3.75-18.13-4.27-14.68-1.24-29.23-4-44.08-3.52-3.72.12-7.63-1.24-11.21-2.59-2-.76-3.72-2.69-5.17-4.42-2.43-2.91-1.38-8.72,1.89-10.12,3.53-1.5,7.25-3.43,11-3.59,16.28-.67,32.48-3.67,48.86-1.84,2.28.25,4.65-.36,7-.53,3.07-.23,5.43-1.71,5-3.46-.51-2.21-.91-4.82-2.33-6.38-4.19-4.64-9.14-8.54-15.32-10.23-10.47-2.87-20.56-7.16-31.56-8.19a25.27,25.27,0,0,1-11-3.4c-6.66-4.27-13.88-7-21.21-9.59-8.79-3.14-17.65-6.18-26.24-9.82-7.12-3-13.81-7.07-20.86-10.3-6.36-2.92-13.13-5-19.38-8.1-7.63-3.81-15-8.13-22.29-12.61-2.57-1.58-4.56-4.18-6.66-6.46-2.56-2.77-.37-8.48,3.41-9.29,6.89-1.45,13.79-2.29,20.76-.59,4.54,1.11,9.12,2.08,13.59,3.41,16.41,4.9,32.71,10.15,48.62,16.56,7.2,2.9,14.22,6.42,22.06,7.41.68.08,1.89-.35,2.08-.84.47-1.22,1.14-3,.58-3.86-1.73-2.51-3.64-5.16-6.1-6.87-8.91-6.22-17.89-12.36-27.16-18-13.25-8.08-26.47-16.28-40.27-23.32a175.08,175.08,0,0,1-21.67-13.6c-11.39-8.09-22.34-16.81-33.6-25.09-12.73-9.37-22.64-21.25-31.08-34.43-2.09-3.26-3.76-6.92-3.55-10.94a24.93,24.93,0,0,1,1.5-6.73c1-2.8,4.77-4.42,7.6-4a34.88,34.88,0,0,1,15.19,5.68c11.48,7.94,24,14.42,34.44,23.85,3.46,3.12,7.2,5.92,10.81,8.88,12.65,10.38,26.44,19,40.7,27a207.77,207.77,0,0,1,31,20.66c3.55,2.92,7.8,5.24,12.73,5.18a3,3,0,0,0,3.18-2.6,22.38,22.38,0,0,0-.14-6.94c-1.83-7.56-3.92-15-6-22.53a179.56,179.56,0,0,1-6.08-36.75c-.23-3.24.45-6.48,2.63-8.71,4-4.12,3.25-8.21,1-12.67q-13.5-27.19-27-54.41c-2.08-4.19-4.5-8.23-6.26-12.54-7.35-18.07-17.42-34.71-26.58-51.85-11.39-21.32-24.36-41.62-37.63-61.75q-20.55-31.18-41.43-62.13C588.76,1124.05,586.2,1119.12,580.65,1117.25Zm421.84-675.51c-1.06,3.63-2.35,7.21-3.08,10.91-.33,1.69,1.13,2.79,2.75,2.94a5.42,5.42,0,0,0,2.18.09c3.13-1.16,4.13-4.32,6.06-6.62s4.31-4.47,7.39-5.14c1.33-.28,3.38-.16,4.2.67a53.64,53.64,0,0,1,5.51,7.23c1.08,1.53,2.09,2,3.37,1.93s1.53-3.58.81-6.22c-1.56-5.69-6.16-8.45-10.38-11.53-7,.79-12.47,5.95-19.56,6.21,1.09-3.74,3.66-6.47,6.19-9.27,1.55-1.73.44-3.85-2.34-4.78-5.47-1.85-9-.35-10.64,4.77a48.91,48.91,0,0,0-1.38,6.62c-.42,2.37,1.12,3.47,4.49,3.1A45.19,45.19,0,0,0,1002.49,441.74ZM931.73,551.68c.89-2.26.27-4.37-.75-6.39-6.39-12.72-12.76-25.45-19.25-38.12-.63-1.24-2-2.09-3.06-3.12,1-3,.58-5.87-.4-8.8-4.8-14.3-8.63-28.81-9.7-44A30.64,30.64,0,0,1,900.45,438l-.79.35c.61.49,1.64.88,1.76,1.47,1.25,6,2.43,12.09,3.48,18.16,5.36,31,16.92,59.78,33,86.64,7.19,12,16.29,22.68,25.75,33,4.83,5.29,10.22,6.5,16.79,5.18,2.59-.52,4.17-2.66,3.11-4.86-7.41-15.41-14.93-30.76-22.27-46.21-8.52-17.92-8.94-35.9,0-53.85a35.85,35.85,0,0,1,15.93-16.45c2.06-1.05,4.34-1.66,6.46-2.62s3.67-3.77,3.13-5.64c-2.12-7.46-4.33-14.78-8.6-21.51-6.26-9.84-12.89-19.43-19.22-29.2A113.73,113.73,0,0,0,934,375.23c-4.86-3.86-10-7.41-15-11q-21.74-15.66-42.08-33.08c-13.61-11.64-26.39-24-37.59-38.09-8.71-10.94-17.83-21.55-27-32.13a61.68,61.68,0,0,0-22.39-16.34c-8.53-3.66-17.66-6-26.61-8.55-3.8-1.1-7.71-.17-11.48.88-3.52,1-6.81,4.83-7.14,8.25-.29,3.1-1.05,6.24-.79,9.29,1.39,16.3,3.59,32.39,11.15,47.31q31.11,61.39,62,122.92c.35.69.79,1.34,1.17,2,1.77,3.18,4.28,4.58,5,2.79.55-1.36,1.59-2.84,1.4-4.11-2.3-15.38-3.39-30.87-4.68-46.34a39.35,39.35,0,0,1,3.35-20.41l-.74.32c.57.52,1.58,1,1.64,1.59,1.29,13,2.88,26.06,3.6,39.13.94,17.15,4.34,33.78,9,50.21,8.78,31.06,24.17,58.76,44,83.92a122.13,122.13,0,0,0,45.32,35.38,3.51,3.51,0,0,0,2.23-.28c1.3-.5,1.89-1.91,1.06-3.62-1.68-3.48-3.87-6.72-5.43-10.24-.89-2-1-4.39-1.41-6.6l9,3.38c.06,1.47-.27,3.12.27,4.39,1.8,4.22,4.18,8.05,5.14,12.76,1.18,5.79,4.75,7.54,12.26,7.7a2,2,0,0,0,1.92-3.11c-4.2-7.36-9.89-13.61-15.27-20.07C935,552.44,933.13,552.25,931.73,551.68ZM826.88,197.56l-.76.33c3.36,1.13,4.37,4.23,5.45,7,3.36,8.63,6.21,17.46,9.73,26,15.11,36.83,37.26,69.23,63.13,99.24a3,3,0,0,0,4.16.57,2.21,2.21,0,0,0,.75-1.76c-1.07-12.49-7.48-23.47-10.12-35.53a10.27,10.27,0,0,0-2.34-3.79c-.44-.55-1.33-.75-2-1.11l.37,1.07a16.44,16.44,0,0,0,1.06-9.1,173.24,173.24,0,0,1-3.75-37,89.53,89.53,0,0,0-3.87-27.48c-1.34-4.46-2.45-9-3.87-13.43-4.94-15.53-9.74-31.13-17.54-45.55-8.6-15.9-19.38-29.92-35-39.7-11.85-7.44-23.06-15.71-32.48-26.19A15.06,15.06,0,0,0,798,89.78c-4.61-3.76-12.56-3.83-17.4,0-5.51,4.39-10.21,9.38-13.06,16-9.93,23.16-15.63,47-13.33,72.43,1.41,15.54,4.16,30.75,9.76,45.32.75,2,2.83,3.65,4.69,4.88a23.43,23.43,0,0,0,6.42,2.59c19.2,5.55,35,16.49,48.09,31.25,7.21,8.11,13.87,16.71,20.7,25.16,12.74,15.76,27.47,29.52,42.83,42.65,2.43,2.07,5.5,2.75,8.64,3a4.31,4.31,0,0,0,2.27,5.07,2.76,2.76,0,0,0,3.76-.58c.17-.19-.4-1.43-.89-1.7-1.77-1-3.65-1.73-5.5-2.58,0-1.46.59-3.31-.08-4.31-2.56-3.83-5.5-7.41-8.34-11.05-19-24.45-35.9-50.16-48.46-78.62a225.33,225.33,0,0,1-11.86-35C825.67,202.28,826.62,199.83,826.88,197.56Zm601.29,413.61c-1.22,3.49-4.45,4.37-7.37,4.67-22.41,2.33-44.84,2.91-67.28.35-5.39-.62-10.83-.84-16.25-1.05-3.31-.13-5.84,1.65-8,4-1.69,1.79-2.48,4.81-1.27,6.23,1,1.11,2.28,2.62,3.5,2.68,11,.5,21.34,3.76,31.84,6.51a15,15,0,0,0,4.59.2c.58,0,1.6-.64,1.61-1,.17-5.38,3.9-6,8-5.89a225.25,225.25,0,0,1,30,2.28c.61.1,1.15,1,1.58,1.59.08.11-.51,1-.87,1.06-5.34.92-10.65,1.88-16.16,1.37-2.18-.2-4.48.7-6.69,1.27a3.77,3.77,0,0,0-1.78,1.41c-1,1.27-.51,2.82,1.39,3a164.63,164.63,0,0,1,18.28,3.13,90,90,0,0,0,41.5-.68,165.56,165.56,0,0,0,26.39-9.09c15.67-6.8,31.29-13.83,47.4-19.47,32.68-11.44,61.7-29,88.77-50.24a130.82,130.82,0,0,0,28.11-30.83c9.19-13.8,10.3-32.15-5.66-46.19-6.48-5.71-13.38-10.53-21.64-13.3-5.15-1.74-10.17-3.87-15.3-5.66-26.66-9.33-22.68-8.73-42,10.16-1.1,1.07-1.86,2.5-3,3.58a33.07,33.07,0,0,0-8.35,13.82c-2.61,8.14-5.52,16.19-7.77,24.43a43.37,43.37,0,0,1-15.25,22.81,284.79,284.79,0,0,1-67.49,41,173.15,173.15,0,0,1-31,10.05c-22.75,4.95-45.73,8.8-69.24,6.87a17.84,17.84,0,0,0-6.81,1,5.28,5.28,0,0,0-3.19,2.91c-.25.91,1,3,2,3.35,3.65,1.2,7.44,2.44,11.23,2.66,21.67,1.3,43.36,2.35,65-.33a19.56,19.56,0,0,1,11.32,2ZM337.92,1118.67l-.7.44c3.54,1.56,7.26,2.8,10.58,4.74,5.34,3.13,10.79,6.26,15.52,10.21,9.09,7.6,20.89,10.3,30.18,17.42,13.11,4.78,26,10.27,40.3,10.79,5.38.2,10.7,1.84,16.06,2.72.69.11,1.47-.48,2.22-.55,1.55-.14,1.29-.28.22-1.49-2.21-2.5-5.31-3-8.07-4.32-5.45-2.57-11.86-3.21-16.88-8.44a55.54,55.54,0,0,1,7.4.72c6,1.43,11.76,4.11,18.16,3.8,5.48-.27,8.59,1.93,9.1,7.85.2,2.38,3.16,3.56,5.37,3.81,3.82.42,7.75-.1,11.6.23a28,28,0,0,0,15.68-3.52,65.75,65.75,0,0,0,8.17-4.48c10.78-7.76,22.73-13.44,34.31-19.79,2.71-1.49,5.36-3.11,7.94-4.8,1.55-1,2.29-2.6,1.49-3.59a6.71,6.71,0,0,0-3.68-2.51c-4.58-.73-9.43-.35-13.82-1.64-20.09-5.88-40.68-10.56-58.39-22.61-10.5-4-18.34-11.5-25.7-19.58-.86-1-.76-2.79-1.11-4.22l-.56.33c4.81.65,8.76,3.1,12.32,6.18,11.94,10.35,25.64,17.42,40.65,22.07q21.16,6.55,42.36,13.08c5.27,1.64,10.69,1.46,16.13,1.75,8.19.42,13.34-3.12,16.41-10.3,1.23-2.86,2.27-5.79,3.23-8.75,1.3-4,.92-7.89-2.33-10.67-12.06-10.33-20.39-23.33-27.48-37.29-5.28-10.4-10.71-20.73-15.93-31.17-4.59-9.19-11.07-16.77-18.58-23.7a35.9,35.9,0,0,0-23.19-9.75c-27-1.2-52.62,3.58-75,20.12-5,3.69-10,7.34-15.15,10.84-15.42,10.55-31.24,20.27-49.37,25.69-14.93,4.48-29.93,8.34-45.61,9-4.65.19-9.29.69-13.93,1.12-11,1-21.17,4.79-30.85,10-8.57,4.57-14.84,11.22-17.95,20.54-2.7,8.12-5.36,16.26-7.79,24.46s-4.18,30-3.65,36.86c1,13,8.18,21.81,19.37,27a103.68,103.68,0,0,0,31.21,9.16c4.62.57,9.3.91,13.82,1.93,15.28,3.47,30.86,4.22,46.31,3.61s31-.94,46.54-1.34a248.87,248.87,0,0,0,68.75-11.33,13.41,13.41,0,0,0,3.9-2.38,2.13,2.13,0,0,0,.64-1.8,2.74,2.74,0,0,0-1.31-1.82c-2.9-1-5.84-2.4-8.84-2.58-5.44-.33-10.87-.38-16.13-2-14.08-4.46-28.1-9.13-42.26-13.35-9.15-2.73-16.15-9.2-24.6-13.15-9.93-4.63-18.24-11.75-26.06-19.34C338.09,1122,338.24,1120.08,337.92,1118.67Zm892-547.84c-2.76,7.26-4.51,15.14-8.5,21.64-7.28,11.86-14.5,23.85-23.93,34.29-14,15.55-27.31,31.83-42.7,46.13a43.93,43.93,0,0,0-3,3.5c-1.1,1.26,0,5.56,1.63,6.14a22.07,22.07,0,0,0,4.38,1.51,49.41,49.41,0,0,0,31.52-5.76c19-10.7,37.12-22.7,52.75-38.11,3.82-3.76,7.6-7.56,11.5-11.24.37-.35,1.49.08,2.27.15l-.45-.71a32.78,32.78,0,0,1-6.46,12.3c-9.35,10.48-19.28,20.27-31.49,27.51-4,2.34-8.35,4.17-11.18,8.18-1.08,1.53-1.29,2.82.17,4.14a3.52,3.52,0,0,0,2,.84,16.14,16.14,0,0,0,4.56-.14c12.92-3.07,24.87-9,37.38-13.19,25.7-8.73,46.82-24.07,65.57-43.25a53.78,53.78,0,0,0,13.39-24.19,39,39,0,0,0-1.44-25.17,65.69,65.69,0,0,0-15.3-23.19,172,172,0,0,0-60.59-38.34c-25.67-9.55-44.24-12.11-80-14.09-7.75-.43-15.53-.5-23.29-.34a109.35,109.35,0,0,1-36.69-5.83q-18.85-6.19-37.63-12.65c-11.05-3.78-22.12-7.5-33.05-11.62-11.87-4.47-24.42-4.44-36.71-6.09-3-.4-6.21.2-9.3.58-11.36,1.38-20.87,5.85-26.83,16.25-1.54,2.69-3.57,5.1-5.15,7.77a10.69,10.69,0,0,0-1.41,4.4c-.87,10.92-.91,21.7,4.42,31.85a180.31,180.31,0,0,1,9.92,21.12c4.89,13.21,11.71,25.45,18.05,37.94A92.63,92.63,0,0,0,1001.8,595c10,13.95,22.9,25.42,33.76,38.65a18.13,18.13,0,0,0,3.6,2.94c7.56,5.45,15.07,11,22.77,16.24,1.84,1.26,4.27,1.75,6.5,2.35,1.74.47,3.15-.13,3.62-1.41a2.88,2.88,0,0,0-.28-2.24c-9.83-14.08-17.93-29.13-25.33-44.59a169.42,169.42,0,0,1-13.37-42.14c-.55-2.89.49-6.08.8-9.13l-.71.3c3.55,1.06,4.45,4.28,5.06,7.15,5.22,24.62,15.53,47.11,28,68.74a128.51,128.51,0,0,0,21.31,27.53,29.25,29.25,0,0,0,11.67,7.4c9.63,3,19.31,5.93,28.93,9,5.74,1.84,11,.37,15.39-3A204.71,204.71,0,0,0,1162.83,656c6.59-6.55,12.39-13.89,18.81-20.63A257.7,257.7,0,0,0,1214,592.9c4.08-6.57,8.17-13.14,12.49-19.56.68-1,2.59-1.19,3.93-1.76ZM633.81,920.92l-.78.34c2.39,1,3.44,3,4.16,5.24,7.23,22.35,11.2,45.21,10.59,68.76-.08,3.1-.63,6.26.81,9.14a12.18,12.18,0,0,0,3,3.35c.19.16,1.51-.48,1.82-1,5.35-9.41,12.4-17.87,15.84-28.36,6.07-18.47,12.24-36.91,18.2-55.42,1.9-5.92,2.47-12.07,3.09-18.3a267,267,0,0,0-1.91-67.31C684.8,812,681.17,786.6,679.13,761a202.13,202.13,0,0,0-3-20.75,43.9,43.9,0,0,0-7.22-17.09c-2.72-3.91-9.85-7-14.45-5.75a74.21,74.21,0,0,0-13.16,4.65c-9.75,4.84-19.3,10.11-28.91,15.24-13.06,7-26.39,13.25-40.53,17.84-7.37,2.39-14.38,5.91-21.55,8.93C531,772.2,517,786.56,504.61,802.83a83.38,83.38,0,0,0-13.2,24.49c-8.26,25.14-16.78,50.19-25.06,75.32-2.2,6.68-2.77,13.52-2.75,20.67.06,15.78,3.48,30.88,7.8,45.8,4,13.6,5.55,16.16,21.11,16.78,3.95.16,8,.39,11.2,2.67,6.26,4.51,13.05,8.31,17.91,14.72,5.19,6.83,10.26,13.63,14,21.39,5.79,11.9,11.88,23.65,18,35.41a111.11,111.11,0,0,0,20.73,28c3.29,3.26,9.63,3.76,12.88,1.08a105,105,0,0,0,21.59-24.32,11.31,11.31,0,0,0,2.07-4.09c1.22-8.44,3.1-16.9,3.14-25.37.16-31.17-2.48-62.09-11.36-92.19a454.89,454.89,0,0,0-17.2-48.32c-2.11-5-3.9-10.11-5.72-15.21a2.3,2.3,0,0,1,.7-1.89c.32-.29,1.56-.25,1.69,0,5.39,10.34,11.43,20.41,15.89,31.15,16,38.57,22.11,79.15,22.94,120.66.08,3.84-.49,7.69-.47,11.53,0,1.65,1.44,2.64,3.24,2.75a2.89,2.89,0,0,0,2.08-.51c2.57-2.86,4.85-6,7.51-8.75,5.17-5.34,7.34-11.87,7.76-19,1.42-24.14.54-48.12-5-71.78-1.24-5.3-2.37-10.64-3.12-16C632.65,925.57,633.49,923.2,633.81,920.92Zm-168-192.75-.64.29c2.51.95,3.18,3.11,3.62,5.44.36,1.94,1.26,2.86,2.54,2.32a3.75,3.75,0,0,0,1.53-1.66,22.27,22.27,0,0,0,2.62-11.23c-.12-4.75.43-9.56,2.79-13.57,7-12,11.74-25.39,22.91-34.78,5.92-5,11-11,16.28-16.69,4.69-5,4.18-11.54-1.13-16.51-1.7-1.59-3.58-3-5.39-4.46a13.32,13.32,0,0,0-8.39-3.49c-3.11-.05-6.22-.32-9.3-.66-7-.78-13.88-1.64-20.81-2.51-8.1-1-13.71-7.11-20.77-10.25a36.6,36.6,0,0,0-20.42-3.1,52.59,52.59,0,0,0-23.69,9.3c-18.12,12.92-37.67,21.49-60,23.61-6.28.6-11.82,4-16.44,8.31-8.6,8-16.25,16.74-19.76,28.35-1.12,3.72-2.35,7.43-3.78,11-4.44,11.14-4.36,22.78-3.84,34.44a52.19,52.19,0,0,0,6.1,22.33,21.85,21.85,0,0,0,9.48,9.85c7.57,3.92,15.22,7.89,22.11,12.85,11.42,8.22,21.28,18.16,28.33,30.55a12.18,12.18,0,0,1,1.65,4.33,6.83,6.83,0,0,1-.66,4.26c-.87,1.36-2.48.91-3.69-.71-3.26-4.34-6.7-8.56-9.7-13.08-5.24-7.92-12.14-13.84-19.93-19.26-11.55-8.06-24.41-13.57-36.6-20.35-4.7-2.61-10.1-4-15.27-5.71-8.1-2.6-15.51-.56-21.87,4.62a105,105,0,0,0-17.38,18.77q-4.18,5.6-8.48,11.1C223,811,206.6,828.53,186.27,842c-6.47,4.3-12.94,8.64-19.1,13.36-11.91,9.14-22,19.74-25.81,34.93-1,3.76-2.38,7.41-3.51,11.13a41.91,41.91,0,0,0,1.71,29.65c3.09,7.09,7.21,13.75,11,20.52a11.82,11.82,0,0,0,7.35,5.36c6,1.73,12.13,2.93,18,5,6.57,2.37,13.48,4.6,19.13,8.5,12.82,8.86,26.45,16.18,39.94,23.86,8.23,4.68,16.85,7.94,25.57,11.18a32.8,32.8,0,0,0,16.06,1.88c6.93-.93,13.9-1.64,20.86-2.28a53.54,53.54,0,0,1,6.93.16c1.72.06,3.39.94,3.39,2.58,0,1-1.72,2.64-2.83,2.79-6.9.92-13.85,1.39-20.77,2.21-12.6,1.48-24.72.58-35.88-6.24-2-1.2-4.31-1.79-6.47-2.67-7.91-3.2-16-5.89-23.12-10.94-7.57-5.35-16.75-8.13-23.86-14.42A69.37,69.37,0,0,0,185.3,972c-6.68-4.15-14-7.58-21.75-7.81-10-.3-20.4-.27-30.11,1.9-12.83,2.88-25.74,6.75-36.77,14.35a141.43,141.43,0,0,1-35.3,17.76c-7.59,2.56-13.53,7.93-18.08,14.25-4.65,6.47-6.83,13.85-3.36,22,4.35,10.24,10.06,19.13,19.94,25.09,6.63,4,12.35,9.55,19.09,13.29a168.29,168.29,0,0,1,19.24,13.1c16.16,12.14,32.8,23.3,50.79,32.72,20.36,10.66,41.44,17.39,64.45,17.81,2.54,0,6.47-2.61,7.2-5.14q3.86-13.45,7.55-27a28,28,0,0,0,.45-4.61c.38-4.12-1.94-8.09-5.47-9.26-13.29-4.42-26.6-8.79-39.86-13.29-1.77-.6-3.31-1.89-5.6-3.22,5.68-.29,9.95,1.82,14.42,3s9,2.49,13.48,3.8a82.76,82.76,0,0,0,18.36,2.87c6.32.38,10.5-2.1,13.7-6.93,2.58-3.93,5.13-7.76,9.31-10.24,14.16-8.45,28.81-15.4,45.78-15.72a94.09,94.09,0,0,0,11.61-.9c8.46-1.19,16.91-2.48,25.32-4,4.18-.77,6.7-3.14,6.58-8-.09-3.56,2.33-5.51,6-5.73s5.49-2.57,6.66-5.58c.84-2.16,1.24-4.48,2-6.65.23-.64,1.32-1.57,1.69-1.43,1.24.44,2.76,1,3.4,2,2,3.28-.19,7.78,2.91,10.86,4.62-2.48,8.83-6.19,14.87-4.69,1.27.31,3-.61,4.32-1.36s3.11-1.92,3.18-3a78.71,78.71,0,0,0-.39-11.58c-.25-2.78-4.86-5.11-7.12-3.65-2,1.25-3.94,2.5-5.77,3.93-2.65,2.08-5.89,3.34-8.38,1-3.09-2.86-7.1-2.85-10.36-4.77-3-1.77-6-1.17-9-.38-2.19.57-4.15,2.25-6.64,1.34a2.67,2.67,0,0,1-1.9-3.42c1.23-4.25,4.57-6.28,8.62-6.63,3-.25,6.11.53,9.17.76,1.82.13,2.86-.89,3.07-2.8s-.53-3-2.21-3.23c-2.44-.41-4-1.5-4.5-4.17a12.21,12.21,0,0,0-1.75-4.23c-1-1.6-5.19-1.57-6,0-1.08,2.05-2,4.22-3.1,6.23a3.19,3.19,0,0,1-2,1.11,1.7,1.7,0,0,1-1.38-.83c-1.17-2.74-.69-6.22-3.59-8.19A16.5,16.5,0,0,0,317,980.18c-1.53.14-3,.77-4.55,1a4.77,4.77,0,0,1-2.2-.31c-1.7-.57-2.53-1.74-2.15-3.25a3.44,3.44,0,0,1,1.43-1.74c4.11-2.74,9.19.06,13.51-2.3.72-.39,2.48,1.56,3.89,1.91,9.05,2.22,16.71-.39,23-7.1.21-.23-.29-1.47-.76-1.93-1.83-1.81-4.06-1.73-6.31-1a5.72,5.72,0,0,1-6.29-1.35,3,3,0,0,1,0-4.22c2.12-2.7,5.86-1.39,8.34-3.19a4.26,4.26,0,0,0,1.18-1.94c.61-1.67.06-3.06-1.63-3.38-3.92-.74-4.74-3-3.91-6.58.54-2.29.72-5.05-1.1-6.54-4.73-3.86-4.26-7.54-.84-11.9,1.24-1.57-1.43-4.69-3.64-3.88-6.23,2.3-12.33-.22-18.48,0-.31,0-.91-1.28-.94-2s.32-1.94.79-2.1c3.56-1.21,7.27-2,10.75-3.35a4.43,4.43,0,0,0,3-5.41c-.66-3.31.13-6.5,3.85-7.13,5.49-.93,8-4.06,8.73-9.27a11.15,11.15,0,0,1,1.95-4.05c.35-.53,1.43-1.13,1.83-.95a2.61,2.61,0,0,1,1.24,1.88c.21,2.85.2,5.72.28,8.62l14-3.4c-1.42,4.4-2.88,8.79-4.2,13.23-.18.61.2,1.92.63,2.08a7.14,7.14,0,0,0,4,.63c4.26-1.18,5.89-4.61,6.54-8.64.33-2-1-4.05-3.51-5.16-1.41-.64-2.89-1.14-4.33-1.7.37-2.47-.6-4.38-2.27-6.15-5.87-6.23-5.84-6.27-2-13.35,1.94-3.55,1.7-5.34-1.93-7.52s-5.79-4.85-5-9.3a13.8,13.8,0,0,0,0-2.32l-.82.44c3.25,2,7,3.28,9.55,6.41,1.58,1.93,3.89,2.34,6.28,1.78,3-.71,6-1.43,9-2.35,4.44-1.37,6.53-7.16,4-11.5-1.52-2.68-3.53-5.07-5.2-7.66-1-1.62-.3-2.72,1.89-2.89a3.6,3.6,0,0,1,2.26.39A53.24,53.24,0,0,1,382,846.4c2.89,2.94,2.71,7.08,4,10.67,1,2.79,4.72,3.67,7.79,1.95,2.39-1.34,3-3.26,1.66-5.51-3.51-6-3.15-6.79,3.88-8.55a23.59,23.59,0,0,0,4.38-1.42c3.47-1.64,5.78,0,7.88,2.51a8,8,0,0,0,1.68,1.61c1.49,1,3.66.23,6-1.86,1.41-1.28,1.74-2.72.56-4.16-1.45-1.77-3.32-3.24-4.56-5.14-.67-1-1-3.21-.42-3.92,1-1.15,2.82-.64,4.14.51.58.51,1,1.19,1.61,1.67,4.77,3.89,7,3.74,10.1.88,3.93-3.64,7.69-7.48,11.47-11.18,3.44.74,6.45,2,9.45,1.92,6.9-.11,13.69,0,20.38,2,1.26.39,3.65-.12,4.3-1.06,2.77-4,6.91-6.12,10.65-8.82,1.73-1.25,2.17-3.87,1.19-6.32a8.52,8.52,0,0,0-4.58-4.88l.49.83c1.21-1,2.31-2.54,3.64-2.76,5.76-1,10-4.29,13.14-8.75a135,135,0,0,1,21.87-23.86c5.38-4.65,6.52-10,4.92-16.61a109.23,109.23,0,0,1-1.87-13.68c0-.45.88-1.21,1.5-1.44a1.73,1.73,0,0,1,1.6.56c1.9,4.2,3.89,8.38,5.44,12.71,1.94,5.44,3.54,6.56,7.86,4.91,16.6-6.36,33.34-12.43,49.74-19.29,8.52-3.56,16.5-8.45,24.59-13,3.56-2,5.25-5.61,5.93-9.54a52.67,52.67,0,0,0,1-9.18c-.06-9.26,0-18.53-1.37-27.75-.44-3,.19-6.11.33-9.17l-.84.37c2.53.81,3.38,3,4,5.21,3.23,11.25,4,22.87,5,34.45.15,1.73,3.48,4.41,5,4.06a75.1,75.1,0,0,0,9-2.2c7.49-2.66,15-3.73,22.91-2,3.42.73,6-1.3,7.22-4.23,6.61-15.8,6-32.14,2-48.11-5.85-23.62-18.17-44.55-29.79-65.69a5.39,5.39,0,0,0-1.56-1.73,38.59,38.59,0,0,0-5.81-3.75,18.2,18.2,0,0,0-13.64-.65c-5.9,2-11.63,4.5-17.63,6.07-22.61,5.93-41.07,18.13-55.87,36.07-15.34,18.59-31.21,36.69-48.26,53.74a66,66,0,0,0-4.86,5c-9.45,11.72-16.7,24.77-17.84,39.88-1.52,20.12-2.13,40.4,4.73,60a26.29,26.29,0,0,1,1,6.77c0,.52-.73,1.29-1.31,1.6a2,2,0,0,1-1.83-.07c-4.45-3.68-4.26-9.88-7.6-14.21a4.05,4.05,0,0,0-4-1.69c-2.29.26-4.59.44-6.88.66-2-4.08,1.2-7.49,1.08-11.2-.1-3.1-.32-6.2-.62-9.29-.38-3.87-.95-7.71-1.32-11.58a82.55,82.55,0,0,1-.78-11.61C464,734.16,465.14,731.18,465.85,728.17ZM1220.18,405c-1.63,2.58-3.14,5.24-4.92,7.71-2.24,3.09-4.7,6-7.07,9-1.11,1.39-.85,2.58.73,3.64a3,3,0,0,0,4.24-.3,20.59,20.59,0,0,0,1.53-1.7c1.17-1.45,2.55-2.2,3.31-1.4,1.2,1.26.94,2.83,0,4.33q-2.4,3.89-4.61,7.89c-.28.51-.34,1.64,0,1.88,1.09.87,2.71,2.36,3.57,2.05,6.35-2.29,12.51-2.09,17.16,2.84,3.78,4,7.91,3.72,12.45,3.49a2.84,2.84,0,0,1,1.86,1c1.17,1.31.92,2.75-.74,3.83-2.53,1.65-5.35,2.93-7.63,4.86-.78.66-.43,2.8-.35,4.25,0,.3,1.19.92,1.64.78,2.89-.89,5.77-2.87,8.59-2.77,6.63.23,9.2-4.36,12.33-8.66a2.48,2.48,0,0,1,4.08-.31c.92,1,2,2.48,1.92,3.69-.38,7-7.15,11.9-6.71,19.28-2.27,3-4.85,5.91-6.74,9.17s-4.52,3.91-7.69,3.05a12.75,12.75,0,0,0-10.92,1.94c-2.41,1.59-3.77,5.59-2.35,8.15a39.29,39.29,0,0,0,5.28,7.39,5,5,0,0,0,4.12,1.18c2.15-.55,4.1-1.91,6.13-2.93l-.6.34c4.36,2.35,8.47,5.3,13.89,4.73,1.36-.14,2.83.76,4.24,1.18l-.39-.77c-.07.76-.19,1.52-.2,2.28-.06,5.15,0,5.09,4.1,5.7,3.76.55,7.51,1.23,11.27,1.81,10.53,1.65,21,4.42,31.62,4.64,16,.35,32,2.29,48,.39a27.25,27.25,0,0,1,13.49,1.75l-.33-.75c-1.1.95-2.07,2.47-3.33,2.77-12.19,2.9-24.63,3.32-37.07,2.93-13.2-.41-26.38-1.25-39.57-1.83a3.87,3.87,0,0,0-2,1c.43,1.23.77,2.72,1.68,3.52,5.87,5.09,11.78,10.14,17.85,15,13.88,11.07,23.8,24.47,25.78,42.7a19.89,19.89,0,0,0,.39,2.31,7.55,7.55,0,0,0,6.91,5.24c10.88.16,21.71.05,32.59-.78,27.49-2.08,53.74-8.26,78.17-21.33,11-5.87,22-11.67,32.85-17.8,9.51-5.39,18-12.24,26-19.68a27,27,0,0,0,7.64-11.53c3.15-9.62,6.41-19.2,9.45-28.86a43.66,43.66,0,0,1,9.39-15.92,261.69,261.69,0,0,1,28.49-27.52c6.55-5.49,12.92-11.22,19.11-17.12,10.2-9.7,19.45-20.15,24.37-33.7,5.83-7.36,5.06-16.1,4.62-24.56a24.46,24.46,0,0,0-3.49-11c-4-6.62-8.68-12.91-14.65-18.07a157.1,157.1,0,0,0-37.14-23.81c-17-7.81-34.91-13-53.91-14-8.63-.46-17.08.44-25.57,1.14-18.77,1.55-36.76,5.92-53.64,14.64-9.83,5.08-18.86,10.79-24.37,20.86a67.92,67.92,0,0,1-5.46,7.53c-19.19,25.84-42.62,47.26-68.88,65.68-3.18,2.23-6.65,4-10.65,4.33a3.16,3.16,0,0,1-2.08-.7c-.4-.37-.67-1.63-.46-1.8,6.1-4.83,12.28-9.55,18.42-14.33q7.36-5.72,14.67-11.5c14.13-11.14,25.57-25,37.44-38.29,9.34-10.5,21.9-29.3,30.6-46.57,4.87-9.67,8.06-20.21,11.71-30.46,4.57-12.8,1.55-24.58-5.81-35.43-7.1-10.45-16.12-19.27-27.33-24.88-14.74-7.38-27.62-17.25-40.69-27-13.85-10.32-25.93-22.26-35.33-36.83a78,78,0,0,0-17.24-18.87,32.88,32.88,0,0,0-7.77-5.05c-12.26-4.94-24.51-9.42-38.16-9.78-13.93-.37-27.89-1.67-41.8-2.78-11.8-.94-23.25,0-34.8,1.73a70.59,70.59,0,0,0-19.9,6.45c-12.27,5.86-21.61,15.12-29.94,25.5a75.35,75.35,0,0,0-13.89,26.66c-3.29,11.34-3.33,23.06-5.73,34.45.73,13.91-.69,27.87,2.59,41.74,3,12.82,3.3,26.11,3.63,39.29,0,.54-.84,1.29-1.46,1.57a1.85,1.85,0,0,1-1.75-.36c-.88-1.22-2-2.53-2.21-3.93-2.25-15.39-4.85-30.75-6.34-46.22-1.7-17.76-2.74-35.61,2.64-53.13,1.35-4.4,1.72-9.15,2.2-13.77a36.26,36.26,0,0,1,7.47-19.29c3.35-4.26,6.27-8.86,9.46-13.26a25.35,25.35,0,0,0,4.87-15.3c0-10.1-.32-20.1-3.65-29.91-3.16-9.31-9.48-15.79-16.53-22.09-5.14-4.6-11-5-17.33-5.27-4.61-.2-9.21-1.48-13.74-2.57a224.23,224.23,0,0,1-54.5-20.43,19.54,19.54,0,0,0-8.73-2.63c-3.1-.13-6.16-.84-9.26-1.16-18.67-1.94-35.48,2.43-49.91,14.83-14.9,12.81-27.58,27.23-35.12,45.77-2.92,7.16-7.54,13.64-10.3,20.84-5.29,13.78-10.73,27.61-10.89,42.75a20.34,20.34,0,0,1-.91,4.57c-3.63,14.46-3.63,29.21-3.48,44,0,3.88.24,7.76.17,11.63a228.36,228.36,0,0,0,5.6,55.44c6.1,26.72,14.89,52.35,29.14,75.92.8,1.33,1.45,2.76,2.22,4.11a26.9,26.9,0,0,0,7.59,8.72A70.88,70.88,0,0,1,962,394.85c2.79,4.53,5.6,9.26,10.77,11.46,5.55-.58,11-1.24,16.38-1.64a7.76,7.76,0,0,1,4.37,1c1.19.72,2.6,2.19,2.64,3.37a4.34,4.34,0,0,1-2.44,3.39c-2.14.58-4.52.22-6.8.29-5.72.16-8,4.19-5.11,9.55a54.21,54.21,0,0,0,5.38,7.48,2,2,0,0,0,1.84.43,2.66,2.66,0,0,0,1.46-1.52c2-7.44,2-7.58,7.85-7.37,1.52.06,3.26.39,4.52-.2,5.41-2.54,8.77.88,12.34,3.84,3-2.44,6-4.82,9-7.34a3.3,3.3,0,0,0,.65-2.15,2.45,2.45,0,0,0-2.46-2.9c-5.4-.43-10.83-.72-16.2-1.45-.82-.11-2.13-2.45-1.9-3.45,1.46-6.4-.4-10.33-7.07-12.11-1.95-.53-3.4-3-5-4.59-3.29-3.26-6.54-6.55-9.8-9.84l.49,1c2-2.14,4.07-4.31,6.16-6.41,2.82-2.83,2.18-7,4-10.17.9-1.53,2.38-2,3.66-1.25,1.87,1.15,3.58,2.57,5.36,3.87-1.2,1-2.41,1.9-3.59,2.88-4.7,3.89-5.48,9.45-2,13.88,3.37,4.26,11.15,6.47,16.71,4.61.51-.17.75-1.29,1-2,.63-1.63.28-2.94-1.09-3.67a18.8,18.8,0,0,0-2.21-.58c-5.35-2.06-5.9-3.22-4-8.21,1.21-3.13,1.06-4.26-1.26-5.47a20,20,0,0,0-4.3-1.17c2.17-4.41,5.14-7.41,10.64-6.62a9,9,0,0,0,4.38-.7c2.89-1.13-.54.77.55-2.15,1.41-3.76,3.7-4.54,6.33-2.07,1.09,1,1.76,2.51,2.85,3.54,1.67,1.56,5.08.84,5.22-1.15.28-4,1.4-7.19,4.8-9.71,2.22-1.64,2.82-4.93,1.57-5.86a8.55,8.55,0,0,0-3.79-1.32,30,30,0,0,0-4.54,0l.51.86c.83-2.13,1-5.24,2.59-6.21,5.82-3.67,6.78-10,9-15.43,2.56-6.2.58-11.79-4.83-16l.46,1a17.65,17.65,0,0,0,.62-9.15c-3.87-16.65-5.1-33.69-7.46-50.56a220.91,220.91,0,0,1-1.85-41.72c.79-15.42,1.65-31,8-45.55.36-.82,1.56-1.27,2.71-2.15-.89,6.55-1.93,12.63-2.5,18.76-.64,6.92-.88,13.89-1.24,20.83-.33,6.17-1,12.36-.8,18.52A459.21,459.21,0,0,0,1042,285c1.37,7.61,3.32,15.14,5.29,22.63a58,58,0,0,0,3.55,8.59c1.71,3.85,5,5.79,8.85,6.86a45,45,0,0,0,4.53.7c5.1.89,5.1.9,3.35,7.51l.77-.4c-6.5-2.21-12.89-4.87-19.9-5-1.85,0-3.16,1-3.09,2.79.12,3,.94,6,.85,8.95-.19,6.88,3.35,11.59,8.34,15.58,1.14.91,2.61,2.37,3.7,2.19,4.31-.71,9.46.78,12.36-4.27a37.3,37.3,0,0,1,4-5.58,16.26,16.26,0,0,1,3.5-2.94,3.6,3.6,0,0,1,2.18-.28c1.43.15,2.42,1.25,2.4,3.08,0,10.1-.1,10.15,8.49,13,2.18.74,4.34,1.57,6.51,2.35l-.38-.85c1,2,1.59,5,3.21,5.78,6.23,3.05,13.54,4.37,19.05,8.3,5.28,3.75,10.23,1.72,15.31,2.06,1,.07,2.55-1.79,3-3.06a21.51,21.51,0,0,0,.92-6.69c0-1.5-1.13-3.06-.95-4.5s1.37-2.53,2.25-3.68a2.72,2.72,0,0,1,1.66.75c1,1.2,1.69,2.58,2.58,3.84,2.75,3.92,5.31,4.26,6.22.56,1.85-7.52,6.74-7.35,12.47-6.31-.58,1.41-1.51,2.8-1.63,4.25s.41,3.87,1,4c1.59.34,2.76-1,3.19-2.54l1.26-4.45c3.56,1.26,7.14,2.5,10.69,3.8,2.92,1.07,4.88,3.17,3.92,4.12-2,1.91-4.21,1-6.39.49A19.89,19.89,0,0,0,1173,366c-1.83-.17-4.69,2.7-4.16,4.35.9,2.84,2.11,5.58,3.25,8.53,3.42-1.09,6.22-2.08,9.09-2.88,1.92-.54,3.37.42,3.07,2.29-1.07,6.85.82,11.56,7.78,14.32,4.06,1.6,5.85,7.07,10.92,7.66l-.53-.95c-1.77,4.16-3.38,8.38-9,8.71-1.26.07-1.66,1.93-.9,3.59,1.54,3.38,2.69,7,6.21,9.73,2.07-2,4.33-3.87,6.26-6,2.46-2.75,4.51-5.89,7.06-8.54.84-.88,2.69-1,4.1-1.08a29.63,29.63,0,0,1,4.49.3ZM770.84,1556.82c.08-.22.15-.45.23-.68,4.44,1.46,8.89,2.86,13.31,4.38,8.08,2.79,16.4,5.1,24.15,8.64a39.65,39.65,0,0,1,20.77,21.13c1.05,2.51-1.55,7.32-4.07,7.19-7-.36-14-.93-20.94-1.21-18.61-.73-37.23-1.36-55.57,2.94-.56.13-1.39,1-1.34,1.44a2.65,2.65,0,0,0,1.25,1.88c2.08,1,4.24,2.39,6.42,2.48a366.24,366.24,0,0,1,53.15,5.89c1.52.3,3.14,0,4.65.31,14.65,2.84,28.55,7.41,40.55,16.78,13.33,10.39,23,22.83,25.65,40.17,2.21,14.65,4.27,29.21,1.39,44-.6,3.08-.56,6.21,1.13,9a4.07,4.07,0,0,0,1.64,1.55c.5.23,1.59.22,1.8-.1q8.91-13.56,18.61-26.57a148.64,148.64,0,0,1,29.54-29.58q28-21.37,61.62-11.59c14.18,4.13,28.31,8.27,41,16.48,5.11,3.32,11.4,4.87,17.25,6.95,1.25.44,3.64.13,4.23-.72s.21-3.16-.54-4.31c-4.4-6.65-10.56-11.3-17.76-14.58-3.53-1.61-7.21-2.93-10.82-4.37-2.89-1.16-5.82-2.22-8.65-3.51a27,27,0,0,1-3.85-2.58c-3.9-2.68-3.71-9.78.48-11.89,18.77-9.43,37.38-19.2,57.25-26.2a96.85,96.85,0,0,0,21.07-9.92c5.26-3.42,9.77-7.66,12.51-13.45a2.36,2.36,0,0,0-.21-2.11c-1-1.07-2.2-2.68-3.33-2.67-7.12,0-13.62,2.58-20,5.45-8.52,3.82-17,7.68-25.68,11.2-17.28,7-34.71,13.68-52,20.8s-34.35,14.66-51.55,21.91A139.25,139.25,0,0,1,941,1646.1a39.19,39.19,0,0,1-6.89,1c-1.77.22-5-1.86-5.56-3.53-1.54-4.57-2.13-9.14.47-13.51,1.58-2.67,3.71-5,5.15-7.76,7.14-13.54,17.94-23.24,31.22-30.48,9.58-5.23,19.15-10.28,30-12.74,6-1.37,11.71-4.26,17.7-5.92,9.09-2.53,17.46-6.7,25.65-11.12a108.67,108.67,0,0,0,41.55-39.89,34.49,34.49,0,0,0,5.14-15.38c.08-1.12-1.12-2.48-2-3.48a2.57,2.57,0,0,0-2.23-.27c-8.91,3.18-16.56,8.49-23.93,14.26-8.56,6.72-17.23,13.31-25.69,20.16-10.88,8.83-22.26,17-33.82,24.86a123.77,123.77,0,0,1-24.62,13.18c-3.31,1.29-8.28-2-8.58-5.71-.12-1.54-.57-3.22-.13-4.6,2.81-8.89,4.71-18.3,9-26.44,8.31-15.75,17.5-31.06,29-44.9,12.66-15.29,28.35-26.61,46-35a278.4,278.4,0,0,1,34.69-13.76c15.88-5.13,29.43-14.12,42.62-23.74,7.52-5.49,14.24-12,19-20.22.75-1.28.07-5.91-1.2-6.44a8.65,8.65,0,0,0-4.4-.89,19.74,19.74,0,0,0-6.61,2.1c-6.78,3.8-13.49,7.73-20.08,11.85a568.43,568.43,0,0,1-51.14,28c-1.33.66-3,.64-4.51,1s-4.67-2.84-4.52-4.47a31.6,31.6,0,0,1,5.61-15.15c3.49-5.14,7.14-10.18,11-15.07,10.53-13.47,19.16-28.24,29-42.21a39.46,39.46,0,0,0,7.07-19.54c.1-1.24-1.06-2.75-2-3.86a3.06,3.06,0,0,0-4.18-.77c-2.55,1.72-5.46,3.25-7.29,5.59a199.54,199.54,0,0,0-12,17.15c-17.34,27.56-34.5,55.24-51.84,82.8-3.71,5.91-7.77,11.61-11.92,17.21-1.35,1.82-3.5,3.05-5.3,4.53-2.64,2.16-6.64,1.07-7.47-2-1-3.78-1.9-7.56-1.05-11.49,1.32-6.08,3.47-12.11,3.85-18.24.49-7.89,2.35-15.35,4.42-22.84,2.29-8.24,5-16.4,4.46-25.15,3-10.55,2.6-21.56,4.54-32.25,2.11-11.59,1.29-23.21.37-34.81a17.55,17.55,0,0,0-2.16-6.62,5.43,5.43,0,0,0-3.44-2.46,6.45,6.45,0,0,0-4.22,1.07,8.69,8.69,0,0,0-2.86,3.53,98.69,98.69,0,0,0-8.58,29c-2.85,23.85-4.9,47.8-7.57,71.67-2.6,23.12-4.39,46.31-7,69.41a48.72,48.72,0,0,1-6.31,19.85c-.85,1.42-5.2,2.11-6.24.73-1.37-1.83-3.09-3.64-3.74-5.74q-3.78-12.25-6.94-24.7c-7.64-30.21-17.83-59.6-29.13-88.59A223.3,223.3,0,0,0,911,1343.91c-1.63-2.52-4.32-4.37-6.61-6.44-.45-.41-1.67-.72-1.93-.46-1,1-2.6,2.33-2.56,3.47a57.51,57.51,0,0,0,4,18.12c5.26,13.8,10.54,27.62,15.11,41.65,9.16,28.11,18.47,56.14,29.82,83.46a157.19,157.19,0,0,1,7.08,22.21,103.84,103.84,0,0,1,2.27,39.34c-2,14.67-7.06,28.72-13.37,42.15a31.36,31.36,0,0,1-12.51,13.44c-2.15,1.3-7,.41-8.62-1.38-3.76-4.18-5.78-9.26-7.31-14.46q-5.62-19-10.69-38.19c-3.39-12.79-7.39-25.36-11.77-37.85-3.37-9.62-8.12-18.53-12.44-27.65a117.56,117.56,0,0,1-10.37-35.7A178.34,178.34,0,0,1,870,1415.4c.49-11.65.27-23.25-1.85-34.81A311.22,311.22,0,0,0,857.75,1340c-1.66-5.1-4.61-9.8-7.08-14.62-.91-1.78-2.32-2.19-3.54-1.2a2.79,2.79,0,0,0-1.06,1.87c.17,13.2,1.49,26.31,2.78,39.44,1,10,1.44,20.14,1.62,30.22.08,4.62-1,9.29-4.16,13.08-1.25,1.48-2.54,1.73-4.07.77a30.31,30.31,0,0,1-9.55-10c-11.1-17.82-22.4-35.52-33.33-53.46-7.69-12.61-16.7-24.39-23.28-37.72-5.16-10.47-11.08-20.56-16.19-31-6.18-12.68-14.64-23.86-22.4-35.5-1.68-2.5-4.4-4.33-6.73-6.37-.42-.36-1.62-.52-1.9-.23-1,1-2.54,2.36-2.5,3.53a43.24,43.24,0,0,0,4.65,17.91c9,18.09,16.87,36.79,29,53.18a103,103,0,0,1,8.36,14c5.42,10.4,12.35,19.76,19.18,29.23,7.27,10.09,14.67,20.13,21.28,30.65,10.34,16.46,20,33.33,30.06,50,3.2,5.33,6.51,10.59,9.8,15.88a505.15,505.15,0,0,1,34.87,66,39.37,39.37,0,0,1,2.54,8.92c.23,1.36-.56,3-1.14,4.38-.88,2.12-4.44,3.17-5.89,1.88-12.93-11.45-22.5-25.72-32.41-39.58a213.75,213.75,0,0,0-36.54-39c-.9-.75-2.87-.36-4.31-.23-.34,0-.75,1.15-.82,1.81-.46,4,.54,7.69,1.91,11.37,6.11,16.38,16.57,29.87,28.55,42.23,6.49,6.69,13.62,12.76,20.42,19.14,22.59,21.18,38.47,46.76,49.05,75.67,2.38,6.52,3.41,13.54,5,20.33,1.92,7.92.33,15.4-2.69,22.76-2.57,6.26-10,8.09-15.26,3.42a33.45,33.45,0,0,1-6.1-6.92c-3.75-5.92-6.66-12.39-10.73-18-19.15-26.6-40.27-51.39-66.73-71.17-5.6-4.18-11.06-8.56-16.41-13a71.28,71.28,0,0,1-25.58-45.76c-1-6.92-2.23-13.82-3-20.78-1.69-16.29-5.52-32.16-8.84-48.15A84.07,84.07,0,0,0,743,1397a13.17,13.17,0,0,0-3.35-3.07,2.91,2.91,0,0,0-4.19.21c-.49.51-1.15,1.19-1.15,1.8,0,3.07-.32,6.25.32,9.2,2.65,12.15,5.6,24.23,8.43,36.34,1.07,4.54,2.63,9,3,13.63.29,3.76-.72,7.66-1.51,11.42-.59,2.83-4.66,4.8-7.32,4.26a38.17,38.17,0,0,1-14.73-6.7c-8.83-6.35-17.54-12.88-26.6-18.87-6.45-4.26-13.5-7.62-20.13-11.63-15.3-9.27-29.37-20.25-43.19-31.57a214.21,214.21,0,0,0-37.14-23.93c-1.4-.73-2.79,0-3.9,1.26a3.74,3.74,0,0,0-.75,4.35,109.51,109.51,0,0,0,5.14,10.42c5.78,9.39,13.61,17,22.05,23.92,18.65,15.23,37.93,29.65,58.56,42.11,9.3,5.61,18.92,10.71,28.42,16,11.56,6.4,22.7,13.47,33.58,20.93a55.48,55.48,0,0,1,10.47,9.16c2.48,2.86,4.17,6.5,5.75,10,1.78,4-2.32,10.11-6.66,10.37a14.57,14.57,0,0,1-4.62-.07c-9-2.43-18-5-25.8-10.5-4.54-3.2-9.6-5.11-14.72-6.92-7.34-2.59-14.86-4.69-22.15-7.39-9.66-3.57-19.66-4.53-29.81-4.6-1.14,0-2.38,1.13-3.37,2-.22.19.2,1.6.69,2.09,3.86,3.88,7.95,7.44,13.13,9.53,4.33,1.75,9,3,12.8,5.62,9.81,6.68,20.93,10.21,31.83,14.3,8,3,16.23,5.39,23.29,10.58,2.44,1.79,5.62,2.64,8.54,3.71C748.87,1548.93,759.86,1552.86,770.84,1556.82ZM1279.55,682.4c-1,.92-.82,1.52.63,1.86,15.22,3.65,30.66,3.36,46,1.58a294.49,294.49,0,0,0,89.24-25.34,26.84,26.84,0,0,0,5.54-4,1.9,1.9,0,0,0,.07-1.79,6.93,6.93,0,0,0-5.89-3.18c-11.75-.33-23-3.06-34.26-6.12-7.45-2-15.31-2.45-22.86-4.13s-15-4.08-22.5-6.08a25.34,25.34,0,0,0-4.61-.64c-8.85-.7-17.07.56-23.5,7.51-1.05,1.13-2.37,2-3.48,3.08-8.45,8.23-18.34,14.3-28.85,19.49-5.56,2.75-11,5.74-16.48,8.68-1.82,1-2.17,2.33-1,3.53a2.69,2.69,0,0,0,1.94.88c7.56-1.59,15.15-3.11,22.63-5s14.93-4.3,22.44-6.25a5.38,5.38,0,0,1,4.07,1c1.06.82.24,2.33-1.66,3.07-4.33,1.7-8.68,3.33-13,4.94-3.64,1.34-7.35,2.49-10.91,4C1281.74,680,1280.72,681.39,1279.55,682.4Zm-332.4,885a19.8,19.8,0,0,0,.72-2.22c3.85-20,5.81-40,.46-60-4.44-16.56-10.42-32.56-18.92-47.52-.35-.6-1.49-1.37-1.88-1.2-1.21.52-2.86,1.24-3.24,2.29a33.33,33.33,0,0,0-2.21,9c-1.4,20.11-2.57,40.22-5.79,60.18-1.22,7.62-2.1,15.51-1.53,23.15.52,6.87,3.15,13.6,5,20.34,1.46,5.24,3.1,10.43,4.82,15.6a23.8,23.8,0,0,0,2.28,4c.82,1.45,5.22,1.7,6.29.38,5.42-6.64,9.16-14.3,13.23-21.75A13.36,13.36,0,0,0,947.15,1567.38Zm86.73-923.68c-.45-1.42-.5-3.19-1.41-4.21a80,80,0,0,0-8.28-8.08c-3.26-2.72-7.05-2.73-10.88-1.14-11.52,4.8-21.45,12.15-31.61,19.23-13.56,9.45-24.92,20.65-32.31,35.58-4.3,4.52-3.37,9.94-2.57,15.31.45,3,4,5,6.94,4.34,7-1.59,13-5.09,18.47-9.38,6.69-5.23,13.12-10.79,19.5-16.4,12.19-10.71,24.39-21.4,38.26-30a15.59,15.59,0,0,0,3.44-3C1033.86,645.44,1033.74,644.46,1033.88,643.7Zm213.9,146c.53-2.36,1.64-5.36,1.79-8.4.62-12.42.23-24.81-2.46-37-.83-3.75-1.8-7.72-3.78-10.92-8.21-13.28-17.14-25.91-32.51-32.08-3.55-1.42-6.53-4.23-10-5.75-2-.83-4.51-.58-6.75-.37-3,.29-4.63,2.68-3.36,4.49,4,5.72,8.45,11.16,11.83,17.21,9.83,17.64,18.91,35.68,25,55a88.44,88.44,0,0,0,8.28,19.18,35.6,35.6,0,0,0,2.93,3.59c1,1.2,5.55.92,6.29-.44S1246.61,791.65,1247.78,789.73Zm-566.91,181h0a90.57,90.57,0,0,0-2.8,8.84c-.28,1.27.4,2.84,1,4.14.13.33,1.54.42,2.21.18,16.06-5.58,32.17-11,48.12-16.91,12.06-4.45,20.68-13.34,28.23-23.39,2.22-3-.22-8-4.24-8.71-2.29-.37-4.63-1-6.9-.85-14,1-27.49,4.38-40.84,8.48a40.93,40.93,0,0,0-6.38,2.78C692,949,686.56,954.26,683.78,962,682.73,964.87,681.84,967.84,680.87,970.78ZM423,1221l-.49-.41c6.58-7.63,13.18-15.24,19.72-22.9a19.93,19.93,0,0,0,2.51-3.79,2.86,2.86,0,0,0-.06-2.13c-.23-.56-1-1.39-1.39-1.33-5.34.89-10.63,2.4-16,2.81-11.78.91-19.93,7.21-27.13,16-4.48,5.46-7.56,11.72-11.61,17.34-7.76,10.76-9.58,22.59-8.36,35.26.15,1.6,2,2.29,3.62,1.29,7.93-4.88,15.4-10.35,21-17.95C410.91,1237.08,417,1229,423,1221Zm97.52,15.66c2.2-8.08,4.5-14.61,4.33-21.77-.09-3.79,1-7.64,1.82-11.39,1.69-7.53,3.74-14.92,4.36-22.71a46.87,46.87,0,0,1,7.57-21.68,27.19,27.19,0,0,0,3.14-6.11c.43-1.3.39-3.68-.38-4.22-1-.69-3-.3-4.44.13-4.56,1.35-8,4.37-11.43,7.61-12.21,11.65-20.2,25.2-19.94,42.69a38.26,38.26,0,0,1-.77,6.89c-1.88,10.88-.34,21.56,2.14,32.1.68,2.89,2.68,5.48,4.21,8.12a3.65,3.65,0,0,0,1.87,1.27,2.77,2.77,0,0,0,3.6-1.6C518.29,1242.5,519.64,1238.89,520.56,1236.65Zm127.49-133.57,0,.09c8.07,2.65,16.11,5.38,24.22,7.89a39.71,39.71,0,0,0,6.84,1c2.49.3,6-3.72,5.46-6.14a23.2,23.2,0,0,0-1.12-4.45,37.47,37.47,0,0,0-19.71-18.69,75.3,75.3,0,0,0-17.68-5.35c-13.12-2.07-26.22-1.57-38.44,4.4-2.62,1.28-4.53,4-6.68,6.2-.46.47-1,1.62-.76,1.88.92,1.14,2,2.74,3.22,2.95,7.53,1.32,15.35,0,22.78,2.73C633.38,1098.26,640.74,1100.59,648.05,1103.08Zm-26.9-39.18c.21,1.46,0,3.3.76,4.28s2.63,1.14,4.05,1.44a5.25,5.25,0,0,0,2.27-.36c16.45-4.27,32.42-10.13,49-14a49.39,49.39,0,0,0,22.45-11.59,5,5,0,0,0,1.21-4.11,5.17,5.17,0,0,0-3-3.09c-6.71-2.09-13.73-1.43-20.61-1.66a74.88,74.88,0,0,0-29.45,5c-7.52,2.85-13.94,6.64-18.78,12.87C626.22,1056.25,622,1058.91,621.15,1063.9Zm621.57-376.17c-8.31-3.8-16.59-3.34-24.94-.5-2.33.79-5.45,3.27-4.85,4.16.83,1.24,1.82,2.83,3.08,3.24,9.73,3.16,17.77,9.2,26.06,14.82,10.84,7.35,21.53,14.93,32.37,22.3a19.22,19.22,0,0,0,10.82,3.66c1.3,0,2.69-1.16,3.89-2a3.16,3.16,0,0,0,1.12-4.15,38.67,38.67,0,0,0-2.85-6.27C1276.34,706.38,1260.59,695.65,1242.72,687.73Zm-393,946c-2.56.4-3.87,1.38-4,3.11a21.15,21.15,0,0,0,.29,6.75c7.6,28.34,15.5,56.6,21.38,85.38.29,1.41,1.55,2.62,2.31,4s1.07,1.26,1.8.09c2.61-4.18,1.07-8.93,2.12-13.37,3.43-14.48,2.69-29.1.34-43.66a70.3,70.3,0,0,0-17.62-37.16C854.35,1636.66,851.63,1635.18,849.71,1633.73ZM796.84,531.91c-.84,1.58-.69,3.23.9,4.08,2.66,1.41,5.43,3.17,8.31,3.52,18.24,2.17,36.75,2,54.67,7,3.49,1,7.54-.63,10.8-3,1.92-1.4,2.81-4.29,1.46-5.8-4.11-4.56-7.94-9.43-13.2-12.81-1.28-.82-2.67-2-4-2.06-9.16-.37-18.06-3.34-27.41-2.31a97,97,0,0,0-28.71,8C798.42,529.06,797.75,530.75,796.84,531.91Zm32.69,43.2a36.73,36.73,0,0,0,.27,4.89c.34,1.81,3.25,3.29,5.66,2.86,5.34-.94,10.8-1.54,15.95-3.13,15.58-4.79,31.32-8.75,47.52-10.79,1.68-.21,2.5-1.67,2.45-3.49,0-.71,0-1.69-.41-2.07-4-3.61-8-7.21-12.19-10.63a12.73,12.73,0,0,0-10.95-2.53c-16.27,3.23-30.77,10.49-44.31,19.79C831.73,571.24,830.7,573.56,829.53,575.11Zm176.1,37.95a37.27,37.27,0,0,0-5.78-.11c-19.19,2-35.6,10.49-50.63,22-2.35,1.8-4.05,4.65-5.47,7.32-.52,1,.51,2.89,1.1,4.26.27.61,1.27,1.39,1.83,1.31a52.81,52.81,0,0,0,9-1.8c7.36-2.45,14.43-6.35,22-7.58,12-2,21.55-8.52,31.62-14.23,1.18-.67,1.92-2.39,2.49-3.78C1012.5,618.67,1008.74,613.4,1005.63,613.06ZM494.31,1172.28a7.58,7.58,0,0,0-2.29,0c-5.76,2.1-11.5,4.27-17.23,6.44a24.19,24.19,0,0,0-13.35,12c-4.07,8.26-7.2,17-6.65,26.5.13,2.29-.08,4.6-.1,6.9-.05,3.74.94,5.58,2.72,5,1.43-.45,3.16-.67,4.17-1.62a58.14,58.14,0,0,0,13.5-18.41c4.44-9.94,11.07-18.31,17.29-27a35.45,35.45,0,0,0,3.16-6,3.49,3.49,0,0,0-.15-2.17A8,8,0,0,0,494.31,1172.28Zm605.87-458c4.16-10.58,3.33-21.11,0-31.63-2.35-7.49-7.73-11.15-15.41-11.62-1.81-.11-3.38.87-3.16,2.22,2.38,14.44,2.52,28.93,1.52,43.48-.21,3-.43,6-.46,9.06a3.14,3.14,0,0,0,2.78,3.29c1.4.22,3.29.52,4.24-.18a29.9,29.9,0,0,0,6.49-6.36C1097.93,720.05,1098.88,717,1100.18,714.26ZM773.87,1476c-1.28-1.78-1.78-1.41-1.91,1.07-.77,14.33,3.16,27.49,9.76,40a11.16,11.16,0,0,0,1.35,1.88,22.51,22.51,0,0,0,1.62,1.62c1.35,1.29,2.8,1.51,4.15.45a2.3,2.3,0,0,0,.84-1.75c-2.25-14.71-8.24-28.15-14.23-41.59C775.15,1477.05,774.4,1476.58,773.87,1476ZM1229.63,474.11c.3.56.59,1.76,1,1.81,5.09.66,10.2,1.38,15.33,1.6,3.25.13,5.53-2.19,7.11-4.81a9.93,9.93,0,0,0,1.05-4.35,13.14,13.14,0,0,0-.47-4.36c-.3-1-4.36-1.09-6.08-.1a12.42,12.42,0,0,0-3.68,2.51c-2.73,3.47-6.41,3.22-10.2,3.28A4.19,4.19,0,0,0,1229.63,474.11ZM384.56,901.87c.3,1.44.26,3.08,1,4.29a4.63,4.63,0,0,0,6,1.49,24.4,24.4,0,0,0,5-4.39c1.63-1.85-.92-6.78-3.49-7.26C389.63,895.36,385.43,898.26,384.56,901.87Zm-7.27,14.6c-4.06-1.45-6.54-.46-8.1,1.42-2.69,3.25-2.35,7.27.78,9.73,2.22,1.76,5.27,1.27,8-1.27,1.84-1.69,1.91-3.83,1.42-6.09A7.35,7.35,0,0,0,377.29,916.47Zm-12.63,50.42a6.55,6.55,0,0,0-2.29.21c-2.06,1-4.05,2.51-4.06,5,0,3.3,1.34,6.6,4.66,6.91,1.41.14,3.33,0,4.25-.91C370.63,974.91,369,968.33,364.66,966.89Zm28-35.62c-3.5-.75-6.66,3.53-5.68,7.7.47,2,3.28,4.56,4.87,4a8,8,0,0,0,3.66-2.49C398,937.28,396.33,932.05,392.65,931.27ZM408.71,919c-.21-1.49-.31-3-.66-4.46a4,4,0,0,0-5.42-2.55,5.77,5.77,0,0,0-3.69,5.26,5.51,5.51,0,0,0,2.95,5.62c1.55.91,2.93,1.14,4.21-.23A32.9,32.9,0,0,0,408.71,919Zm2.18-24.92c-1.09,3.1.62,6.94,3.35,7.38,3.32.53,5.61-1.19,6.4-4.88a5.23,5.23,0,0,0-2.41-5.84C415.91,889.21,412,891,410.89,894.06Zm741.35-469.3a40.94,40.94,0,0,0,1.19,5.66c.66,1.94,3.28,2.24,5.73.92,2-1.08,3.6-2.51,4-4.93a4.6,4.6,0,0,0-3-5.32A7.28,7.28,0,0,0,1152.24,424.76Zm-717.62,431a7.6,7.6,0,0,0,.44-2.24,13.12,13.12,0,0,0-1-4.4c-.68-1.35-4.11-1-6.2.46-3.53,2.41-4.09,6.49-1.36,10a3.62,3.62,0,0,0,5.77.16C433.18,858.5,433.86,857.11,434.62,855.77Zm687.75-438.85c.77-3-.74-6.77-3-8.06-2.06-1.17-7.06,1.37-7.27,3.71-.23,2.6,2.05,6,4.77,7.14A4.08,4.08,0,0,0,1122.37,416.92Zm-33.78,21.43c-2.18-1.37-3.55-1.29-4.94-.37a7.06,7.06,0,0,0-3.32,7.6,2.89,2.89,0,0,0,3,2.72c3.16.29,6.3-1.58,6.57-4.53C1090.08,441.83,1089,439.77,1088.59,438.35Zm-33.7-31a8,8,0,0,0-2.21.21c-2.09.82-4.08,2.05-4.15,4.5-.08,3,1.23,5.88,4.47,6.83a4.41,4.41,0,0,0,5.51-2.41C1060,413.46,1058,408.4,1054.89,407.35Zm-23.52-35.25c-1.49,0-3,0-4.45.17-1.68.16-4.08,3.57-3.83,5.06.44,2.52,3.45,5.09,6.54,5.58a6.65,6.65,0,0,0,6.09-2.14c1.28-1.34,1-5.09-.47-6.3A31.64,31.64,0,0,0,1031.37,372.1Zm29.4,75c-1.81-.9-4.15,0-5.85,2.24a3,3,0,0,0,.15,4.28,15.23,15.23,0,0,0,3.41,2.92c1.71.95,5.68-.28,5.9-1.81a8.15,8.15,0,0,0-.6-4.45C1063.18,449,1061.81,448.1,1060.77,447.06Zm12.53-35c.37,1.81.26,3.44,1,4.34a8.18,8.18,0,0,0,3.82,2,4.53,4.53,0,0,0,5.52-2.38,6.66,6.66,0,0,0,.23-4.16,4.36,4.36,0,0,0-5.24-2.86C1076.69,409.6,1075,411,1073.3,412ZM452.55,902.43a3.65,3.65,0,0,0-5,2.58c-.46,2.25-.24,4.36,1.42,6,.88.85,2.42,1.88,3.32,1.63a5,5,0,0,0,2.84-2.92C456.33,906.13,455.25,903.62,452.55,902.43Zm-45.79,40a28.77,28.77,0,0,0,1,4.83c1.4,3.38,4.39,3.87,7,1.38a5.39,5.39,0,0,0,1.59-5.9c-.85-2.85-2.72-4.59-4.53-3.7A40.29,40.29,0,0,0,406.76,942.41Zm-37.17-67.28a6.78,6.78,0,0,0-2.17-.54,3.32,3.32,0,0,0-2,.92c-2.37,2.63-2.57,4.69-.69,8.1.89,1.61,2.4,2.13,3.46,1.16C371.48,881.74,372,877.56,369.59,875.13ZM1141,444.93c-2.3,1.43-4.42,2.33-6,3.84-1,1,1,5.11,2.64,5.89,2.47,1.19,7.41-1.4,6.74-3.66C1143.85,449,1142.37,447.23,1141,444.93Zm31.49,18.95c-2.27-1.38-3.85-1.38-6.2.45a11.2,11.2,0,0,0-2.88,3.4c-.62,1.15,2.47,4,4.55,4.23a6.14,6.14,0,0,0,5.8-2.51C1175.35,467.51,1174.92,465.36,1172.51,463.88ZM385.09,973.66c-1.39.23-3,.11-4.1.79-1.58.95-1.95,4.21-1.11,6s3.46,3.46,5.18,3.16c2.08-.37,3.54-2.48,3.46-5C388.42,975.91,387.33,974.31,385.09,973.66Zm-7.25-16a26.51,26.51,0,0,0,2,5.47c1.13,1.92,6.66,0,7.71-2.38,1-2.2-1.49-7.1-3.73-7.43C382.22,953,379,955.12,377.84,957.62ZM371.38,990c-3.59-.68-7.57,2.65-7.1,6.27.15,1.12,1.57,2.22,2.63,3.06a2.8,2.8,0,0,0,3.95-.46c1.56-1.56,2.9-3.4,2.53-5.69C373.2,992.07,372.07,991.08,371.38,990Zm-5.17-48.19c-2.47-.74-4.23,0-5.36,2.15a7,7,0,0,0,2.68,9.41,2.9,2.9,0,0,0,3.77-.8,8,8,0,0,0,1.91-8C368.75,942.93,367.91,942,366.21,941.84Zm52.18-65.73c0,2.1,2.22,4.45,4.15,4.44,1.7,0,3.73-2.54,3.66-5-.06-1.82-1.3-2.63-3-2.82C420.44,872.43,418.35,873.88,418.39,876.11ZM393.22,995.92c-1.39-1.09-2.84-1.13-4,.2-1.65,1.91-1.74,4.61-.39,5.83s4.76,1.09,5.69-.44C395.66,999.66,395.2,997.61,393.22,995.92Zm-44.8-79.57a7.87,7.87,0,0,0-1.57-8.47,2.49,2.49,0,0,0-1.8-.86c-.7.06-1.76.5-2,1-1.35,3.73.24,8,3.5,9.51C346.94,917.72,347.79,916.78,348.42,916.35Zm97.06-27.1a4,4,0,0,0-2.83-5.38,3.24,3.24,0,0,0-3.79,1.36,4.32,4.32,0,0,0,1.05,5.92A3.78,3.78,0,0,0,445.48,889.25Zm13.34-49.68c-2-1.13-4.22-.39-5.59,1.89-1.21,2-.84,4.9.75,5.9,2.71,1.7,6.36.53,7.17-2.45S461.56,841.1,458.82,839.57ZM423.48,966.32c-1.2,1.83-2.67,3.47-3.38,5.39a4.89,4.89,0,0,0,.62,4.12c.65.77,2.62.95,3.82.65,3.27-.81,4.22-3.61,2.35-6.89C426.22,968.41,424.88,967.62,423.48,966.32ZM439.71,930a3.89,3.89,0,0,0,4.31-3.92,3,3,0,0,0-2.89-3,3.74,3.74,0,0,0-4.41,3.77A3.37,3.37,0,0,0,439.71,930Zm607.42-560.72a4.64,4.64,0,0,0,4,4.25c1.62,0,3.86-2.55,3.71-4.66-.12-1.73-1.34-2.51-2.95-2.7C1049.19,365.88,1047.12,367.17,1047.13,369.32Zm2.06,19.16c-1.16,2.49-.52,4.15,2,5.39s4.07.52,5.47-2.22c1.27-2.47.64-4-2.25-5.37C1051.75,385,1050.59,385.45,1049.19,388.48Zm-1,44c.7-2.54-.51-4.53-2.9-4.76-3-.29-3.88.31-4.76,3.15-.94,3-.12,4.38,2.66,4.55C1046.38,435.62,1047.51,434.91,1048.18,432.48Zm29.22-57.81c1.12-2.34.19-4.37-2.34-5.25a3.15,3.15,0,0,0-3.84,1c-1.45,1.83-1.07,4,.9,5.64S1076.3,377,1077.4,374.67Zm16,.47c-2.49-.85-4.84.5-5.11,2.94a3.89,3.89,0,0,0,3.56,4.62,3.37,3.37,0,0,0,3.44-2.07C1096.49,378.25,1095.7,376,1093.38,375.14Zm7.77,27.38c-.74-1.49-1.26-3.74-2.65-5.06-1.9-1.79-7,.22-6.93,2.53a5.5,5.5,0,0,0,1.72,3.47C1095.45,405.46,1099.65,405.12,1101.15,402.52ZM1093,425.33c1.25,1,2.72,2.62,4.55,3.46,1.34.62,3.64-2.33,3.88-4.58a3.74,3.74,0,0,0-4.14-3.79C1095.21,420.66,1092.81,423,1093,425.33Zm25-37.47a2.85,2.85,0,0,0-4.11.58c-1.55,1.94-1.54,5.23-.22,6.29s5,.33,6.11-1.23C1121.1,391.63,1120.34,389.15,1118,387.86Zm.6,54.47a3.26,3.26,0,0,0-.43-4.31,4.13,4.13,0,0,0-5.94,0c-1.65,1.92-1.41,4.77.48,5.78A4.46,4.46,0,0,0,1118.58,442.33Zm-11.33,38c2.59.22,4.78-1.33,4.72-3.63a3,3,0,0,0-3-3,4.13,4.13,0,0,0-4.64,3.75C1104.33,479.23,1105.53,480.2,1107.25,480.37Zm27.65-77.13c-.9,1.36-2.39,2.91-3,4.76-.49,1.49,2.37,3.69,4.47,3.89,1.75.17,3.85-2.45,3.56-4.43C1139.69,405.79,1137.08,403.26,1134.9,403.24Zm3.29-14.5a2.6,2.6,0,0,0,.38,3.92c2,1.88,4.63,2.35,5.83.88a8.32,8.32,0,0,0,1.67-3.75c.25-1.67-2.87-4.18-4.6-3.64C1140.22,386.55,1139.27,387.84,1138.19,388.74ZM1146,466a3.69,3.69,0,0,0-4.29,3.66,3.05,3.05,0,0,0,2.86,2.93,3.63,3.63,0,0,0,4.32-3.6A3.15,3.15,0,0,0,1146,466Zm16.85-20.36c-2.5-1-3.92-.42-5,2.21-1.07,2.46-.36,4.26,2.07,5.24s4,.28,5.27-2.4C1166.26,448.24,1165.63,446.86,1162.81,445.68Zm14.76,35.25c-2.25-1.09-4.47-.06-5.58,2.55a3.07,3.07,0,0,0,1,4,4.07,4.07,0,0,0,5.92-.86A3.69,3.69,0,0,0,1177.57,480.93Zm19.52-11.76c.83-1.35-.57-5-2.24-5.88s-3.9-.09-5.7,1.89c-1.1,1.2-1,2.62.27,3.9C1191.75,471.38,1195.79,471.3,1197.09,469.17Zm4.75,15.26a4.19,4.19,0,0,0-5.81,1.1,3.11,3.11,0,0,0,.48,4.14,3.52,3.52,0,0,0,2.11.76,4,4,0,0,0,4.17-4.06A2.6,2.6,0,0,0,1201.84,484.43Zm20.17.37c-2.2-.11-3.81,1.41-4.11,4.13-.07.67.35,1.95.74,2,1.29.28,2.89.57,3.94,0s2.54-2.23,2.39-3.19C1224.8,486.67,1223.07,485.79,1222,484.8Zm.85-33.22c-.12.63-.54,1.61-.3,1.82,1.09.92,2.33,2.2,3.58,2.28,2.07.14,3.39-1.94,3.5-4.85,0-.61-.67-1.82-.94-1.8a17.25,17.25,0,0,0-4.25,1C1223.82,450.24,1223.39,451,1222.86,451.58Zm-8.62,18.05c-.22,2,1.47,3.41,4.33,3.51,2,.07,2.79-1,2.35-3-.65-2.83-2.47-4.63-4-3.79C1215.78,467,1215.11,468.52,1214.24,469.63Zm-11.67-17.86c-.13,1.6,2.54,3.07,4.93,2.69,1.7-.27,2.67-1.31,2.46-3-.15-1.22-.36-2.9-1.19-3.49C1206.87,446.58,1202.78,449.26,1202.57,451.77Zm-17-1.58c.88-1.47,1.14-3.35-.17-4.19-.9-.59-2.83,0-4.1.48-1.74.71-2.17,2.12-1.29,3.4a4.11,4.11,0,0,0,1.73,1.28A3.05,3.05,0,0,0,1185.57,450.19ZM1175,414.78a14.74,14.74,0,0,0,3.55-2,2.82,2.82,0,0,0,0-4.21c-.83-.68-2.59-.41-3.89-.23-.62.08-1.14.94-1.72,1.43-1.5,1.28-1.56,2.66,0,4A9.59,9.59,0,0,0,1175,414.78Zm-14.9-7.25c.92-1.48,1.18-3.39-.16-4.23-1-.61-2.86.06-4.26.43a2.73,2.73,0,0,0-1.52,1.6c-.47,1.43.32,2.54,2,3.18A3.27,3.27,0,0,0,1160.09,407.53Zm-28,72.38c-.72-.29-1.73-1-2.09-.8a9.2,9.2,0,0,0-3,2.94,2.88,2.88,0,0,0,1,3.93c1.7,1,5.1-.45,5.83-2.5C1134.21,482.12,1133.51,480.88,1132.06,479.91Zm23.75-100.5c.44,1.18.55,2.71,1.38,3.45,1.36,1.22,4.35-.56,5.08-2.8.55-1.68-1.66-3.92-3.84-3.7A2.81,2.81,0,0,0,1155.81,379.41ZM384.22,880.63c-1.33.09-2.83-.17-3.94.37a7.28,7.28,0,0,0-2.88,2.94c-.6,1.06,2.7,3.69,4.57,3.5a2.79,2.79,0,0,0,2.69-2.78A30.83,30.83,0,0,0,384.22,880.63Zm753.63-449c-.27-1.37-.11-3.1-.89-4-1.29-1.49-5.12-.52-5.54,1.09-.54,2.08,1.24,5.4,3.16,5.25C1135.73,433.87,1136.76,432.46,1137.85,431.64Zm-37.45,20.68c-1.81-.6-3.8,1.7-3.5,4.15a3,3,0,0,0,3.12,2.82c1.67.15,2.92-.28,3.43-1.62a2.78,2.78,0,0,0,0-2.19A27.09,27.09,0,0,0,1100.4,452.32ZM1076,463.67c.83,1,1.47,2.38,2.53,2.91,2.26,1.11,4.31-.35,4.43-2.74.09-1.67-.37-2.87-1.71-3.13C1079.19,460.31,1076.34,462,1076,463.67ZM398,881.31a31.58,31.58,0,0,0,1.55,4,2.33,2.33,0,0,0,1.74,1.16,2.82,2.82,0,0,0,2.5-3.23,3.54,3.54,0,0,0-4.5-3.17C398.81,880.17,398.46,880.87,398,881.31Zm677.53-491a8,8,0,0,0-2,.68,4.68,4.68,0,0,0-2,5.48,8.72,8.72,0,0,0,1.06,1.9c1.19-.71,2.75-1.14,3.5-2.17C1077.41,394.34,1076.89,390.83,1075.56,390.33Zm-43.47,14.89a33.58,33.58,0,0,0,3.93-1.58c.59-.32,1.42-1.49,1.29-1.67a11.35,11.35,0,0,0-2.85-3,2.47,2.47,0,0,0-3.63,1.06c-.56,1.19-.36,2.8-.24,4.2C1030.62,404.57,1031.56,404.87,1032.09,405.22Zm-17.17-7.54c-.66.21-1.74.23-1.95.67-1,2.1-.13,3.8,1.37,5.42,1.29,1.4,2.44,1.63,3.67.16a3.33,3.33,0,0,0,.66-2C1018.68,399.51,1016.94,398.45,1014.92,397.68ZM451.71,940.36a3.16,3.16,0,0,0-4,.17,3.05,3.05,0,0,0-.78,1.69,3.25,3.25,0,0,0,.09,2.06c.72,1.15,1.54,2.61,2.66,3,.78.29,2.59-.69,3.09-1.58.59-1.06.39-2.64.28-4C453,941.25,452.16,940.82,451.71,940.36Zm19.49-85.67a15.17,15.17,0,0,0-2.3,1,6.21,6.21,0,0,0-2.56,7.34,3.49,3.49,0,0,0,1,1.85c.85.57,4.07-2.14,4.27-4A33.54,33.54,0,0,0,471.2,854.69Zm-48.34,66.55c-1.17-.48-3.55-.35-4,.39-.65,1-.36,3,.19,4.3a7.62,7.62,0,0,0,3,3.17c1.21.73,4-2.63,3.5-4.67A5.12,5.12,0,0,0,422.86,921.24Zm22.86-57.09a3.07,3.07,0,0,0-.05,4c1.55,2.05,4.68,2.85,5.52,1.28a8.18,8.18,0,0,0,.57-3.78,4.36,4.36,0,0,0-.95-1.93C449.57,861.82,447.09,862,445.72,864.15ZM407.29,984.91a2.38,2.38,0,0,0-3.72.42c-.75,1-.15,2.12,1.08,3.07s2.83,1.1,3.59-.39C408.61,987.29,408,985.61,407.29,984.91Zm22.44-78.71a7.29,7.29,0,0,0,1.1,1.93,3.19,3.19,0,0,0,2,1,2.59,2.59,0,0,0,1.89-1.21c.66-1.4,0-2.62-1.59-3.15S430.25,904.78,429.73,906.2Zm-.07,44.25c.71-.27,1.64-.34,2.08-.85a2.71,2.71,0,0,0-.3-4.14c-.25-.21-1.5.34-1.93.85A2.84,2.84,0,0,0,429.66,950.45ZM407,965.08c-1-.36-2.4.48-3.63.8.74,1,1.31,2.57,2.28,2.88s2.51-.45,3.79-.75C408.62,967,408,965.46,407,965.08Zm53.94-82.71c-.41.56-1.05,1.08-1.17,1.7a5.53,5.53,0,0,0,.41,2.08c.6-.36,1.4-.59,1.76-1.12a3,3,0,0,0,.3-2C462.16,882.73,461.36,882.58,460.91,882.37ZM444.7,964.89c-.31-1.85-1.29-2.82-3-2.74-.63,0-1.76.67-1.75,1a2.47,2.47,0,0,0,2.85,2.49A5.78,5.78,0,0,0,444.7,964.89Zm-1.19-133.54a2.47,2.47,0,0,0-2.06,2.93,2.68,2.68,0,0,0,.74,1.84c1.3.82,3.06-1.85,2.49-3.94C444.59,831.82,443.91,831.62,443.51,831.35Zm-1.14,152.88a4,4,0,0,0,1.58,0,3.92,3.92,0,0,0,1.52-1.19,2.59,2.59,0,0,0-.24-3.85c-.87-.77-2-.25-3,1.09A2.93,2.93,0,0,0,442.37,984.23Zm600.11-630.14c-.5.39-1.39.75-1.42,1.17a25.67,25.67,0,0,0,.23,3.9c.63-.27,1.65-.39,1.82-.83a13.12,13.12,0,0,0,.63-3.66C1043.76,354.51,1042.92,354.29,1042.48,354.09ZM410.89,859.43c-1.05.39-2.36.52-3.09,1.24a2.45,2.45,0,0,0,.25,3.81c.9.75,2,.16,3-1.15A2.77,2.77,0,0,0,410.89,859.43Zm657-429.34c-.63,0-1.52-.18-1.82.15a10.47,10.47,0,0,0-2,3.13c-.15.4.5,1.44,1,1.73,1.6.87,3.46-.65,3.74-3.16C1068.88,431.37,1068.2,430.71,1067.86,430.09ZM1122.79,458c-1.15.41-2.61.51-3.38,1.3a2.51,2.51,0,0,0,.46,3.95c1.07.76,2.27.06,3.25-1.3A2.72,2.72,0,0,0,1122.79,458ZM354.58,930.06a4.43,4.43,0,0,0,.59-2.28c-.08-.69-.5-1.81-.94-1.89a2.56,2.56,0,0,0-3.06,2.25c-.38,1.67.33,2.7,1.73,2.66A2.27,2.27,0,0,0,354.58,930.06Zm818.3-538.63c-.57.34-1.36.55-1.67,1.05a3,3,0,0,0,.52,4c.26.24,1.46-.22,2-.65,1.38-1.08,1.6-2.43.66-3.68C1174.09,391.76,1173.4,391.66,1172.88,391.43Zm7.38,37.3a2.57,2.57,0,0,0-2.26,3c0,.67.45,1.72.9,1.86,1.35.39,2.4-.45,2.79-2.05S1181.55,428.93,1180.26,428.73Z" fill="inherit"/><path d="M1154.49,182c-1.67,5.95-3,12-5.08,17.82-5.15,14-4.36,29-7.74,43.26.11,23.17-.49,46.32,3.32,69.36,1.14,6.88,3.87,11.3,9.88,14.26,1.57.77,1.46,2.56.14,4a3.21,3.21,0,0,1-1.84,1.07c-7,.59-11-1.95-12.08-7.7-5.22-28.23-7.7-56.57-4.75-85.3.64-6.19,1.09-12.29,2.94-18.22,2.54-8.12,5.06-16.26,7.82-24.32,1.75-5.09,3.92-10.05,5.9-15.06Z" fill="inherit"/><path d="M1319.07,247.16c.4,8.77-2.54,13.54-4.42,18.57a60,60,0,0,1-5.16,10.41c-9.36,15.18-18.31,30.65-28.47,45.28-12.39,17.86-26,34.84-41.65,50.06a12.5,12.5,0,0,1-4.07,2.11,2,2,0,0,1-1.81-.19,2.57,2.57,0,0,1-.52-2.15,14.09,14.09,0,0,1,2.41-3.92,419.66,419.66,0,0,0,52.36-68.21C1297.81,282.6,1309.08,266.82,1319.07,247.16Z" fill="inherit"/><path d="M982.33,381.08c-1.9,4.57-2.6,8.87,2.41,12.12.51.33.6,1.31.89,2-1.41.3-3.1,1.24-4.16.77a17.35,17.35,0,0,1-5.44-4c-8.45-9.19-14.65-19.89-19.37-31.32-8.53-20.64-16.73-41.48-21.47-63.39A345.4,345.4,0,0,1,929.9,263c-.41-3.62,1.3-7.48,2-11.22l-.67.27c.65.43,1.75.75,1.86,1.28,1.48,7.44,3.09,14.88,4.15,22.38a265.19,265.19,0,0,0,16.83,61.95c4,9.94,7.25,20.16,12.1,29.82,3.7,7.39,8.84,12.28,16.61,14.61Z" fill="inherit"/><path d="M1293.54,469.37a7.76,7.76,0,0,1,7-5.34c28.61.22,54.88-9.3,81.3-18.59,12.55-4.42,24.14-10.73,36.21-16.09,1.11-.49,2.71-.1,4,.15,1.7.31-.06,3.84-2.8,5.45-33.35,19.59-69.37,31-107.76,35.23a43.66,43.66,0,0,1-18.38-1.74Z" fill="inherit"/><path d="M1477,436.71a16.44,16.44,0,0,1,1,1.83c-9.55,6.72-20.17,11.39-31.06,15.3a493.07,493.07,0,0,1-64.47,18.63c-9,1.91-17.76,5.36-27.14,5.54a3.18,3.18,0,0,1-3.49-2.47c-.1-.38.79-1.29,1.4-1.53a53.11,53.11,0,0,1,6.46-2.25c17.92-4.72,35.94-9.05,53.75-14.13a464.35,464.35,0,0,0,54.68-18.95C1470.92,437.49,1473.7,435.93,1477,436.71Z" fill="inherit"/><path d="M1361.56,296.89c0,2.32.57,4.06-.06,5-7.52,11.68-16.42,22.33-25.31,32.95-14.84,17.75-29.57,35.62-46.74,51.23a27.68,27.68,0,0,1-5.84,3.53,1.76,1.76,0,0,1-1.68-.35c-.43-.55-.87-1.7-.59-2.07a57.31,57.31,0,0,1,5.82-7.06c15-14.52,28.17-30.62,41.66-46.48C1339.31,321.35,1350.32,309.48,1361.56,296.89Z" fill="inherit"/><path d="M1267.82,485.35c4.47,2.19,9,.62,13.58.45a3,3,0,0,1,1.91,1.08c1.15,1.27.73,2.5-1,3.53a40.78,40.78,0,0,0-4,2.4c-1.48,1.11-1.89,2.48-1.18,3.68a3.62,3.62,0,0,0,1.65,1.57c2.92,1,5.86,2.44,8.85,2.61,13.13.75,26.23,2.5,39.42,1.52a30,30,0,0,1,13.68,2.09l-.32-.74c-1.1.92-2.13,2.53-3.32,2.66-7.6.8-15.24,1.81-22.86,1.75-9.91-.08-20,.68-29.64-2.59-3.72-1.25-7.56-.4-11.38-.15-2.19.15-4.45-.86-6.67-1.34l.39.77c.22-.72.5-1.42.66-2.16,1.43-6.89,1.42-6.88-4.3-6.39a22.82,22.82,0,0,1-4.37.1c-.49-.05-1.1-.93-1.27-1.54a2.34,2.34,0,0,1,.35-1.86c2.9-3.48,8.26-3.65,10.65-7.86Z" fill="inherit"/><path d="M1415.88,528.4c-.41.66-.68,1.53-1.26,1.93a14.05,14.05,0,0,1-4,2.1,263.6,263.6,0,0,1-71.19,8.68c-4.51-.07-9-1.85-13.48-3.11-.82-.24-1.29-1.75-2-2.73a8.41,8.41,0,0,1,2.37-.65c26.42,1.57,52.54-1,78.49-5.77,3.87-.71,7.63-1.22,11.39.31Z" fill="inherit"/><path d="M1079,236.58c.53.58,1.49,1.14,1.51,1.73a462.6,462.6,0,0,0,6.52,67c1,5.66-.53,10.77-1.76,16-.43,1.81-1.82,2.56-2.65,1.92a2.45,2.45,0,0,1-.68-2.12c.88-3,1.51-5.86.9-9.1-2-10.68-4.07-21.37-5.4-32.14-1-8.44-1.06-17-1.42-25.53a40.45,40.45,0,0,1,3.78-18.1Z" fill="inherit"/><path d="M1261.17,295.86c-3.61,17.69-13.46,32.28-23.34,46.82-1.23,1.8-3.42,2.95-5.21,4.35,0,0-1-.81-.93-1.08.76-2.91,1-6.17,2.59-8.6,8.25-12.84,15.12-26.49,23.4-39.29.62-1,2.57-1.06,3.89-1.55Z" fill="inherit"/><path d="M1317.69,378.38c-1.67,3.41-2.81,7.25-5.11,10.16a119.65,119.65,0,0,1-30.83,27.07,13.25,13.25,0,0,1-11,1.32l.3.71c.31-.7.43-1.69,1-2.06,15.26-10.35,29.55-21.83,42-35.47.79-.86,2.7-.69,4.09-1Z" fill="inherit"/><path d="M1326,436c10-4.81,15.56-7.5,21.14-10.13.63-.3,1.79-.64,2-.36,1.33,1.43,1.16,3-.52,4-8,4.66-16,9.28-24,13.79-4.11,2.3-8.71,2.94-13.35,3.42-2,.22-3.19-.22-3.17-2.07a2.59,2.59,0,0,1,1-2C1316.26,439.8,1323.43,437,1326,436Z" fill="inherit"/><path d="M1099.68,340.77c-2.24.27-4.48.61-6.73.76a2.09,2.09,0,0,1-1.72-.86c-2.31-7.42-4-14.83,1.64-21.64a3.38,3.38,0,0,1,4-1.14,3,3,0,0,1,2.38,3.3,14.74,14.74,0,0,1-1.07,4.42c-2.22,5.32-.6,10.47.53,15.65Z" fill="inherit"/><path d="M1008.67,345.5a28.22,28.22,0,0,1-1.67,4.25c-1.6,2.68-3.9,3.28-5.71,1.66-2.27-2-4.55-4.06-6.74-6.18-2.49-2.4-2.38-4.48.33-7.93,1-1.2,2.23-2.2,2.94-3.52.8-1.51,1.76-2.82,3.42-2.59.41.06.7,2.45.67,3.76,0,1.52-.72,3-.65,4.54.11,2.33.92,4.42,3.47,5.28,1.45.49,2.88,1.05,4.32,1.58Z" fill="inherit"/><path d="M1160.36,273.18a10.26,10.26,0,0,1,1.53,1.72,4.2,4.2,0,0,1,.53,2.12c-.5,8.42-1,16.84-1.66,25.25a13.12,13.12,0,0,1-1.39,4.37,3.19,3.19,0,0,1-1.82,1.27c-.2.07-1-.76-1.06-1.24a62.61,62.61,0,0,1,4.69-33.83Z" fill="inherit"/><path d="M1105.74,352.7a25.27,25.27,0,0,1-4.24-1.57,5.57,5.57,0,0,1-2.74-5.86c.19-1.51.61-3,.92-4.5l-1,.49a8.75,8.75,0,0,0,10.59-.85,10.67,10.67,0,0,1,10.74-1.75l-.47-.76c-1.88,3.91-4,7.44-8.24,9.52-2.44,1.19-4.27,3.64-6.37,5.52Z" fill="inherit"/><path d="M1067.61,331.24c2.25-.19,4.5-.46,6.75-.49.46,0,1.14.79,1.36,1.36a4.11,4.11,0,0,1,.07,2.15,3.39,3.39,0,0,1-.94,1.93c-5.55,4.14-11.63,7.23-18.55,8.16-.84.12-2.22-1.85-2.93-3.1-1-1.67-.43-3.1,1.11-3.41,5.29-1.06,10.35-2.51,13.9-7Z" fill="inherit"/><path d="M980,360.59a7.52,7.52,0,0,1-2-1.11c-5.27-5.72-7.81-12.84-9.73-20.13-.52-2,.58-4.36.94-6.55l-.53.24c1.14.89,2.78,1.54,3.33,2.7,2.56,5.43,4.68,11.06,7.22,16.51,1.43,3.05.37,5.83-.18,8.73Z" fill="inherit"/><path d="M969.27,332.8c-1.06-.92-2.69-1.65-3.08-2.8-2.64-7.67-4.62-15.47-2.94-23.69l-.81.33c.68.3,1.71.41,2,.93A42.45,42.45,0,0,1,969.5,331a7.76,7.76,0,0,1-.76,2.09Z" fill="inherit"/><path d="M1167.32,359l-5-1.71c1-6.8-2.34-13.11-2.21-19.8,0-.55.75-1.24,1.33-1.58a2.23,2.23,0,0,1,3.5,1.26C1167,344.34,1169.93,351.41,1167.32,359Z" fill="inherit"/><path d="M1261.57,296.51c2.27-8.15,5.5-15.89,10-25.25.5,8.1-2.46,13.29-4.46,18.67-.75,2-2.35,3.74-3.75,5.44-.38.46-1.45.34-2.2.49Z" fill="inherit"/><path d="M1206.17,390.59c-5.53-1.2-8-6.58-12.63-9.14-1.65-.92-1.59-2.48-.47-2.95a3.47,3.47,0,0,1,2.18-.16c2.88.83,5.75,1.74,8.58,2.73,1.78.63,2.9,3,2.47,5.64-.24,1.47-.68,2.91-1,4.37Z" fill="inherit"/><path d="M1125.45,349.46c-1.8,4.85-3.57,9.72-5.43,14.54-.62,1.61-4.57,1.33-5.74-.42-.38-.56-.82-1.49-.6-2a27.73,27.73,0,0,1,9.94-11.34c.5-.35,1.46,0,2.2-.06Z" fill="inherit"/><path d="M1026.19,292.87c2.43.66,3.53,2.63,4.6,4.65,1.75,3.31,2.7,7.18,6.36,9.17l-.46-1c-.82,2-1.55,4-2.52,5.87a2.63,2.63,0,0,1-1.82.86c-4.72-5.74-8.5-11.8-5.67-19.73Z" fill="inherit"/><path d="M1161.18,272.84c-.65-1.24-2-2.55-1.85-3.72.59-5.92,1.94-11.67,6.23-17.77-.44,8.42-3.24,15-5.2,21.83Z" fill="inherit"/><path d="M1026.68,292.65c-1.1-1-2.55-1.73-3.23-2.93a15.5,15.5,0,0,1-1.34-13.23l-.68.28c.65.27,1.5.36,1.9.84,3.76,4.54,5.37,9.52,2.86,15.26Z" fill="inherit"/><path d="M1125.82,350.21c1.12-1.83,2.1-3.76,3.38-5.48,1-1.34,2.45-1.35,4-.68s2.26,1.78,1.48,3.14c-.65,1.14-1.8,2.58-2.9,2.74-2,.29-4.18-.27-6.28-.47Z" fill="inherit"/><path d="M1238.2,402.16a2.93,2.93,0,0,1,2.71-3,3.48,3.48,0,0,1,3.93,3.63,2.8,2.8,0,0,1-2.78,2.86C1239.58,405.89,1238,404.41,1238.2,402.16Z" fill="inherit"/><path d="M1253.18,388.75c-.51.41-1.19,1.26-1.49,1.14-1.14-.44-3.08-1.24-3.06-1.84a47,47,0,0,1,1.25-8.31c.12-.53,1.09-.88,1.67-1.31.36.59,1,1.16,1.06,1.78C1252.89,383.05,1253,385.9,1253.18,388.75Z" fill="inherit"/><path d="M1439.15,417.73c1.59-1.07,3.36-2.29,5.18-3.45.58-.36,1.7-.91,1.86-.74a2.34,2.34,0,0,1-.46,3.8,51.69,51.69,0,0,1-5.61,3.32c-.26.14-1.21-.37-1.3-.71A6.68,6.68,0,0,1,1439.15,417.73Z" fill="inherit"/><path d="M1416.23,529.16c2.71-4.2,7-4.79,11.42-4.86.52,0,1.19.71,1.52,1.25.14.23-.3,1.1-.69,1.32-4,2.3-8.13,3.26-12.6,1.53Z" fill="inherit"/><path d="M1318.14,379.11c1.47-3.23,2.92-6.47,4.46-9.68.15-.32.83-.4,1.27-.6a5.59,5.59,0,0,1,.37,2.06c-.9,3.58-2.36,6.75-6.55,7.49Z" fill="inherit"/><path d="M1271.46,476.75c.48-1.47.86-3,1.46-4.41,1.28-3,1.68-3.24,5.46-2.74,1.53.21,3,.64,4.55,1l-.34-.8c-2.94,3.83-7,5.58-11.64,6.07Z" fill="inherit"/><path d="M1268.62,484.93a16.16,16.16,0,0,1-4-1.43c-1.06-.72-2.51-2.19-2.35-3.06a4.71,4.71,0,0,1,2.91-2.82,34.16,34.16,0,0,1,6.29-.87l-.51-.91q-1.56,4.76-3.13,9.51Z" fill="inherit"/><path d="M1249.37,498.39c-2.68-1-5.62-1.83-6.84-4.7-.41-1,.16-2.72.86-3.69.87-1.19,2.36-.81,3.49.61a4.42,4.42,0,0,1,1,1.87c.38,2.07.63,4.16.92,6.25Z" fill="inherit"/><path d="M1249.91,413.48c.8-1.37,2-1.7,3.69-1.08a3.34,3.34,0,0,1-.62,6.44,2.42,2.42,0,0,1-1.83-1.23A28.93,28.93,0,0,1,1249.91,413.48Z" fill="inherit"/><path d="M1232.48,421.5c-.59.33-1.18,1-1.75.94-2.61-.1-4-1.6-3.61-3.76.3-1.61,1.28-2.55,2.72-2.42a2.33,2.33,0,0,1,1.66,1.2A29,29,0,0,1,1232.48,421.5Z" fill="inherit"/><path d="M1229.52,386c.37-1.89,3.74-3.61,5.27-2.55.45.31.57,1.31.58,2a2.56,2.56,0,0,1-2.63,2.91A3,3,0,0,1,1229.52,386Z" fill="inherit"/><path d="M1220.17,364.17c.5.36,1.21.61,1.46,1.1.88,1.77-.68,4.38-2.87,4.65-1.76.21-3.21-.72-3-2.42.11-1.09,1.42-2.17,2.4-3C1218.54,364.09,1219.47,364.26,1220.17,364.17Z" fill="inherit"/><path d="M1214.24,393.47c-2.61,4.67-6.78,6.18-11.86,5.86l.53.95,3.26-9.69-.91.49,9.51,3.26Z" fill="inherit"/><path d="M1189,341.67c.12-1.77,1-2.83,2.76-2.91a3.65,3.65,0,0,1,2.11.57c1.71,1.17,1.68,2.57-.21,3.46a13.33,13.33,0,0,1-4.15.84A12.93,12.93,0,0,1,1189,341.67Z" fill="inherit"/><path d="M1148.61,343.79c1.79,1,2,3.36.41,5.19a2.23,2.23,0,0,1-1.72.64c-2-.3-3.52-3.49-2.43-5.15C1145.7,343.22,1147.16,343.13,1148.61,343.79Z" fill="inherit"/><path d="M1127.37,331c1.81-2.93,4.3-3.53,7.16-1.79,1.48.9,1.44,2.37.57,3.85s-2,2.19-3.26,1.33a62.28,62.28,0,0,1-4.92-4.14Z" fill="inherit"/><path d="M1097.75,360.75l8-8.05-.8.24c.49.56,1.2,1.05,1.42,1.7,1.71,5,0,7.32-4.68,6.36-1.45-.3-2.87-.73-4.31-1.1Z" fill="inherit"/><path d="M1079.8,236.23c-4-2.66-2.45-6.13-1.27-9.48.21-.6.9-1.06,1.44-1.49.06,0,.9.53.86.73-.56,3.54-1.2,7.06-1.83,10.59Z" fill="inherit"/><path d="M1009.05,346.35c1.62-2.62,3.54-4.85,6.94-5,1.8-.07,2.66.89,2.34,2.71-.12.72-.41,1.75-.93,2-3,1.38-5.88.55-8.73-.57Z" fill="inherit"/><path d="M931.17,237.35c.78,1.2,2.06,2.34,2.23,3.63.51,3.85-.59,7.53-2.13,11.06l.67-.27c-2.25-1.41-2.63-3.64-2.19-5.91.56-3,1.49-5.92,2.27-8.87Z" fill="inherit"/><path d="M932,237c-2.71-2.41-2.29-5.39-1.29-8.3.33-1,1.52-1.65,2.32-2.46a8.61,8.61,0,0,1,.13,2.25c-.61,3-1.33,5.91-2,8.87Z" fill="inherit"/><path d="M962,284.79c.39.2,1.08.39,1.09.61a4,4,0,0,1-.31,2.2c-.35.59-1.13.92-1.72,1.36C961.33,287.57,961.64,286.18,962,284.79Z" fill="inherit"/><path d="M963.25,306.31a34.93,34.93,0,0,1-2-3.95,3.11,3.11,0,0,1,.28-2.2c.29-.59,1-1,1.53-1.46a12.58,12.58,0,0,1,.69,3.6,22.24,22.24,0,0,1-1.3,4.34Z" fill="inherit"/><path d="M984.84,333.86c.23.7.86,1.75.61,2.06a2.65,2.65,0,0,1-4.06.3c-.49-.43-.95-1.76-.7-2C981.88,332.85,983.37,332.85,984.84,333.86Z" fill="inherit"/><path d="M979.11,361c1.63,1.39,2.78,3,2.56,5.29a2.79,2.79,0,0,1-.84,1.69c-1.47,1.29-2.63.74-2.42-1.37a36.29,36.29,0,0,1,1.62-6Z" fill="inherit"/><path d="M1019.4,255.51c-.5-.51-1.27-.94-1.42-1.54a14.09,14.09,0,0,1-.41-4c0-.5.84-1,1.3-1.45a14.43,14.43,0,0,1,.51,3.27,28.56,28.56,0,0,1-.85,4.15Z" fill="inherit"/><path d="M989.5,351.82c.35.63.93,1.21,1,1.82a2.39,2.39,0,0,1-2.39,2.82c-.32,0-1-1.11-1-1.73A2.68,2.68,0,0,1,989.5,351.82Z" fill="inherit"/><path d="M1020.79,265.94c-2.36-1.35-2.6-3.57-2.33-5.92.18-1.52.62-3,.94-4.51l-.87.39a4.83,4.83,0,0,1,2.7,4.7,43.38,43.38,0,0,1-1.22,5.69Z" fill="inherit"/><path d="M1020,266.29c4.62,2.93,3.06,6.7,1.42,10.48l.68-.28c-2.23-1.45-2.59-3.68-2.33-6a41.85,41.85,0,0,1,1-4.51Z" fill="inherit"/><path d="M1012.12,315a3,3,0,0,1,4-.22c.47.36.9,1.63.65,1.95a2.26,2.26,0,0,1-3.76.18A6,6,0,0,1,1012.12,315Z" fill="inherit"/><path d="M1031.91,325l1.1,2a23.31,23.31,0,0,1-4-.17c-.41-.08-1-1.57-.87-1.7A2.74,2.74,0,0,1,1031.91,325Z" fill="inherit"/><path d="M1029.4,342.39c-.83,2-1.6,4-2.56,5.86-.29.56-1.52,1.3-1.68,1.17a2.65,2.65,0,0,1-.68-3.77c1.25-2,3.19-2.59,5.43-2.4Z" fill="inherit"/><path d="M1080.81,210.23c-.37,1.34-.74,2.69-1.12,4-.26-.36-.74-.72-.73-1.08a4.55,4.55,0,0,1,.47-2.13C1079.65,210.65,1080.33,210.5,1080.81,210.23Z" fill="inherit"/><path d="M1107.93,322c1.2,1.31,1.42,2.68.46,4-.35.49-1.56,1-1.84.79a2.37,2.37,0,0,1-.36-3.75A6.51,6.51,0,0,1,1107.93,322Z" fill="inherit"/><path d="M1120,338.66c.52-4.41,2.32-7.58,7.35-7.64l-.45-.75c-1.15,3.81-1.82,8.08-7.37,7.63Z" fill="inherit"/><path d="M1175.35,324.23c.58-.33,1.17-.94,1.73-.92,1.57.07,3.1,1.27,2.64,2.53s-2.43,1.26-3.7.3C1175.57,325.8,1175.56,324.88,1175.35,324.23Z" fill="inherit"/><path d="M1177.54,349.78a3.12,3.12,0,0,1,4.13-.1,2.15,2.15,0,0,1,.66,1.91,2.44,2.44,0,0,1-1.88,1.11A2.85,2.85,0,0,1,1177.54,349.78Z" fill="inherit"/><path d="M1199.93,364c-1.43-.53-2.85-1.09-4.29-1.6-1.74-.61-2.59-1.58-2-2.74.19-.4,1.33-.6,2-.48a2.93,2.93,0,0,1,1.85,1.19,33.33,33.33,0,0,1,1.62,4.17Z" fill="inherit"/><path d="M1199,364.57c2,.78,4,1.47,5.84,2.38.53.26,1.2,1.49,1,1.74a2.43,2.43,0,0,1-3.63.8c-1.94-1.29-2.4-3.28-2.33-5.46Z" fill="inherit"/><path d="M1218,384.58a35,35,0,0,1-2.71-3.54,2.76,2.76,0,0,1,0-2.11c.23-.58.86-1.37,1.38-1.42,1.1-.09,1.45,1.11,1.08,3-.29,1.48-.51,3-.76,4.46Z" fill="inherit"/><path d="M1217,385c4.74,5.81,4.41,6.83-2.77,8.47l.53.87,3.21-9.76Z" fill="inherit"/><path d="M1220.59,406c1.29-1.63,2.7-3.14,5-3.17a2.63,2.63,0,0,1,1.79.78c1.4,1.62.94,2.91-1.15,2.79a35.62,35.62,0,0,1-6-1.38Z" fill="inherit"/><path d="M1229.33,430.65c1.28-1.41,2.75-1.63,4.15-.35.5.45.93,1.77.66,2.13a2.58,2.58,0,0,1-4.12.38C1229.54,432.38,1229.55,431.39,1229.33,430.65Z" fill="inherit"/><path d="M1243.25,424.66c-.66.22-1.58.83-1.93.59-1.34-.91-1.38-2.28-.21-3.57.45-.48,1.59-1.09,1.76-.93A2.82,2.82,0,0,1,1243.25,424.66Z" fill="inherit"/><path d="M1249,432.21a26.38,26.38,0,0,1,3.88.07c.3.05.8,1.32.59,1.7a2.36,2.36,0,0,1-1.75,1,2.88,2.88,0,0,1-1.83-.92A6.36,6.36,0,0,1,1249,432.21Z" fill="inherit"/><path d="M1270.73,416.93c-1.06,2-2.77,3.16-5,2.43-1-.36-1.74-1.75-2.59-2.68.66-.26,1.38-.84,2-.72,2,.43,3.93,1.1,5.9,1.68Z" fill="inherit"/><path d="M1277,455.34c-.64.23-1.36.74-1.9.6s-1.07-1.3-.91-1.55a24.49,24.49,0,0,1,2.51-2.9,6.48,6.48,0,0,1,.73,1.84A7,7,0,0,1,1277,455.34Z" fill="inherit"/><path d="M1284.36,441.87c.18.68.73,1.59.47,2-.89,1.48-2.27,1.58-3.57.33-.48-.46-1.07-1.62-.9-1.82A3.09,3.09,0,0,1,1284.36,441.87Z" fill="inherit"/><path d="M1293.16,468.44c-3.11,3.74-6.74,3.35-10.57,1.33l.34.8c1.55-2.67,3.7-3.88,6.78-2.74,1.29.48,2.55,1,3.83,1.54Z" fill="inherit"/><path d="M1299.56,451.9c.39,0,.93.89,1.07,1.46.1.4-.37,1.35-.57,1.35a11.82,11.82,0,0,1-3.61-.53c-.41-.14-.49-1.22-.72-1.88A23.82,23.82,0,0,1,1299.56,451.9Z" fill="inherit"/><path d="M1350.67,502a4.24,4.24,0,0,1-4.52,2.9,41.89,41.89,0,0,1-5.77-1.34l.32.74c1.35-2.28,3.53-2.57,5.85-2.32,1.5.16,3,.55,4.47.84Z" fill="inherit"/><path d="M1351,502.8c.57-.45,1.08-1.16,1.72-1.3a15.49,15.49,0,0,1,4.18-.39c.5,0,.95.9,1.42,1.39a14,14,0,0,1-3.46.53,25.17,25.17,0,0,1-4.21-1Z" fill="inherit"/><path d="M1374.79,520.44c1.34-2.27,3.51-2.63,5.84-2.39,1.5.16,3,.59,4.47.89l-.37-.83a4.54,4.54,0,0,1-4.58,2.82,42.56,42.56,0,0,1-5.69-1.24Z" fill="inherit"/><path d="M1385.1,518.94a32.17,32.17,0,0,1,3.52-2.08,3,3,0,0,1,2,.14c.56.24,1,.85,1.43,1.3a12.87,12.87,0,0,1-3.22.68,25.22,25.22,0,0,1-4.14-.87Z" fill="inherit"/><path d="M172.43,998.63c1.42-.31,2.23-.74,2.88-.58a143.43,143.43,0,0,1,32.28,12.51,99.67,99.67,0,0,0,32.86,10.71c3.06.46,6.24.48,9.15,1.4,24.8,7.76,50.11,8.41,75.69,5.86a3.88,3.88,0,0,1,2.22.56c.62.38,1.36,1.08,1.4,1.69a2.25,2.25,0,0,1-1.26,1.69c-2.11.81-4.28,1.84-6.49,2-17.72,1.28-35.46,2.52-53-2.07-16.51-.48-31.77-6.23-47.18-11.3-10.26-3.37-20.52-6.57-29.41-13.3C186.14,1003.66,178.69,1002.81,172.43,998.63Z" fill="inherit"/><path d="M207.86,958.68a53,53,0,0,1,21.2,9.19c5.73,4.29,12.22,6.64,18.69,9.2,16.6,6.59,33.81,11.23,51,16,1.24.35,2.09,2.08,3.12,3.17a6.84,6.84,0,0,1-2.18.73c-14-.63-27.68-3-40.73-8.34-2.87-1.16-5.95-2.09-8.44-3.83-5.8-4.07-12.31-6.56-18.77-9.15-8.71-3.49-16.13-8.87-23-15.12-.42-.38-.17-1.5-.24-2.27Z" fill="inherit"/><path d="M432.8,682.08c.68-.37,1.93-1.08,1.95-1,6.55,10.61,9.35,22.74,13.41,34.32,5.09,14.5,7.71,29.74,10.67,44.83.27,1.38-.41,3-.87,4.46a3.5,3.5,0,0,1-1.44,1.64c-1.22.81-2.77.3-3.16-1.59-5.65-27.12-13.56-53.66-20.77-80.37A6.53,6.53,0,0,1,432.8,682.08Z" fill="inherit"/><path d="M372.14,720.35c3.26-1.1.17-3.5,2.2-1.14.48.57,1.47.75,1.85,1.34A363.73,363.73,0,0,1,408.36,782c2,5,4.13,10,3.7,15.54a3.35,3.35,0,0,1-1.09,1.92c-1.26,1.15-2.43.67-3.38-1.2a31.2,31.2,0,0,1-2.16-4.07c-6.45-19.91-16-38.47-25.14-57.18Z" fill="inherit"/><path d="M115.28,1061.09c4.29,1.71,9.17,2.63,12.75,5.3,8.85,6.57,19,10.06,29,14.11a28.56,28.56,0,0,1,4.25,1.81c15.93,9.75,33.46,14.94,51.64,18.36.28,0,.57,1.32.43,1.92s-.75,1.85-1.2,1.87c-2.27.11-4.71.42-6.81-.25-14-4.42-27.89-8.94-41.73-13.74-4.32-1.5-8.34-3.9-12.46-6s-8-4.55-12.3-6.26c-8.68-3.5-15.89-9-22.58-15.36-.41-.39-.16-1.49-.22-2.26Z" fill="inherit"/><path d="M344,845.32c-12.67-1.93-21.5-10-29.72-18.88a5.55,5.55,0,0,1-1.32-6.13l-.73.45c2.5,1.59,5.43,2.76,7.41,4.83,5.18,5.4,11,6.95,18.15,4.86,2.12-.62,3.81,1.31,4.18,4.15.49,3.68.83,7.39,1.24,11.09Z" fill="inherit"/><path d="M247.28,868.4c2.89,1,6.17,1.43,8.6,3.09,9.45,6.5,20.07,11,29.47,17.49.9.62.79,2.69,1.16,4.08a12.87,12.87,0,0,1-2.27.35A9,9,0,0,1,282,893a9.33,9.33,0,0,1-2.15-.77c-6.67-3.74-13.56-7.15-19.9-11.4-4.35-2.91-7.95-7-11.78-10.59-.41-.39-.15-1.48-.21-2.24Z" fill="inherit"/><path d="M597.77,668.82c.71.31,1.76.41,2.09,1,7.53,12.28,9.2,25.94,9.21,40a3.22,3.22,0,0,1-2.71,3.35c-.32.07-1.15-.77-1.26-1.3-2.3-11.37-4.67-22.73-6.7-34.15-.52-2.95.07-6.1.16-9.16Z" fill="inherit"/><path d="M270.8,856.51c1.49.42,3,.73,4.46,1.28a14.64,14.64,0,0,1,4.15,2.06c9.51,7.83,21.3,12.48,30.3,21.35-1.55.34-3.06,1.19-4.1.8-4.33-1.63-8.93-3-12.68-5.63-7-4.81-14-9.72-19.69-16.17-.92-1.06-1.13-2.74-1.67-4.13Z" fill="inherit"/><path d="M238,951.2c1.29-.2,2.54-.73,3.62-.49,9.12,2,16.33,8,24.38,12.19.57.3.8,1.26,1.19,1.91-1.86-2.49,1.72,1.1-1.34,1.09-4,0-7.44-1.58-10.63-3.48C249.43,959,243.86,955,238,951.2Z" fill="inherit"/><path d="M392.7,814.44c.58.39,1.58.71,1.66,1.19.25,1.39.74,3.42,0,4.16A56.11,56.11,0,0,1,386,827c-.67.48-3.06-.25-3.57-1.09a4.31,4.31,0,0,1,.12-4,87.8,87.8,0,0,1,8.17-7.6C391,814,392,814.38,392.7,814.44Z" fill="inherit"/><path d="M301.9,958c1.89-5.25,4.82-6.36,10.65-3.75a6.59,6.59,0,0,1,1.76,1.37,2.67,2.67,0,0,1,.11,4.1c-2.68,2.75-7.51,1.41-9.89,5.12-.72,1.11-2.46,1.56-3.72,2.32a21,21,0,0,1-.39-4.43A26.9,26.9,0,0,1,301.9,958Z" fill="inherit"/><path d="M243.73,1043.55c-1.26.67-2.62,2.06-3.78,1.91-8.45-1.08-16.29-4.26-23-6.7-2.62-2-2-2.8.43-2.14,8.91,2.42,17.75,5.11,26.62,7.7Z" fill="inherit"/><path d="M244,1044.32c1.21-.73,2.45-2.15,3.61-2.08,6.7.36,13.38,1,20,1.73,1.91.22,2.51,1.46,1.63,2.57a3.33,3.33,0,0,1-1.86,1.17c-2.17.39-4.51,1.21-6.53.75-5.8-1.34-11.48-3.24-17.21-4.91Z" fill="inherit"/><path d="M411.22,751.23c1.43,3.31,3.87,6.51,3.21,10.6-.08.49-1.61,1.3-1.84,1.13-3.87-2.92-4.6-7.56-6-11.76a4.94,4.94,0,0,1,.54-4c.77-1,2.17,0,2.91,1.9A19,19,0,0,0,411.22,751.23Z" fill="inherit"/><path d="M461.76,800.39c-4.13-3.12-7.36-7.34-12.38-9.4-2.24-.93-2.77-4-1.23-5.42,2.53-2.27,3.83.6,5.51,1.67,1.88,1.19,3.67,2.53,5.54,3.72,3.09,2,2.94,4.79,2.19,7.81-.19.72-.36,1.45-.53,2.17Z" fill="inherit"/><path d="M324.67,930.63c1.89,1.71,2.57,4.42,1.33,5.72-2.56,2.68-5.16,5.34-7.86,7.88-.34.31-1.47,0-2.12-.29s-1.46-1-1.38-1.24c1.78-4.77,5.19-8.51,8.13-12.55C322.91,930,324,930.45,324.67,930.63Z" fill="inherit"/><path d="M308.11,893.67c2.54,2.28,5.26,4.6,7.85,7.07,1.28,1.22,1.44,2.56.55,3.23a2.51,2.51,0,0,1-2.09.44,108.29,108.29,0,0,1-9.64-5,2.61,2.61,0,0,1-.46-3.91C305.05,894.64,306.56,894.39,308.11,893.67Z" fill="inherit"/><path d="M547.74,745.61c-.64,2-1.52,2.45-1.9,1.15-1-3.63-1.93-7.3-2.74-11-.41-1.89.6-3.07,2.56-3,.41,0,.82,1.22,1.16,1.9C548.54,738.17,549.8,741.72,547.74,745.61Z" fill="inherit"/><path d="M420.72,809a3.1,3.1,0,0,1,.88,4c-.86,2-4,2.31-5.41.53a3,3,0,0,1,.29-4.15A3.17,3.17,0,0,1,420.72,809Z" fill="inherit"/><path d="M403.78,825.8a69.81,69.81,0,0,1-2.91,8.39,3.88,3.88,0,0,1-3.4,1.62c-1.16-.35-2.19-1.86-2.78-3.1-.73-1.53-.05-3,1.29-4,2.43-1.88,5-3.22,8.21-2.24Z" fill="inherit"/><path d="M432.56,814a2.69,2.69,0,0,1-2.23-3c.12-2.61,1.77-3.95,4-3.41a2.84,2.84,0,0,1,2.47,3A3.67,3.67,0,0,1,432.56,814Z" fill="inherit"/><path d="M439.33,794a3,3,0,0,1,2.09,3.36,3.56,3.56,0,0,1-4.72,3.2c-1.84-.72-2.67-3.88-1.34-5.58A3.19,3.19,0,0,1,439.33,794Z" fill="inherit"/><path d="M319.21,1015a2.84,2.84,0,0,1,2.78-2.67c2.12-.12,3.56,1.87,3.26,4.23a2.76,2.76,0,0,1-2.7,2.74C320.53,1019.39,319,1017.21,319.21,1015Z" fill="inherit"/><path d="M448.54,816.05c.24-1.58,1.19-2.95,2.61-2.72a4.51,4.51,0,0,1,3.08,2.39,5.07,5.07,0,0,1-.79,3.83,2.16,2.16,0,0,1-3.74.21C449,818.8,448.9,817.31,448.54,816.05Z" fill="inherit"/><path d="M321.8,997.16a3.52,3.52,0,0,1-5.48.57c-1.31-1.2-1.24-2.6-.3-4.06a3.38,3.38,0,0,1,5.38-.68A3.23,3.23,0,0,1,321.8,997.16Z" fill="inherit"/><path d="M326.46,948.37a3,3,0,0,1,3-2.69c2.41-.13,3.94,2,3.39,4.43a3.29,3.29,0,0,1-3,2.9C327.73,953.21,326,950.76,326.46,948.37Z" fill="inherit"/><path d="M343.19,845.69a36.67,36.67,0,0,1,3.95,1.88c2.08,1.31,2.63,3.29,2.19,5.7a37.66,37.66,0,0,0-.28,4.4l.82-.44-9.52-3.3.43.71q1.61-4.67,3.2-9.32Z" fill="inherit"/><path d="M321.32,879.68c2.6,2.16,3,5,2.68,8.13a3.12,3.12,0,0,1-2.74,3.06c-.41.06-1.17-.94-1.48-1.58-1-2-2.18-4-2.52-6.18-.16-1,1.34-2.41,2.27-3.46C319.79,879.36,320.72,879.66,321.32,879.68Z" fill="inherit"/><path d="M289.63,948.74a3,3,0,0,1-1.42-3.68,3.07,3.07,0,0,1,5.12-1.34,3,3,0,0,1,.12,4.17A2.71,2.71,0,0,1,289.63,948.74Z" fill="inherit"/><path d="M281.55,969a3.33,3.33,0,0,1,3.28,4.33,2.57,2.57,0,0,1-3.25,2,2.87,2.87,0,0,1-2.49-3.08C279,970.43,279.74,969.34,281.55,969Z" fill="inherit"/><path d="M208.51,958.28c-2.81-1.14-5.71-2.1-8.41-3.46-2-1-3.56-2.75-3.3-5.38l-.78.47c2.84,1.14,5.74,2.13,8.49,3.46,2.09,1,3.63,2.67,3.35,5.31Z" fill="inherit"/><path d="M302.2,932.39c.33-1.85,4.08-3.65,5.81-2.62a2.55,2.55,0,0,1,.74,2.05c-.28,2.95-2.35,3.91-5.1,2.36C303,933.83,302.68,933,302.2,932.39Z" fill="inherit"/><path d="M337.69,884.91c.34,0,1.21,1.12,1.1,1.54-.33,1.27-.73,3-1.65,3.49a5,5,0,0,1-4-.48c-1.45-.83-1.26-2.53.42-3.51A10.72,10.72,0,0,1,337.69,884.91Z" fill="inherit"/><path d="M358.52,817.52a2.92,2.92,0,0,1,1.42,3.44c-.36,1.62-1.38,2.78-2.58,2.22s-1.93-1.88-2.62-3a2.28,2.28,0,0,1,.17-2C355.8,816.86,357.11,816.74,358.52,817.52Z" fill="inherit"/><path d="M346.87,875.91c-.5,3-2,4-4.46,3-1.62-.64-2.51-1.9-1.69-3.07a7,7,0,0,1,3.41-2.29C346.06,872.87,347,873.86,346.87,875.91Z" fill="inherit"/><path d="M355.32,832.2c1.78.44,3.77,4.07,2.67,5.53-.92,1.22-2.86,1.08-4.12,0a2.85,2.85,0,0,1-.28-4.11A8.75,8.75,0,0,1,355.32,832.2Z" fill="inherit"/><path d="M324.42,959.2c.81,1.1,1.92,2.1,2.36,3.34.57,1.58-.17,3.13-1.55,3.25a5.4,5.4,0,0,1-3.6-1.13c-1.62-1.34-.92-4.46,1-5.35A5.34,5.34,0,0,1,324.42,959.2Z" fill="inherit"/><path d="M364.58,853c-.61.44-1.28,1.31-1.82,1.23-1.92-.25-3.72-3.79-2.79-5.48.26-.47,1.38-.72,2.06-.65C365,848.43,366,850.32,364.58,853Z" fill="inherit"/><path d="M369.28,825.38a7.27,7.27,0,0,1,1.9.66,3.31,3.31,0,0,1-.09,5.2,2,2,0,0,1-1.7.24c-1.81-.92-3.06-4-2.15-5.4C367.54,825.62,368.53,825.62,369.28,825.38Z" fill="inherit"/><path d="M483.49,807.35c-.68,1.35-1.42,2.67-2,4-1.06,2.37-2.77,3.37-5.35,2.82-1.47-.32-3-.61-4.44-.91l.49.76A16.06,16.06,0,0,1,484,808.18Z" fill="inherit"/><path d="M460.86,800.94l9.83,3.28-.52-.82c-6.19,4.05-6.9,3.8-8.41-3Z" fill="inherit"/><path d="M471.67,813.31c-.7,2-1.33,4-2.16,5.89-.24.57-1.22,1.35-1.59,1.22a1.75,1.75,0,0,1-.83-3c1.42-1.41,3.36-2.28,5.07-3.39Z" fill="inherit"/><path d="M470.69,804.22c.67-2,1.25-4.05,2.08-6,.22-.51,1.49-1.13,1.84-.93a2.47,2.47,0,0,1,1,3.6c-1.19,2.1-3.27,2.49-5.48,2.49Z" fill="inherit"/><path d="M523.62,727.65c-.33.58-.59,1.61-1,1.67-1.39.19-1.94-1-1.22-2.87.18-.49,1.16-.68,1.78-1C523.33,726.17,523.48,726.91,523.62,727.65Z" fill="inherit"/><path d="M451.33,803.6c.22.6.78,1.38.58,1.77a2.2,2.2,0,0,1-1.75.73c-1.64,0-2.6-1-2.43-2.52,0-.37,1.15-.87,1.77-.86S450.72,803.28,451.33,803.6Z" fill="inherit"/><path d="M598.56,668.49a33,33,0,0,1-2.24-3.55,2.92,2.92,0,0,1,.11-2.09c.22-.56.87-.94,1.34-1.4.39,1.07,1.12,2.16,1.08,3.22a18,18,0,0,1-1.08,4.15Z" fill="inherit"/><path d="M622.26,671.35c-.43-.54-1.08-1-1.24-1.62a15,15,0,0,1-.54-3.93c0-.45.8-.9,1.24-1.35a14.79,14.79,0,0,1,.53,3.25,27.08,27.08,0,0,1-.83,4Z" fill="inherit"/><path d="M372.81,1020.28c-1.37-.34-1.95-1.39-1.51-3.12s1.56-2.47,3-1.93a2.47,2.47,0,0,1,1.06,1.91A2.82,2.82,0,0,1,372.81,1020.28Z" fill="inherit"/><path d="M463.69,718.15c2.43,1.24,2.9,3.46,2.66,5.83a28.58,28.58,0,0,1-1.14,4.48l.64-.29a4.53,4.53,0,0,1-2.76-4.65,41.21,41.21,0,0,1,1.37-5.71Z" fill="inherit"/><path d="M464.46,717.81a4.56,4.56,0,0,1-2.69-4.64,47.25,47.25,0,0,1,1.23-5.71l-.85.4c3.67,3,2.43,6.65,1.54,10.29Z" fill="inherit"/><path d="M428.21,820.86c1.31,1.27,1.38,2.61,0,3.82a6.58,6.58,0,0,1-2,.81,27.21,27.21,0,0,1,0-4C426.33,821.17,427.54,821.05,428.21,820.86Z" fill="inherit"/><path d="M463,707.46a3.47,3.47,0,0,1-2.59-3.48c0-.76,0-1.77.4-2.24,1.51-1.63,2.28-1,2,1.51-.18,1.54-.43,3.07-.64,4.61Z" fill="inherit"/><path d="M425.85,796.41a2.79,2.79,0,0,1,.08,3.83c-.37.45-1.5.9-1.77.69a2.27,2.27,0,0,1-.21-3.71A5.57,5.57,0,0,1,425.85,796.41Z" fill="inherit"/><path d="M425.25,781.42c1.24.27,1.76,1.21,1.35,2.77s-1.41,2.21-2.67,1.74a2.21,2.21,0,0,1-.95-1.71A2.49,2.49,0,0,1,425.25,781.42Z" fill="inherit"/><path d="M404.19,826.48a35.73,35.73,0,0,1,1.4-4.36c.8-1.75,2.06-2.29,3-1.41a2.55,2.55,0,0,1,.37,2c-.13.69-.51,1.66-1.05,1.9a27.17,27.17,0,0,1-4.16,1.16Z" fill="inherit"/><path d="M337,1018.54c.64-.27,1.45-.91,1.88-.72a2.5,2.5,0,0,1,1.11,1.82,3,3,0,0,1-.8,2c-.44.48-1.63,1-1.84.86A2.85,2.85,0,0,1,337,1018.54Z" fill="inherit"/><path d="M340.35,853.93c-.74,2-1.37,4.06-2.26,6-.24.53-1.55,1.17-1.83,1a2.73,2.73,0,0,1-.89-3.77c1.16-2.15,3.1-2.76,5.41-2.5Z" fill="inherit"/><path d="M331.48,869.71c.66-.36,1.71-1.17,1.91-1a2.81,2.81,0,0,1,.45,4.15c-.41.54-1.7,1.16-1.95,1C330.5,872.71,330.46,871.23,331.48,869.71Z" fill="inherit"/><path d="M297.31,984c0,.42-.91,1-1.49,1.11-.37.11-1.32-.38-1.31-.56a13,13,0,0,1,.62-3.69c.17-.44,1.23-.55,1.88-.8A24.89,24.89,0,0,1,297.31,984Z" fill="inherit"/><path d="M319.59,865.23a2.73,2.73,0,0,1,.23,3.82c-.36.45-1.45.91-1.76.7-1.48-1-1.58-2.39-.31-3.68A5.76,5.76,0,0,1,319.59,865.23Z" fill="inherit"/><path d="M299.85,912.17a3,3,0,0,1,4.06-.25,2.27,2.27,0,0,1,.63,2,2.31,2.31,0,0,1-1.86,1.06A2.78,2.78,0,0,1,299.85,912.17Z" fill="inherit"/><path d="M294.7,925.19a2.38,2.38,0,0,1,1.12,3.26c-.59,1.52-1.75,2.14-2.78,1.33a2.52,2.52,0,0,1-.22-3.73C293.2,925.57,294.06,925.46,294.7,925.19Z" fill="inherit"/><path d="M312.94,820.31c-3.76-1.13-7.76-2-7.46-7.29l-.79.46c3.49,1.42,7,2.81,7.52,7.28Z" fill="inherit"/><path d="M305.48,813c-1.39-.69-2.8-1.33-4.13-2.11a10.39,10.39,0,0,1-1.69-1.57c2.77-2.48,3.58.41,4.77,1.86.4.5.19,1.51.26,2.28Z" fill="inherit"/><path d="M271.57,856.07c-1.29-.63-2.59-1.23-3.86-1.91-1.69-.92-2.25-2-1.38-2.66a2.43,2.43,0,0,1,1.9,0c.65.21,1.5.62,1.7,1.16a24.82,24.82,0,0,1,.87,3.88Z" fill="inherit"/><path d="M226.82,941.92l3.45,1.58c-.52.17-1.08.53-1.55.45A4.19,4.19,0,0,1,227,943C226.77,942.85,226.86,942.3,226.82,941.92Z" fill="inherit"/><path d="M248,868a38,38,0,0,1-4.24-1.84c-2-1.19-3.62-2.8-3.12-5.51l-.79.46a50.29,50.29,0,0,1,5.35,2.38,4.49,4.49,0,0,1,2.11,4.92Z" fill="inherit"/><path d="M232.52,853.73c1.34.67,2.72,1.28,4,2,2,1.19,3.47,2.77,3.28,5.33l.79-.46a39.52,39.52,0,0,1-4.11-1.93c-2-1.21-3.48-2.86-3.16-5.47Z" fill="inherit"/><path d="M233.34,853.24c-1.31-.69-2.65-1.35-3.94-2.08a20.63,20.63,0,0,1-1.8-1.31c2.6-2.35,3.22.56,4.35,1.75.45.47.39,1.41.57,2.13Z" fill="inherit"/><path d="M196.8,949.44a27.13,27.13,0,0,1-4-1.77,13.67,13.67,0,0,1-2.34-2.4c1.29.27,2.92.16,3.78.91s1.19,2.45,1.74,3.73Z" fill="inherit"/><path d="M116,1060.63a26.49,26.49,0,0,1-4-1.75,13.05,13.05,0,0,1-2.35-2.45,3.08,3.08,0,0,1,3.91.83,18.47,18.47,0,0,1,1.72,3.83Z" fill="inherit"/><path d="M629.33,815.67c.95-.55,2.18-1.33,2.21-1.28,1.32,1.9,2.88,3.74,3.67,5.87,3.25,8.72,6.95,17.36,9.23,26.35C651.3,873.7,656.8,901.06,658,929.1c.13,3-.73,6.09-1.32,9.1-.11.58-1,1.13-1.72,1.4-.24.09-1.11-.63-1.21-1.09-.69-3-1.39-6-1.8-9.1-.83-6.15-1.45-12.33-2.2-18.49a496.32,496.32,0,0,0-19-88.64A66.47,66.47,0,0,1,629.33,815.67Z" fill="inherit"/><path d="M582.69,961.34c.54.21,1.41.27,1.58.65,7.55,17,12,35,15.52,53.23,1,5.23.63,10.73.76,16.12a2.88,2.88,0,0,1-2.58,3.17c-.44,0-1.33-1-1.46-1.66-2.27-11.32-4.18-22.72-6.74-34s-5.76-22.44-8.62-33.66a4,4,0,0,1,.21-2.28A6.33,6.33,0,0,1,582.69,961.34Z" fill="inherit"/><path d="M669.94,913.69c.61.48,1.65.86,1.77,1.44,2.82,13,3.24,26-.27,39-.54,2-2.14,3.63-3.93,6.53-1-14.46.8-27.5,1.27-40.57.08-2.25,1.25-4.46,1.92-6.68Z" fill="inherit"/><path d="M633.8,920.92c-.85-1-2.14-1.93-2.42-3.09s.64-2.31,1-3.49c.4.26,1,.43,1.16.78a4.22,4.22,0,0,1,.28,2c-.18,1.37-.54,2.73-.82,4.09Z" fill="inherit"/><path d="M670.7,913.36a3.68,3.68,0,0,1-2.47-3.53c-.08-1.73.35-3.24,1.82-3.75.83-.29,1.4,1.22,1,3.16-.28,1.5-.76,3-1.14,4.45Z" fill="inherit"/><path d="M1209.25,534.91c-.27,9.57-2.65,15.89-4.84,22.17-2,5.84-4.08,11.85-7.31,17s-5.38,11.18-8.42,16.52c-11.48,20.15-23.35,40.07-38.64,57.68-1.43,1.65-2.75,1.48-3.11,0a3.49,3.49,0,0,1,0-2.19,99.54,99.54,0,0,1,5.57-10.14c5.63-8.34,11.64-16.41,17.22-24.78,8.57-12.87,17-25.84,22.23-40.57C1196.09,558.89,1202.84,548.48,1209.25,534.91Z" fill="inherit"/><path d="M1209.57,633.05c-1.72,3.38-3,7.11-5.26,10.06-5.11,6.62-10.51,13-16.21,19.16-2.53,2.72-6,4.64-9.17,6.68-1.69,1.08-3,.49-3.32-1.09a2.79,2.79,0,0,1,.37-2.06q14.91-15.72,29.92-31.34a3.56,3.56,0,0,1,4.13-.68Z" fill="inherit"/><path d="M1076.32,604.44c1,1.08,2.64,2,3,3.26a188.36,188.36,0,0,0,11.6,30.37c.95,2,.65,3.13-1.29,3.3a2.8,2.8,0,0,1-2.13-.72,54.49,54.49,0,0,1-11.7-32.11c-.07-1.45.81-2.94,1.25-4.42Z" fill="inherit"/><path d="M1255.79,629.08c1.47-3.35,2.92-6.7,4.46-10,.16-.35.87-.45,1.32-.66.16.71.6,1.5.43,2.12-1,3.63-2.3,7.05-6.66,7.85Z" fill="inherit"/><path d="M1230.37,571.58c1.58-3.7,2.5-7.74,5.63-11.36.22,5.42-1,9.19-6.1,10.61Z" fill="inherit"/><path d="M1210,633.78c1.44-3.28,2.85-6.58,4.35-9.83.18-.38.88-.52,1.33-.77.17.7.61,1.46.45,2.07-.91,3.65-2.59,6.73-6.59,7.8Z" fill="inherit"/><path d="M1032.55,545.05c-.48-.52-1.24-1-1.39-1.56a14.37,14.37,0,0,1-.38-4c0-.49.84-1,1.3-1.42a14.41,14.41,0,0,1,.5,3.28,28.43,28.43,0,0,1-.88,4.11Z" fill="inherit"/><path d="M1033.87,555.62a5,5,0,0,1-2.44-4.85,56.09,56.09,0,0,1,1.12-5.72l-.85.38a4.74,4.74,0,0,1,2.85,4.72,38.13,38.13,0,0,1-1.39,5.77Z" fill="inherit"/><path d="M1074.06,583.28a26.81,26.81,0,0,1-2.16-3.48,2.9,2.9,0,0,1,.26-2.07,6.77,6.77,0,0,1,1.33-1.53,13.25,13.25,0,0,1,.58,3.22,27.27,27.27,0,0,1-.87,4.24Z" fill="inherit"/><path d="M1073.2,583.66c2.22,1.33,2.68,3.47,2.5,5.8a42.87,42.87,0,0,1-.77,4.46l.77-.33a4.14,4.14,0,0,1-2.82-4.51,55.71,55.71,0,0,1,1.18-5.8Z" fill="inherit"/><path d="M1077,604.12a4.46,4.46,0,0,1-2.82-4.71,40.37,40.37,0,0,1,1.48-5.82l-.77.33c3.62,3.09,2.45,6.81,1.39,10.52Z" fill="inherit"/><path d="M1270.28,608.29c-.33.55-.54,1.4-1,1.6-.93.37-1.17-.6-.32-2.28.28-.53,1-.86,1.45-1.29C1270.35,607,1270.32,607.63,1270.28,608.29Z" fill="inherit"/><path d="M340.27,1154.59c5.12,1.63,10.25,3.23,15.35,4.89,8,2.62,16.16,5,24,8,7.39,2.83,15.24,1.4,22.66,3.3,1.34.34,2.43,1.64,3.63,2.5-.58.37-1.13,1-1.74,1.07-3.79.34-7.77,1.4-11.36.66-17.34-3.58-34.15-8.89-49.93-17.06-1-.54-1.31-2.51-1.94-3.82Z" fill="inherit"/><path d="M505,1097.19c.75-.17,1.59-.64,2.22-.44q15.18,4.8,30.31,9.81c.6.2,1,1.13,1.43,1.72-1.1.37-2.32,1.27-3.28,1a126.33,126.33,0,0,1-29.85-10.81C505.4,1098.3,505.24,1097.64,505,1097.19Z" fill="inherit"/><path d="M341,1154.14c-4.68-2-9.37-4-14-6.12-.26-.12-.27-.81-.39-1.23.71-.13,1.55-.58,2.11-.35a85.83,85.83,0,0,1,10,4.42c.94.51,1.09,2.45,1.6,3.73Z" fill="inherit"/><path d="M337.92,1118.67c-2.79-1.17-5.6-2.29-8.36-3.55-.64-.29-1.07-1-1.59-1.58,2,2.41-1.74-1.61,1.31-1,3.89.75,7.25,2,7.94,6.6Z" fill="inherit"/><path d="M407.33,1139.51a18.64,18.64,0,0,1,4.39.46,20.35,20.35,0,0,1,3.89,2.35,18.11,18.11,0,0,1-4.4-.44A19.6,19.6,0,0,1,407.33,1139.51Z" fill="inherit"/><path d="M436.36,1072.44c-1.22-.64-2.47-1.22-3.65-1.93-1.6-1-2-2-1.08-2.67a2.26,2.26,0,0,1,1.81.08c.61.23,1.4.67,1.57,1.19a24.71,24.71,0,0,1,.62,3.77Z" fill="inherit"/><path d="M435.63,1072.88a40.7,40.7,0,0,1,5.6,2.2,4.48,4.48,0,0,1,2.08,5.11l.56-.33c-3.85-1.11-7.3-2.63-7.51-7.42Z" fill="inherit"/><path d="M488.78,1087l3.41,1.5a3.59,3.59,0,0,1-1.43.36,4.21,4.21,0,0,1-1.72-.82C488.82,1087.9,488.86,1087.39,488.78,1087Z" fill="inherit"/><path d="M314.31,1137.85l4,1.76c-.57.21-1.18.66-1.7.58a4.38,4.38,0,0,1-2-1C314.31,1139,314.39,1138.3,314.31,1137.85Z" fill="inherit"/><path d="M858.43,474c.68.34,1.72.51,2,1.06,5,10.24,10,20.52,14.93,30.8.57,1.19,0,1.74-1.52,1.23-1.33-.47-3-.87-3.77-1.89a73.94,73.94,0,0,1-11.54-24.81c-.54-2,.36-4.46.6-6.71Z" fill="inherit"/><path d="M939.09,514.63c-.67-.31-1.57-.46-2-1A25.55,25.55,0,0,1,931,497.32a2.41,2.41,0,0,1,1.2-1.58,1.59,1.59,0,0,1,1.53.33,34,34,0,0,1,5.72,14.48c.18,1.38-.52,2.87-.82,4.31Z" fill="inherit"/><path d="M938.61,514.86c5.66,3.43,7.69,8.89,8.4,15.08.23,2-.45,2.17-2.17.71-5-4.25-8.09-9.15-5.75-16Z" fill="inherit"/><path d="M914.17,529.13c2.48,4.6,5.1,9.13,7.36,13.84.93,1.92,1.06,4.23,1.55,6.36C915.05,544.83,911.62,538.3,914.17,529.13Z" fill="inherit"/><path d="M853.88,457.85c5.66,4.22,6.57,9.78,4.55,16.17l.69-.32c-5.42-4.33-5.67-10.06-4.41-16.21Z" fill="inherit"/><path d="M823.25,358.6c-4-2.84-2.22-6.3-1-9.66.23-.61.94-1.05,1.43-1.57.28.29.84.64.8.88-.61,3.57-1.31,7.11-2,10.67Z" fill="inherit"/><path d="M854.71,457.49a31.89,31.89,0,0,1-2.12-3.47,2.84,2.84,0,0,1,.1-2c.22-.55.83-.95,1.26-1.42a12,12,0,0,1,.78,3.18,23.61,23.61,0,0,1-.85,4.09Z" fill="inherit"/><path d="M900.45,438c-1.56-.67-2.59-1.85-2.34-3.4a16.65,16.65,0,0,1,1.58-3.75c.32.31.84.59.92,1a5.62,5.62,0,0,1,0,2.2c-.26,1.46-.66,2.9-1,4.34Z" fill="inherit"/><path d="M907,505.07l-2.16,8.48a8.65,8.65,0,0,1-1.26-1.89C902.21,507.67,902.55,507.08,907,505.07Z" fill="inherit"/><path d="M927.71,479.65c.4.23,1.08.41,1.13.7a3.38,3.38,0,0,1-.19,2.08c-.31.51-1.11.73-1.69,1.08Z" fill="inherit"/><path d="M1438.92,610.44c.91-1.09,1.61-2.63,2.78-3.2a18.33,18.33,0,0,1,13.23-1.47l-.36-.84c-.36.66-.56,1.56-1.11,2-4.5,3.15-9.36,4.63-14.83,2.87Z" fill="inherit"/><path d="M1419.61,631.23c.2-.36.39-1,.61-1a3.9,3.9,0,0,1,2.08.34c.55.33.84,1.08,1.24,1.65Z" fill="inherit"/><path d="M1428.41,611.71a4.65,4.65,0,0,1,4.76-2.84,36.36,36.36,0,0,1,5.75,1.57l-.29-.69c-3,4-6.68,3.07-10.46,1.42Z" fill="inherit"/><path d="M1454.93,605.77a34.33,34.33,0,0,1,3.47-2.09,2.91,2.91,0,0,1,2,.07c.54.2.93.81,1.38,1.24a11.17,11.17,0,0,1-3.17.79,21.48,21.48,0,0,1-4-.85Z" fill="inherit"/><path d="M894.86,288.54c-1.24.81-2.42,2.14-3.73,2.28a5,5,0,0,1-4-1.57,112.3,112.3,0,0,1-15.14-31,3.08,3.08,0,0,1,.2-2.26c1.15-1.84,2.35-1.79,3.28,0,4.64,8.87,9.15,17.81,14,26.57,1.44,2.6,3.8,4.69,5.73,7Z" fill="inherit"/><path d="M826.88,197.56a16.11,16.11,0,0,1-2.43-3.3,2.61,2.61,0,0,1,1.33-3.5c.2-.09,1,.45,1.09.83a4.46,4.46,0,0,1,.23,2.11c-.23,1.42-.64,2.8-1,4.19Z" fill="inherit"/><path d="M863.5,226.24a6.54,6.54,0,0,1,.18-2,5.86,5.86,0,0,1,1.24-1.42c0,1.13-.06,2.25-.16,3.36A11.4,11.4,0,0,1,863.5,226.24Z" fill="inherit"/><path d="M869.76,242.86l-1.81.68a8.38,8.38,0,0,1-.51-1.9,2.94,2.94,0,0,1,.45-1.88c.38-.44,1.17-.52,1.78-.76Z" fill="inherit"/><path d="M1324.44,663.61a6.14,6.14,0,0,1-2.07.3c-.57-.11-1.53-.8-1.48-1.07.24-1.21,1.47-1.58,3.16-.91C1324.35,662.05,1324.32,663,1324.44,663.61Z" fill="inherit"/></g></svg>